SplineFontDB: 3.0
FontName: Exo-BlackItalic
FullName: Exo Black Italic
FamilyName: Exo
Weight: Black
Copyright: Copyright (c) 2011 Natanael Gama (exo@ndiscovered.com), with Reserved Font Name "Exo"
UComments: "2010-2-8: Created." 
Version: 1.00
ItalicAngle: 0
UnderlinePosition: -100
UnderlineWidth: 50
Ascent: 800
Descent: 200
sfntRevision: 0x00010000
LayerCount: 2
Layer: 0 0 "Back"  1
Layer: 1 0 "Fore"  0
XUID: [1021 348 1054973004 1200425]
FSType: 8
OS2Version: 0
OS2_WeightWidthSlopeOnly: 0
OS2_UseTypoMetrics: 1
CreationTime: 1265665101
ModificationTime: 1325018773
PfmFamily: 33
TTFWeight: 800
TTFWidth: 5
LineGap: 90
VLineGap: 0
OS2TypoAscent: 0
OS2TypoAOffset: 1
OS2TypoDescent: 0
OS2TypoDOffset: 1
OS2TypoLinegap: 90
OS2WinAscent: 0
OS2WinAOffset: 1
OS2WinDescent: 0
OS2WinDOffset: 1
HheadAscent: 0
HheadAOffset: 1
HheadDescent: 0
HheadDOffset: 1
OS2Vendor: 'PfEd'
Lookup: 4 0 0 "'ordn' Ordinals lookup 21"  {"'ordn' Ordinals lookup 21-1"  } ['ordn' ('DFLT' <'dflt' > 'grek' <'dflt' > 'latn' <'dflt' > ) ]
Lookup: 1 0 0 "'smcp' Lowercase to Small Capitals lookup 16"  {"'smcp' Lowercase to Small Capitals lookup 16-1" ("smcp" ) } ['smcp' ('DFLT' <'dflt' > 'grek' <'dflt' > 'latn' <'FRA ' 'dflt' > ) ]
Lookup: 1 0 0 "'c2sc' Capitals to Small Capitals in Latin lookup 17"  {"'c2sc' Capitals to Small Capitals in Latin lookup 17 subtable" ("smcp" ) } ['c2sc' ('latn' <'dflt' > ) ]
Lookup: 4 0 0 "'dlig' Discretionary Ligatures lookup 14"  {"'dlig' Discretionary Ligatures lookup 14-1"  } ['dlig' ('DFLT' <'dflt' > 'grek' <'dflt' > 'latn' <'dflt' > ) ]
Lookup: 4 0 1 "'liga' Standard Ligatures lookup 15"  {"'liga' Standard Ligatures lookup 15-1"  } ['liga' ('DFLT' <'dflt' > 'grek' <'dflt' > 'latn' <'FRA ' 'dflt' > ) ]
Lookup: 1 0 0 "'frac' Diagonal Fractions lookup 13"  {"'frac' Diagonal Fractions lookup 13-1"  } ['frac' ('DFLT' <'dflt' > 'grek' <'dflt' > 'latn' <'FRA ' 'dflt' > ) ]

StartChar: a
Encoding: 97 97 0
Width: 546
VWidth: 0
Flags: W
HStem: -5 155<149.5 299.929>
LayerCount: 2
Fore
SplineSet
69 312 m 0
 116 534 234 541 338 541 c 0
 420 541 539 528 590 479 c 9
 520 2 l 17
 367 2 l 1
 337 52 l 17
 313 8 250 -5 197 -5 c 3
 102 -5 26 111 69 312 c 0
259 288 m 0
 249 218 240 150 290 150 c 3
 332 150 352 169 355 202 c 1
 382 392 l 1
 374 399 349 401 329 396 c 0
 300 389 271 375 259 288 c 0
EndSplineSet
AlternateSubs2: "'salt' Access All Alternates in Latin lookup 4-1" a.salt
Substitution2: "'smcp' Lowercase to Small Capitals lookup 16-1" a.smcp
EndChar

StartChar: z
Encoding: 122 122 1
Width: 488
VWidth: 0
Flags: W
HStem: 1 154<316 474.072> 377 154<101 289>
LayerCount: 2
Fore
SplineSet
32 1 m 25
 56 153 l 25
 289 377 l 17
 77 377 l 17
 101 531 l 25
 557 531 l 25
 533 377 l 25
 316 155 l 21
 497 155 l 17
 498 154 473 1 473 1 c 25
 32 1 l 25
EndSplineSet
Validated: 33
Substitution2: "'smcp' Lowercase to Small Capitals lookup 16-1" z.smcp
EndChar

StartChar: e
Encoding: 101 101 2
Width: 529
VWidth: 0
Flags: W
HStem: 22 136<424.305 507> 397 144<293.925 364.83>
LayerCount: 2
Fore
SplineSet
71 318 m 0
 102 481 150 539 345 541 c 0
 450 542 570 515 567 388 c 0
 562 127 293 177 256 192 c 1
 249 146 269 139 340 139 c 0
 386 139 482 148 531 158 c 1
 507 22 l 17
 430 -3 342 -19 208 -7 c 0
 81 4 35 124 71 318 c 0
271 316 m 0
 271 316 355 289 367 353 c 0
 373 385 359 398 330 397 c 0
 288 395 278 361 271 316 c 0
EndSplineSet
Validated: 33
Substitution2: "'smcp' Lowercase to Small Capitals lookup 16-1" e.smcp
EndChar

StartChar: o
Encoding: 111 111 3
Width: 553
VWidth: 0
Flags: W
HStem: -5 144<255.974 349.577> 395 144<288.529 379.992>
LayerCount: 2
Fore
SplineSet
68 283 m 0
 102 500 177 539 361 539 c 3
 547 539 599 444 566 233 c 0
 535 36 466 -5 275 -5 c 3
 88 -5 38 93 68 283 c 0
262 258 m 0
 245 153 247 139 298 139 c 3
 353 139 354 147 372 258 c 0
 390 373 394 395 338 395 c 3
 279 395 280 372 262 258 c 0
EndSplineSet
Validated: 33
Substitution2: "'smcp' Lowercase to Small Capitals lookup 16-1" o.smcp
EndChar

StartChar: c
Encoding: 99 99 5
Width: 489
VWidth: 0
Flags: W
HStem: -5 144<261.114 428.77> 397 144<236 493.438>
LayerCount: 2
Fore
SplineSet
70 296 m 0
 103 504 185 541 287 541 c 7
 339 541 462 536 540 505 c 5
 522 391 l 5
 522 391 463 397 374 397 c 7
 306 397 284 394 263 264 c 0
 244 142 261 139 333 139 c 3
 425 139 491 147 491 147 c 1
 473 33 l 17
 400 0 334 -7 202 -5 c 0
 103 -4 37 88 70 296 c 0
EndSplineSet
Validated: 33
Substitution2: "'smcp' Lowercase to Small Capitals lookup 16-1" c.smcp
EndChar

StartChar: d
Encoding: 100 100 6
Width: 549
VWidth: 0
Flags: W
HStem: -6 157<169.911 303.629> 400 139<213 391.745> 765 20G<452.812 650>
DStem2: 358 173 526 0 0.156027 0.987753<-19.925 221.99 340.31 619.795>
LayerCount: 2
Fore
SplineSet
69 303 m 0
 96 454 141 539 285 539 c 3
 330 539 379 528 412 509 c 1
 456 785 l 1
 650 785 l 1
 526 0 l 1
 360 0 l 1
 338 49 l 17
 294 16 258 -6 199 -6 c 3
 80 -6 37 124 69 303 c 0
265 273 m 0
 248 164 261 151 290 151 c 3
 321 151 345 156 358 173 c 1
 392 385 l 1
 384 396 354 400 329 400 c 1
 301 400 283 386 265 273 c 0
EndSplineSet
Validated: 33
AlternateSubs2: "'salt' Access All Alternates in Latin lookup 4-1" d.salt
Substitution2: "'smcp' Lowercase to Small Capitals lookup 16-1" d.smcp
EndChar

StartChar: A
Encoding: 65 65 7
Width: 711
VWidth: 0
Flags: W
HStem: 0 21G<25 248.906 502.719 705> 128 165<367 472> 712 20G<360.574 601.896>
LayerCount: 2
Fore
SplineSet
25 0 m 1
 370 732 l 1
 599 732 l 1
 705 0 l 1
 506 0 l 1
 485 128 l 5
 297 128 l 1
 240 0 l 1
 25 0 l 1
367 293 m 1
 472 293 l 1
 449 489 l 1
 367 293 l 1
EndSplineSet
Validated: 1
Substitution2: "'c2sc' Capitals to Small Capitals in Latin lookup 17 subtable" a.smcp
EndChar

StartChar: p
Encoding: 112 112 8
Width: 555
VWidth: 0
Flags: W
HStem: -10 140<252.524 345.038> 403 134<293 378.469>
DStem2: -8 -270 186 -270 0.156291 0.987711<30.3205 332.992 442.409 711.773>
LayerCount: 2
Fore
SplineSet
-8 -270 m 9
 114 501 l 1
 171 523 305 537 411 537 c 3
 536 537 603 438 571 238 c 0
 541 46 477 -10 324 -10 c 3
 279 -10 250 0 233 29 c 1
 186 -270 l 17
 -8 -270 l 9
252 149 m 1
 262 134 278 130 298 130 c 0
 350 130 360 163 378 275 c 0
 388 335 398 403 340 403 c 2
 293 403 l 2
 252 149 l 1
EndSplineSet
Validated: 33
AlternateSubs2: "'salt' Access All Alternates in Latin lookup 4-1" p.salt
Substitution2: "'smcp' Lowercase to Small Capitals lookup 16-1" p.smcp
EndChar

StartChar: b
Encoding: 98 98 9
Width: 559
VWidth: 0
Flags: W
HStem: -6 157<277.655 416.467> 400 139<328.068 517> 765 20G<154.841 352>
DStem2: 34 0 256 173 0.156027 0.987753<192.324 434.11 545.674 794.733>
LayerCount: 2
Fore
SplineSet
34 0 m 1
 158 785 l 1
 352 785 l 1
 309 509 l 1
 348 528 400 539 445 539 c 3
 589 539 604 412 574 223 c 0
 543 30 478 -6 359 -6 c 3
 300 -6 271 16 237 49 c 9
 200 0 l 1
 34 0 l 1
256 173 m 1
 263 156 287 151 318 151 c 3
 347 151 364 164 381 273 c 0
 399 386 385 400 357 400 c 1
 332 400 302 396 290 385 c 1
 256 173 l 1
EndSplineSet
Validated: 33
AlternateSubs2: "'salt' Access All Alternates in Latin lookup 4-1" b.salt
Substitution2: "'smcp' Lowercase to Small Capitals lookup 16-1" b.smcp
EndChar

StartChar: q
Encoding: 113 113 10
Width: 554
VWidth: 0
Flags: W
HStem: -10 140<152.5 312.467> 407 134<303.39 386.807>
DStem2: 285 -270 479 -270 0.155504 0.987835<30.1678 302.671 405.143 685.248>
LayerCount: 2
Fore
SplineSet
70 298 m 0
 102 498 190 541 315 541 c 7
 421 541 550 527 601 505 c 5
 479 -270 l 17
 285 -270 l 9
 332 29 l 1
 305 0 274 -10 229 -10 c 3
 76 -10 40 106 70 298 c 0
265 275 m 0
 247 163 247 130 299 130 c 3
 319 130 337 134 351 149 c 1
 391 407 l 6
 344 407 l 6
 286 407 275 335 265 275 c 0
EndSplineSet
Validated: 33
Substitution2: "'smcp' Lowercase to Small Capitals lookup 16-1" q.smcp
EndChar

StartChar: n
Encoding: 110 110 11
Width: 555
VWidth: 0
Flags: W
HStem: 0 21G<34 231.175 334 531.176> 396 144<360.988 529> 511 20G<114.836 289.231>
DStem2: 34 0 228 0 0.156249 0.987718<30.3123 423.125> 334 0 528 0 0.155078 0.987902<30.0851 395.281>
LayerCount: 2
Fore
SplineSet
34 0 m 1xc0
 118 531 l 1
 280 531 l 1xa0
 304 479 l 1
 342 510 379 540 460 540 c 3
 598 540 600 452 582 340 c 2
 528 0 l 9
 334 0 l 17
 388 344 l 2
 395 386 386 396 364 396 c 3
 327 396 301 386 285 359 c 1
 228 0 l 1
 34 0 l 1xc0
EndSplineSet
Validated: 33
AlternateSubs2: "'salt' Access All Alternates in Latin lookup 4-1" n.salt
Substitution2: "'smcp' Lowercase to Small Capitals lookup 16-1" n.smcp
EndChar

StartChar: i
Encoding: 105 105 12
Width: 252
VWidth: 0
Flags: W
HStem: 0 21G<29 226.164> 511 20G<109.836 307> 581 165<142.705 319.789>
VStem: 29 309
DStem2: 29 0 223 0 0.15751 0.987517<30.5569 537.603 615.488 758.896>
LayerCount: 2
Fore
SplineSet
29 0 m 1
 113 531 l 1
 307 531 l 1
 223 0 l 1
 29 0 l 1
124 604 m 2
 142 721 l 2
 144 736 154 746 170 746 c 2
 320 746 l 2
 335 746 340 735 338 721 c 2
 320 604 l 2
 318 589 308 581 294 581 c 2
 144 581 l 2
 130 581 122 590 124 604 c 2
EndSplineSet
Validated: 1
Substitution2: "'smcp' Lowercase to Small Capitals lookup 16-1" i.smcp
EndChar

StartChar: h
Encoding: 104 104 13
Width: 555
VWidth: 0
Flags: W
HStem: 0 21G<34 231.175 334 531.176> 396 144<359.921 529> 762 20G<154.829 351>
DStem2: 34 0 228 0 0.156611 0.98766<30.3826 423.203 515.218 791.77> 334 0 528 0 0.155078 0.987902<30.0851 395.281>
LayerCount: 2
Fore
SplineSet
34 0 m 1
 158 782 l 1
 351 782 l 1
 303 479 l 1
 337 508 379 540 460 540 c 3
 598 540 600 452 582 340 c 2
 528 0 l 9
 334 0 l 17
 388 344 l 2
 395 386 386 396 364 396 c 3
 327 396 301 386 285 359 c 1
 228 0 l 1
 34 0 l 1
EndSplineSet
Validated: 33
Substitution2: "'smcp' Lowercase to Small Capitals lookup 16-1" h.smcp
EndChar

StartChar: u
Encoding: 117 117 14
Width: 554
VWidth: 0
Flags: W
HStem: -9 144<111 283.92> 0 21G<350.154 524.201> 511 20G<108.824 306 408.825 606>
DStem2: 58 191 251 187 0.157879 0.987459<-20.9348 344.261> 355 172 521 0 0.158063 0.987429<-29.3551 363.497>
LayerCount: 2
Fore
SplineSet
58 191 m 2xa0
 112 531 l 9
 306 531 l 17
 251 187 l 2
 244 145 254 135 276 135 c 3xa0
 313 135 339 145 355 172 c 1
 412 531 l 1
 606 531 l 1
 521 0 l 1
 359 0 l 1x60
 336 52 l 1
 294 13 261 -9 180 -9 c 3
 42 -9 40 79 58 191 c 2xa0
EndSplineSet
Validated: 33
AlternateSubs2: "'salt' Access All Alternates in Latin lookup 4-1" u.salt
Substitution2: "'smcp' Lowercase to Small Capitals lookup 16-1" u.smcp
EndChar

StartChar: r
Encoding: 114 114 15
Width: 410
VWidth: 0
Flags: W
HStem: 0 21G<34 231.158> 345 186<347.168 445>
DStem2: 34 0 228 0 0.156249 0.987718<30.3123 372.099>
LayerCount: 2
Fore
SplineSet
34 0 m 1
 118 531 l 1
 290 531 l 1
 301 464 l 1
 324 500 375 536 428 536 c 27
 446 536 459 536 474 531 c 1
 445 345 l 1
 429 345 397 345 366 345 c 27
 326 345 283 345 273 285 c 1
 228 0 l 1
 34 0 l 1
EndSplineSet
Validated: 1
AlternateSubs2: "'salt' Access All Alternates in Latin lookup 4-1" r.salt
Substitution2: "'smcp' Lowercase to Small Capitals lookup 16-1" r.smcp
EndChar

StartChar: m
Encoding: 109 109 16
Width: 857
VWidth: 0
Flags: W
HStem: 0 21G<34 231.175 334 531.176 636 833.176> 396 144<360.708 495 656.314 831> 511 20G<114.836 289.231>
DStem2: 34 0 228 0 0.156249 0.987718<30.3123 423.125> 334 0 528 0 0.156517 0.987675<30.3643 396.349> 636 0 830 0 0.157879 0.987459<30.6284 395.825>
LayerCount: 2
Fore
SplineSet
34 0 m 1xc0
 118 531 l 1
 280 531 l 1xa0
 304 479 l 1
 346 512 379 540 460 540 c 0
 530 540 565 517 580 479 c 1
 628 507 685 540 762 540 c 0
 900 540 902 452 884 340 c 2
 830 0 l 1
 636 0 l 1
 691 344 l 2
 698 386 688 396 666 396 c 0
 633 396 603 388 586 366 c 1
 585 358 583 349 582 340 c 2
 528 0 l 1
 334 0 l 1
 388 344 l 2
 395 386 386 396 364 396 c 0
 327 396 301 386 285 359 c 1
 228 0 l 1
 34 0 l 1xc0
EndSplineSet
Validated: 33
AlternateSubs2: "'salt' Access All Alternates in Latin lookup 4-1" m.salt
Substitution2: "'smcp' Lowercase to Small Capitals lookup 16-1" m.smcp
EndChar

StartChar: f
Encoding: 102 102 17
Width: 406
VWidth: 0
Flags: W
HStem: 0 21G<82 279.174> 397 134<360 437> 652 134<379.897 498>
DStem2: 82 0 276 0 0.156768 0.987636<30.4129 401.968 568.016 689.857>
LayerCount: 2
Fore
SplineSet
73 397 m 1
 92 514 l 1
 166 531 l 1
 182 630 l 2
 201 751 271 786 391 786 c 0
 440 786 480 782 516 762 c 1
 498 651 l 1
 497 651 425 652 425 652 c 2
 375 653 376 632 366 570 c 2
 360 531 l 1
 458 531 l 1
 437 397 l 1
 339 397 l 9
 276 0 l 17
 82 0 l 1
 145 397 l 1
 73 397 l 1
EndSplineSet
Validated: 33
AlternateSubs2: "'salt' Access All Alternates in Latin lookup 4-1" f.salt
Substitution2: "'smcp' Lowercase to Small Capitals lookup 16-1" f.smcp
EndChar

StartChar: l
Encoding: 108 108 18
Width: 322
VWidth: 0
Flags: W
HStem: 0 21G<155.5 314.186> 763 20G<151.835 349>
DStem2: 61 189 262 229 0.156304 0.987709<-6.61184 601.392>
LayerCount: 2
Fore
SplineSet
61 189 m 2
 155 783 l 1
 349 783 l 1
 262 229 l 2
 251 160 264 146 284 134 c 2
 284 134 322 113 329 113 c 1
 311 0 l 1
 203 0 l 6
 108 0 39 48 61 189 c 2
EndSplineSet
Validated: 33
Substitution2: "'smcp' Lowercase to Small Capitals lookup 16-1" l.smcp
EndChar

StartChar: j
Encoding: 106 106 19
Width: 265
VWidth: 0
Flags: W
HStem: 511 20G<117.829 315> 581 165<149.702 326.789>
DStem2: -6 -270 230 -4 0.154529 0.987988<85.7218 811.004 888.219 1031.67>
LayerCount: 2
Fore
SplineSet
-6 -270 m 1
 121 531 l 1
 315 531 l 1
 230 -4 l 2
 217 -90 199 -192 142 -270 c 1
 -6 -270 l 1
130 604 m 2
 149 721 l 2
 151 736 161 746 177 746 c 2
 327 746 l 2
 342 746 348 735 346 721 c 2
 327 604 l 2
 325 589 315 581 301 581 c 2
 151 581 l 2
 137 581 128 590 130 604 c 2
EndSplineSet
Validated: 33
Substitution2: "'smcp' Lowercase to Small Capitals lookup 16-1" j.smcp
EndChar

StartChar: t
Encoding: 116 116 20
Width: 375
VWidth: 0
Flags: W
HStem: -1 21G<195 358.186> 398 134<354 422>
LayerCount: 2
Fore
SplineSet
64 398 m 5
 79 494 l 5
 160 532 l 5
 212 680 l 5
 378 680 l 5
 354 532 l 5
 443 532 l 5
 422 398 l 5
 333 398 l 5
 306 230 l 6
 295 159 307 145 327 133 c 6
 327 133 366 112 373 112 c 5
 355 -1 l 5
 235 -1 l 6
 155 -1 84 49 106 190 c 6
 139 398 l 5
 64 398 l 5
EndSplineSet
Validated: 33
AlternateSubs2: "'salt' Access All Alternates in Latin lookup 4-1" t.salt
Substitution2: "'smcp' Lowercase to Small Capitals lookup 16-1" t.smcp
EndChar

StartChar: s
Encoding: 115 115 21
Width: 510
VWidth: 0
Flags: W
HStem: -5 151<70.3829 321> 386 150<273.344 522>
LayerCount: 2
Fore
SplineSet
49 32 m 13
 67 146 l 21
 298 146 l 22
 315 146 318 153 320 163 c 6
 321 168 l 6
 323 180 320 186 304 186 c 14
 209 186 l 6
 115 186 59 255 75 358 c 14
 83 404 l 22
 96 486 142 536 245 536 c 7
 388 536 514 539 540 500 c 13
 522 386 l 21
 299 386 l 6
 286 386 277 386 274 368 c 14
 273 362 l 22
 270 346 281 346 293 346 c 6
 393 346 l 6
 506 346 533 261 520 182 c 5
 511 123 l 6
 494 14 421 -5 357 -5 c 7
 214 -5 79 -9 49 32 c 13
EndSplineSet
Validated: 33
Substitution2: "'smcp' Lowercase to Small Capitals lookup 16-1" s.smcp
EndChar

StartChar: k
Encoding: 107 107 22
Width: 564
VWidth: 0
Flags: W
HStem: 0 21G<34 231.229 386.696 605> 511 20G<418 637> 762 20G<154.829 352>
DStem2: 34 0 228 0 0.156611 0.98766<30.3826 256.269 390.76 791.77>
LayerCount: 2
Fore
SplineSet
34 0 m 1
 158 782 l 1
 352 782 l 1
 284 356 l 1
 353 386 402 436 434 531 c 1
 637 531 l 1
 596 380 530 322 474 288 c 1
 605 0 l 1
 395 0 l 1
 302 224 l 1
 264 223 l 9
 228 0 l 17
 34 0 l 1
EndSplineSet
Validated: 1
Substitution2: "'smcp' Lowercase to Small Capitals lookup 16-1" k.smcp
EndChar

StartChar: g
Encoding: 103 103 23
Width: 560
VWidth: 0
Flags: W
HStem: 6 140<154.5 315.117> 409 134<298.662 388.052>
DStem2: 323 -24 515 -54 0.156686 0.987648<-71.5086 68.8836 172.317 438.463>
LayerCount: 2
Fore
SplineSet
5 -248 m 1
 25 -119 l 1
 223 -119 l 2
 276 -119 313 -88 323 -24 c 2
 334 44 l 1
 308 16 276 6 231 6 c 3
 78 6 42 121 72 313 c 0
 102 502 191 543 316 543 c 3
 422 543 553 529 604 507 c 1
 515 -54 l 2
 492 -200 417 -292 229 -272 c 2
 5 -248 l 1
267 291 m 0
 249 179 249 146 301 146 c 3
 321 146 339 150 353 165 c 1
 392 409 l 2
 345 409 l 2
 287 409 277 351 267 291 c 0
EndSplineSet
Validated: 33
AlternateSubs2: "'salt' Access All Alternates in Latin lookup 4-1" g.salt
Substitution2: "'smcp' Lowercase to Small Capitals lookup 16-1" g.smcp
EndChar

StartChar: v
Encoding: 118 118 24
Width: 551
VWidth: 0
Flags: W
HStem: 0 21G<153.911 401.092> 511 20G<75 282.242>
VStem: 416 186<431.926 533>
LayerCount: 2
Fore
SplineSet
75 531 m 29
 281 531 l 21
 301 209 l 5
 379 395 l 6
 392 422 411 467 416 533 c 13
 602 533 l 21
 615 456 580 373 555 325 c 13
 391 0 l 13
 157 0 l 29
 75 531 l 29
EndSplineSet
Validated: 33
Substitution2: "'smcp' Lowercase to Small Capitals lookup 16-1" v.smcp
EndChar

StartChar: w
Encoding: 119 119 25
Width: 853
VWidth: 0
Flags: W
HStem: 0 21G<153.911 399.169 468.761 704.092> 511 20G<75 282.242>
VStem: 416 186<431.796 533> 719 186<431.926 533>
LayerCount: 2
Fore
SplineSet
75 531 m 1
 281 531 l 1
 301 209 l 1
 379 395 l 1
 392 422 411 467 416 533 c 1
 602 533 l 1
 610 483 598 430 582 386 c 1
 576 370 l 1
 604 209 l 1
 682 395 l 1
 695 422 714 467 719 533 c 1
 905 533 l 1
 918 456 883 373 858 325 c 2
 694 0 l 1
 472 0 l 1
 449 142 l 1
 391 0 l 1
 157 0 l 1
 75 531 l 1
EndSplineSet
Validated: 33
Substitution2: "'smcp' Lowercase to Small Capitals lookup 16-1" w.smcp
EndChar

StartChar: y
Encoding: 121 121 26
Width: 575
VWidth: 0
Flags: W
HStem: 511 20G<76 277.476 431.5 626.5>
VStem: 434 186<407.807 532>
DStem2: 322 156 454 0 0.372378 0.928081<-2.29073 338.45>
LayerCount: 2
Fore
SplineSet
76 531 m 1
 277 531 l 1
 285 195 l 2
 286 164 306 157 322 156 c 1
 408 394 l 2
 418 422 429 466 434 532 c 9
 620 532 l 17
 633 455 605 374 584 324 c 9
 454 0 l 2
 329 -292 143 -296 87 -304 c 1
 87 -168 l 1
 183 -124 227 -74 264 0 c 1
 147 0 106 66 100 156 c 2
 76 531 l 1
EndSplineSet
Validated: 33
Substitution2: "'smcp' Lowercase to Small Capitals lookup 16-1" y.smcp
EndChar

StartChar: x
Encoding: 120 120 27
Width: 613
VWidth: 0
Flags: W
HStem: 0 21G<14 259.739 359.696 591> 511 20G<98 336.557 437.721 683>
LayerCount: 2
Fore
SplineSet
14 0 m 1
 232 280 l 1
 98 531 l 1
 330 531 l 1
 370 409 l 1
 451 531 l 1
 683 531 l 1
 462 243 l 5
 591 0 l 1
 367 0 l 1
 325 115 l 1
 246 0 l 1
 14 0 l 1
EndSplineSet
Validated: 1
AlternateSubs2: "'salt' Access All Alternates in Latin lookup 4-1" x.salt
Substitution2: "'smcp' Lowercase to Small Capitals lookup 16-1" x.smcp
EndChar

StartChar: V
Encoding: 86 86 28
Width: 699
VWidth: 0
Flags: W
HStem: 0 21G<218.514 464.153> 712 20G<130 335.579 567.781 790>
LayerCount: 2
Fore
SplineSet
130 732 m 1
 334 732 l 1
 373 238 l 1
 576 732 l 1
 790 732 l 1
 455 0 l 1
 221 0 l 1
 130 732 l 1
EndSplineSet
Validated: 1
Substitution2: "'c2sc' Capitals to Small Capitals in Latin lookup 17 subtable" v.smcp
EndChar

StartChar: W
Encoding: 87 87 29
Width: 1017
VWidth: 0
Flags: W
HStem: 0 21G<218.514 469.635 586.095 823.06> 712 20G<130 335.694 538.934 750 898.727 1110>
LayerCount: 2
Fore
SplineSet
130 732 m 1
 334 732 l 1
 375 248 l 1
 546 732 l 1
 750 732 l 1
 686 570 l 1
 730 248 l 1
 906 732 l 1
 1110 732 l 1
 815 0 l 1
 589 0 l 1
 554 241 l 1
 462 0 l 1
 221 0 l 1
 130 732 l 1
EndSplineSet
Validated: 1
Substitution2: "'c2sc' Capitals to Small Capitals in Latin lookup 17 subtable" w.smcp
EndChar

StartChar: C
Encoding: 67 67 30
Width: 566
VWidth: 0
Flags: W
HStem: -6 174<289.003 520.471> 566 174<343.69 607.297>
LayerCount: 2
Fore
SplineSet
88 399 m 0
 124 632 201 740 400 740 c 0
 544 740 577 732 658 700 c 1
 634 549 l 17
 633 549 536 566 433 566 c 3
 349 566 314 570 282 366 c 0
 256 202 269 168 370 168 c 3
 475 168 575 177 575 177 c 1
 551 26 l 1
 485 0 430 -9 282 -6 c 0
 98 -3 50 153 88 399 c 0
EndSplineSet
Validated: 33
Substitution2: "'c2sc' Capitals to Small Capitals in Latin lookup 17 subtable" c.smcp
EndChar

StartChar: D
Encoding: 68 68 31
Width: 646
VWidth: 0
Flags: W
HStem: 0 164<265 422.91> 568 164<329 477.385>
DStem2: 45 0 265 164 0.156517 0.987675<196.412 605.45>
LayerCount: 2
Fore
SplineSet
45 0 m 1
 161 732 l 2
 477 732 l 4
 676 732 707 557 674 333 c 0
 633 53 545 0 378 0 c 0
 45 0 l 1
265 164 m 1
 369 164 l 2
 433 164 459 223 481 364 c 0
 510 545 481 568 423 568 c 2
 329 568 l 1
 265 164 l 1
EndSplineSet
Validated: 33
Substitution2: "'c2sc' Capitals to Small Capitals in Latin lookup 17 subtable" d.smcp
EndChar

StartChar: O
Encoding: 79 79 32
Width: 666
VWidth: 0
Flags: W
HStem: -4 174<294.126 443.052> 563 174<349.447 498.903>
LayerCount: 2
Fore
SplineSet
94 386 m 0
 148 729 288 737 456 737 c 3
 629 737 754 679 700 336 c 0
 649 13 519 -4 339 -4 c 3
 159 -4 41 53 94 386 c 0
288 361 m 0
 264 208 268 170 366 170 c 3
 452 170 481 206 506 361 c 0
 533 531 520 563 429 563 c 3
 341 563 316 540 288 361 c 0
EndSplineSet
Validated: 33
Substitution2: "'c2sc' Capitals to Small Capitals in Latin lookup 17 subtable" o.smcp
EndChar

StartChar: S
Encoding: 83 83 33
Width: 586
VWidth: 0
Flags: W
HStem: -8 174<101.191 393.223> 564 174<320.897 613.431>
LayerCount: 2
Fore
SplineSet
64 26 m 9
 88 177 l 17
 127 173 242 166 335 166 c 0
 378 166 396 177 401 207 c 2
 403 223 l 2
 408 252 401 267 357 267 c 10
 287 267 l 2
 96 267 103.83 436.885 110 484 c 10
 121 568 l 18
 141 713 240 735 352 738 c 0
 500 742 577 732 647 705 c 9
 623 554 l 17
 560 561 460 564 394 564 c 3
 340 564 320 562 313 520 c 10
 311 509 l 18
 306 478 310 461 364 461 c 2
 438 461 l 18
 590 461 608 329 598 249 c 2
 596 186 l 2
 589 -2 447 -8 348 -8 c 3
 203.3 -8 159 -8 64 26 c 9
EndSplineSet
Substitution2: "'c2sc' Capitals to Small Capitals in Latin lookup 17 subtable" s.smcp
EndChar

StartChar: G
Encoding: 71 71 34
Width: 618
VWidth: 0
Flags: W
HStem: 576 164<355.894 630.76>
LayerCount: 2
Fore
SplineSet
93 410 m 0
 139 643 196 740 395 740 c 0
 554 740 564 738 693 701 c 1
 669 554 l 1
 663 554 556 576 429 576 c 3
 336 576 313 531 287 368 c 0
 261 204 262 173 350 173 c 0
 412 173 429 219 429 219 c 9
 441 294 l 25
 392 294 l 25
 411 414 l 17
 460 438 524 439 590 439 c 0
 611 439 634 438 658 436 c 9
 588 0 l 17
 451 0 l 0
 404 49 l 1
 370 12 352 0 272 -5 c 0
 63 -18 52 202 93 410 c 0
EndSplineSet
Validated: 33
Substitution2: "'c2sc' Capitals to Small Capitals in Latin lookup 17 subtable" g.smcp
EndChar

StartChar: Q
Encoding: 81 81 35
Width: 666
VWidth: 0
Flags: W
HStem: -4 174<294.126 443.052> 563 174<349.447 498.903>
LayerCount: 2
Fore
SplineSet
94 391 m 4
 148 734 288 737 456 737 c 3
 629 737 754 674 700 331 c 1
 649 8 519 -2 339 -4 c 1
 159 -4 41 58 94 391 c 4
288 361 m 0
 264 208 268 170 366 170 c 3
 452 170 481 206 506 361 c 0
 533 531 520 563 429 563 c 3
 341 563 316 540 288 361 c 0
280 -33 m 9
 382 -33 l 17
 378 -94 473 -80 535 -68 c 1
 513 -208 l 1
 386 -226 257 -184 280 -33 c 9
EndSplineSet
Validated: 33
Substitution2: "'c2sc' Capitals to Small Capitals in Latin lookup 17 subtable" q.smcp
EndChar

StartChar: M
Encoding: 77 77 36
Width: 849
VWidth: 0
Flags: W
HStem: 0 21G<31 232.213 331.95 565.316 665 857.011> 712 20G<219.699 495 611.869 893>
VStem: 665 191<0 138.486>
DStem2: 31 0 227 0 0.256183 0.966628<50.2118 462.54>
LayerCount: 2
Fore
SplineSet
31 0 m 1
 225 732 l 1
 495 732 l 1
 492 321 l 1
 618 732 l 1
 893 732 l 1
 856 0 l 1
 665 0 l 1
 685 399 l 1
 559 0 l 1
 332 0 l 1
 331 399 l 1
 227 0 l 1
 31 0 l 1
EndSplineSet
Validated: 1
AlternateSubs2: "'salt' Access All Alternates in Latin lookup 4-1" M.salt
Substitution2: "'c2sc' Capitals to Small Capitals in Latin lookup 17 subtable" m.smcp
EndChar

StartChar: I
Encoding: 73 73 37
Width: 282
VWidth: 0
Flags: W
HStem: 0 21G<45 242.169> 712 20G<157.831 355>
VStem: 45 310
DStem2: 45 0 239 0 0.156517 0.987675<30.3643 741.134>
LayerCount: 2
Fore
SplineSet
45 0 m 1
 161 732 l 1
 355 732 l 1
 239 0 l 1
 45 0 l 1
EndSplineSet
Validated: 1
Substitution2: "'c2sc' Capitals to Small Capitals in Latin lookup 17 subtable" i.smcp
EndChar

StartChar: J
Encoding: 74 74 38
Width: 354
VWidth: 0
Flags: W
HStem: 712 20G<239.842 437>
DStem2: 171 276 347 165 0.156768 0.987636<-86.554 461.649>
LayerCount: 2
Fore
SplineSet
23 25 m 1
 47 179 l 1
 152 179 159 199 171 276 c 1
 243 732 l 1
 437 732 l 1
 347 165 l 2
 340 118 325 50 270 18 c 4
 212 -16 70 -9 23 25 c 1
EndSplineSet
Validated: 33
Substitution2: "'c2sc' Capitals to Small Capitals in Latin lookup 17 subtable" j.smcp
EndChar

StartChar: H
Encoding: 72 72 39
Width: 636
VWidth: 0
Flags: W
HStem: 0 21G<45 242.146 409 606.169> 267 174<309 451> 712 20G<157.831 355 521.839 719>
DStem2: 45 0 239 0 0.156517 0.987675<30.3643 300.647 476.885 741.134> 409 0 603 0 0.156517 0.987675<30.3643 270.283 446.521 741.134>
LayerCount: 2
Fore
SplineSet
45 0 m 1
 161 732 l 1
 355 732 l 1
 309 441 l 1
 479 441 l 1
 525 732 l 1
 719 732 l 1
 603 0 l 1
 409 0 l 1
 451 267 l 1
 281 267 l 1
 239 0 l 1
 45 0 l 1
EndSplineSet
Validated: 1
Substitution2: "'c2sc' Capitals to Small Capitals in Latin lookup 17 subtable" h.smcp
EndChar

StartChar: E
Encoding: 69 69 40
Width: 555
VWidth: 0
Flags: W
HStem: -3 179<268.562 527.968> 14 162<268.779 533> 276 181<305 461.545> 285 161<394.455 525> 553 179<323.194 615.817> 553 163<323.194 618>
LayerCount: 2
Fore
SplineSet
64 173 m 2x80
 127 572 l 2
 150 716 251 732 340 732 c 0x88
 340 732 529 732 644 716 c 1
 618 553 l 1x04
 371 553 l 2
 319 553 315 524 311 497 c 2
 305 457 l 1x28
 551 446 l 1
 525 285 l 1x10
 276 276 l 1
 268 228 l 2
 259 175 293 176 322 176 c 2xa0
 559 176 l 1
 533 14 l 1x40
 427 0 233 -3 233 -3 c 4
 158.667 -5.33333 40 20 64 173 c 2x80
EndSplineSet
Substitution2: "'c2sc' Capitals to Small Capitals in Latin lookup 17 subtable" e.smcp
EndChar

StartChar: L
Encoding: 76 76 41
Width: 525
VWidth: 0
Flags: W
HStem: 0 174<274.984 506> 712 20G<156.84 354>
DStem2: 69 156 274 226 0.156051 0.987749<57.4578 583.144>
LayerCount: 2
Fore
SplineSet
69 156 m 2
 160 732 l 1
 354 732 l 1
 274 226 l 2
 266 173 299 174 328 174 c 2
 534 174 l 1
 506 0 l 1
 210 0 l 6
 119 0 51 43 69 156 c 2
EndSplineSet
Validated: 33
Substitution2: "'c2sc' Capitals to Small Capitals in Latin lookup 17 subtable" l.smcp
EndChar

StartChar: F
Encoding: 70 70 42
Width: 557
VWidth: 0
Flags: W
HStem: 0 21G<40 237.162> 272 181<306 463.182> 281 161<395.818 528> 553 179<325.007 621> 553 163<325.007 621>
DStem2: 40 0 234 0 0.155687 0.987806<30.2033 305.581 488.889 585.064>
LayerCount: 2
Fore
SplineSet
40 0 m 17xc0
 127 552 l 2
 150 696 252 732 342 732 c 0xd0
 342 732 531 732 646 716 c 1x88
 621 553 l 1
 374 553 l 2
 322 553 317 524 313 497 c 2
 306 453 l 1xd0
 553 442 l 1
 528 281 l 1xa0
 277 272 l 1
 234 0 l 9
 40 0 l 17xc0
EndSplineSet
Substitution2: "'c2sc' Capitals to Small Capitals in Latin lookup 17 subtable" f.smcp
EndChar

StartChar: K
Encoding: 75 75 43
Width: 660
VWidth: 0
Flags: W
HStem: 0 21G<45 233.143 415.857 641> 712 20G<157.831 345 510.458 757>
DStem2: 45 0 230 0 0.156517 0.987675<28.9556 312.391 478.283 741.134> 329 444 498 349 0.560178 0.828372<15.9748 347.806>
LayerCount: 2
Fore
SplineSet
45 0 m 1
 161 732 l 1
 345 732 l 1
 299 444 l 1
 329 444 l 1
 524 732 l 1
 757 732 l 1
 498 349 l 5
 641 0 l 1
 423 0 l 1
 323 280 l 1
 274 280 l 9
 230 0 l 17
 45 0 l 1
EndSplineSet
Validated: 1
Substitution2: "'c2sc' Capitals to Small Capitals in Latin lookup 17 subtable" k.smcp
EndChar

StartChar: T
Encoding: 84 84 44
Width: 597
VWidth: 0
Flags: W
HStem: 0 21G<204 401.154> 558 174<136 292 486 676>
DStem2: 204 0 398 0 0.155781 0.987792<30.2215 564.896>
LayerCount: 2
Fore
SplineSet
108 558 m 1
 136 732 l 1
 704 732 l 1
 676 558 l 1
 486 558 l 1
 398 0 l 1
 204 0 l 1
 292 558 l 1
 108 558 l 1
EndSplineSet
Validated: 1
Substitution2: "'c2sc' Capitals to Small Capitals in Latin lookup 17 subtable" t.smcp
EndChar

StartChar: P
Encoding: 80 80 45
Width: 600
VWidth: 0
Flags: W
HStem: 0 21G<44 241.134> 567 165<328 456.757>
DStem2: 44 0 238 0 0.156517 0.987675<30.3643 301.635 447.46 604.463>
LayerCount: 2
Fore
SplineSet
44 0 m 1
 160 732 l 1
 466 732 l 2
 568 732 688 677 654 465 c 4
 617 230 480 241 389 248 c 0
 349 251 285 265 280 268 c 1
 238 0 l 1
 44 0 l 1
303 412 m 2
 395 412 l 2
 433 412 451 441 459 492 c 1
 467 542 455 567 420 567 c 2
 328 567 l 1
 303 412 l 2
EndSplineSet
Validated: 33
Substitution2: "'c2sc' Capitals to Small Capitals in Latin lookup 17 subtable" p.smcp
EndChar

StartChar: R
Encoding: 82 82 46
Width: 599
VWidth: 0
Flags: W
HStem: 0 21G<44 241.15 386.424 613> 567 165<329 457.699>
DStem2: 44 0 238 0 0.156517 0.987675<30.3643 306.73 454.687 604.619>
LayerCount: 2
Fore
SplineSet
44 0 m 1
 160 732 l 1
 467 732 l 2
 597 732 683 654 654 472 c 0
 626 298 552 283 511 277 c 5
 613 0 l 1
 392 0 l 1
 317 269 l 1
 281 273 l 1
 238 0 l 1
 44 0 l 1
305 419 m 1
 392 419 l 2
 443 419 451 445 459 497 c 0
 466 541 460 567 416 567 c 2
 329 567 l 1
 305 419 l 1
EndSplineSet
Validated: 33
Substitution2: "'c2sc' Capitals to Small Capitals in Latin lookup 17 subtable" r.smcp
EndChar

StartChar: U
Encoding: 85 85 47
Width: 652
VWidth: 0
Flags: W
HStem: -5 174<293.11 428.581> 712 20G<154.754 352 536.845 735>
DStem2: 96 350 287 320 0.155839 0.987782<-122.25 386.995> 475 320 675 290 0.134513 0.990912<-122.05 416.999>
LayerCount: 2
Fore
SplineSet
96 350 m 2
 158 732 l 1
 352 732 l 1
 287 320 l 2
 272 226 265 169 360 169 c 3
 449 169 461 230 475 320 c 2
 540 732 l 1
 735 732 l 1
 675 290 l 6
 624 -33 453 -5 332 -5 c 3
 196 -5 43 17 96 350 c 2
EndSplineSet
Validated: 33
Substitution2: "'c2sc' Capitals to Small Capitals in Latin lookup 17 subtable" u.smcp
EndChar

StartChar: B
Encoding: 66 66 48
Width: 601
VWidth: 0
Flags: W
HStem: 0 164<265 412.623> 306 154<312 431.355> 568 164<329 462.39>
LayerCount: 2
Fore
SplineSet
45 0 m 1
 161 732 l 1
 469 732 l 2
 625 732 677 636 657 512 c 0
 647 450 599 386 526 380 c 1
 599 368 639 291 626 196 c 4
 599 6 512 0 358 0 c 2
 45 0 l 1
265 164 m 1
 374 164 l 2
 412 164 427 190 434 234 c 0
 440 271 435 306 396 306 c 9
 287 306 l 1
 265 164 l 1
312 460 m 1
 411 460 l 2
 441 460 460 483 464 511 c 0
 471 555 450 568 428 568 c 2
 329 568 l 1
 312 460 l 1
EndSplineSet
Validated: 33
Substitution2: "'c2sc' Capitals to Small Capitals in Latin lookup 17 subtable" b.smcp
EndChar

StartChar: N
Encoding: 78 78 49
Width: 677
VWidth: 0
Flags: W
HStem: 0 21G<45 243.144 441.762 647.169> 712 20G<157.831 364.916 562.887 760>
DStem2: 45 0 240 0 0.156517 0.987675<30.5208 404.051> 507 353 644 0 0.156517 0.987675<0 383.563>
LayerCount: 2
Fore
SplineSet
45 0 m 1
 161 732 l 1
 357 732 l 1
 507 353 l 1
 566 732 l 1
 760 732 l 1
 644 0 l 0
 450 0 l 1
 298 369 l 5
 240 0 l 1
 45 0 l 1
EndSplineSet
Validated: 1
AlternateSubs2: "'salt' Access All Alternates in Latin lookup 4-1" N.salt
Substitution2: "'c2sc' Capitals to Small Capitals in Latin lookup 17 subtable" n.smcp
EndChar

StartChar: X
Encoding: 88 88 50
Width: 679
VWidth: 0
Flags: W
HStem: 0 21G<28 256.469 437.857 660> 712 20G<141 363.192 552.502 781>
DStem2: 28 0 243 0 0.570436 0.821342<122.644 358.924> 429 529 509 343 0.573038 0.819529<0 244.871>
LayerCount: 2
Fore
SplineSet
28 0 m 1
 294 383 l 1
 141 732 l 1
 356 732 l 1
 429 529 l 1
 566 732 l 1
 781 732 l 1
 509 343 l 5
 660 0 l 1
 445 0 l 1
 375 196 l 1
 243 0 l 1
 28 0 l 1
EndSplineSet
Validated: 1
AlternateSubs2: "'salt' Access All Alternates in Latin lookup 4-1" X.salt
Substitution2: "'c2sc' Capitals to Small Capitals in Latin lookup 17 subtable" x.smcp
EndChar

StartChar: Z
Encoding: 90 90 51
Width: 552
VWidth: 0
Flags: W
HStem: 0 174<299 533> 558 174<136 389>
LayerCount: 2
Fore
SplineSet
20 0 m 1
 48 174 l 1
 389 558 l 1
 108 558 l 1
 136 732 l 1
 649 732 l 1
 621 558 l 1
 299 174 l 5
 561 174 l 1
 533 0 l 1
 20 0 l 1
EndSplineSet
Validated: 1
Substitution2: "'c2sc' Capitals to Small Capitals in Latin lookup 17 subtable" z.smcp
EndChar

StartChar: Y
Encoding: 89 89 52
Width: 679
VWidth: 0
Flags: W
HStem: 0 21G<229 426.2> 712 20G<130 343.963 541 770>
LayerCount: 2
Fore
SplineSet
130 732 m 5
 341 732 l 5
 389 408 l 5
 551 732 l 5
 770 732 l 5
 455 200 l 5
 423 0 l 5
 229 0 l 5
 261 200 l 5
 130 732 l 5
EndSplineSet
Validated: 1
Substitution2: "'c2sc' Capitals to Small Capitals in Latin lookup 17 subtable" y.smcp
EndChar

StartChar: AE
Encoding: 198 198 59
Width: 1094
VWidth: 0
Flags: W
HStem: -3 179<693.984 953.016> 14 162<697.238 958> 272 181<729 886.182> 281 161<818.818 951> 553 179<752.043 1044> 553 163<752.043 1044>
DStem2: 17 0 232 0 0.544133 0.838999<116.989 316.956 511.142 684.935>
LayerCount: 2
Fore
SplineSet
17 0 m 1x80
 375 552 l 2
 482 717 627 739 765 732 c 2x88
 765 732 955 732 1069 716 c 1x04
 1044 553 l 1
 797 553 l 2
 745 553 740 524 736 497 c 2
 729 453 l 1x28
 976 442 l 1
 951 281 l 1x10
 700 272 l 1
 693 228 l 2
 685 175 718 176 747 176 c 2xa0
 984 176 l 1
 958 14 l 1x40
 853 0 662 -3 662 -3 c 2
 591 -7 464 11 482 124 c 2
 489 167 l 1
 342 167 l 1
 232 0 l 1
 17 0 l 1x80
446 331 m 1
 515 331 l 1
 539 482 l 1
 446 331 l 1
EndSplineSet
Validated: 33
EndChar

StartChar: Ccedilla
Encoding: 199 199 60
Width: 566
VWidth: 0
Flags: W
HStem: -6 174<289.003 520.471> 566 174<343.69 607.297>
LayerCount: 2
Fore
SplineSet
88 399 m 0
 124 632 201 740 400 740 c 0
 544 740 577 732 658 700 c 1
 634 549 l 17
 633 549 536 566 433 566 c 3
 349 566 314 570 282 366 c 0
 256 202 269 168 370 168 c 3
 475 168 575 177 575 177 c 1
 551 26 l 1
 485 0 430 -9 282 -6 c 0
 98 -3 50 153 88 399 c 0
165 -182 m 9
 178 -103 l 25
 217 -88 l 17
 247 -76 248 -74 254 -36 c 1
 371 -36 l 17
 355 -138 318 -182 226 -182 c 2
 165 -182 l 9
EndSplineSet
Validated: 33
Substitution2: "'c2sc' Capitals to Small Capitals in Latin lookup 17 subtable" ccedilla.smcp
EndChar

StartChar: Eth
Encoding: 208 208 61
Width: 640
VWidth: 0
Flags: W
HStem: 0 164<265 418.282> 336 74<45 98 304 381> 568 164<329 481.882>
DStem2: 98 336 265 164 0.156517 0.987675<-143.742 0 105.33 265.296>
LayerCount: 2
Fore
SplineSet
33 336 m 1
 45 410 l 1
 110 410 l 1
 161 732 l 1
 484 732 l 2
 683 732 707 540 674 333 c 0
 633 77 555 0 388 0 c 2
 45 0 l 1
 98 336 l 1
 33 336 l 1
265 164 m 1
 374 164 l 2
 431 164 458 223 480 364 c 0
 509 545 485 568 438 568 c 2
 329 568 l 1
 304 410 l 1
 393 410 l 1
 381 336 l 1
 292 336 l 1
 265 164 l 1
EndSplineSet
Validated: 33
Substitution2: "'c2sc' Capitals to Small Capitals in Latin lookup 17 subtable" eth.smcp
EndChar

StartChar: Oslash
Encoding: 216 216 76
Width: 666
VWidth: 0
Flags: W
HStem: -4 174<292.19 442.382> 563 174<348.886 496.182>
DStem2: 21 0 107 0 0.658796 0.752322<56.6564 111.743 389.082 679.602 927.862 972.988>
LayerCount: 2
Fore
SplineSet
21 0 m 1
 103 93 l 1
 79 147 72 261 93 391 c 0
 147 734 288 737 456 737 c 0
 527 737 590 731 635 701 c 1
 662 732 l 1
 748 732 l 1
 680 654 l 1
 712 599 722 479 699 331 c 0
 648 8 518 -4 338 -4 c 0
 257 -4 188 2 142 40 c 1
 107 0 l 1
 21 0 l 1
287 361 m 0
 283 335 279 313 277 293 c 1
 498 545 l 1
 484 559 461 563 428 563 c 0
 340 563 315 540 287 361 c 0
284 202 m 1
 296 178 321 170 366 170 c 0
 452 170 480 206 505 361 c 0
 512 406 517 441 517 469 c 1
 284 202 l 1
EndSplineSet
Validated: 33
Substitution2: "'c2sc' Capitals to Small Capitals in Latin lookup 17 subtable" oslash.smcp
EndChar

StartChar: ae
Encoding: 230 230 88
Width: 817
VWidth: 0
Flags: HW
HStem: -7 155<139 309.529> 22 136<693.005 775> 397 144<567.118 644.277>
LayerCount: 2
Fore
SplineSet
68 318 m 0xa0
 115 540 230 541 334 541 c 0
 383 541 448 536 492 522 c 1
 528 534 560 540 619 541 c 0
 724 542 858 515 855 388 c 0
 850 127 582 177 545 192 c 1
 538 146 558 139 629 139 c 0
 675 139 760 148 809 158 c 1
 785 22 l 1x60
 708 -3 630 -19 496 -7 c 0
 443 -2 404 22 379 62 c 1
 333 -2 243 -7 197 -7 c 0
 101 -7 25 117 68 318 c 0xa0
259 286 m 0
 249 216 239 148 289 148 c 0xa0
 319 148 339 158 348 176 c 1
 346 217 349 265 359 318 c 0
 364 346 371 372 378 394 c 1
 366 400 346 400 328 396 c 0
 299 389 271 373 259 286 c 0
559 316 m 1
 559 316 644 289 656 353 c 0
 662 385 647 398 618 397 c 0
 576 395 566 361 559 316 c 1
EndSplineSet
Substitution2: "'smcp' Lowercase to Small Capitals lookup 16-1" ae.smcp
EndChar

StartChar: ccedilla
Encoding: 231 231 89
Width: 489
VWidth: 0
Flags: W
HStem: -5 144<152.5 441.023> 392 144<236 499.812>
LayerCount: 2
Fore
SplineSet
70 296 m 0
 103 504 185 536 287 536 c 3
 339 536 444 541 540 500 c 1
 522 386 l 1
 522 386 463 392 374 392 c 3
 306 392 284 394 263 264 c 0
 244 142 261 139 333 139 c 3
 425 139 491 147 491 147 c 1
 473 33 l 17
 390 -20 285 -4 202 -5 c 0
 103 -5 37 88 70 296 c 0
114 -184 m 9
 126 -105 l 25
 166 -90 l 17
 196 -78 196 -76 202 -38 c 1
 319 -38 l 17
 303 -140 267 -184 175 -184 c 2
 114 -184 l 9
EndSplineSet
Validated: 33
Substitution2: "'smcp' Lowercase to Small Capitals lookup 16-1" ccedilla.smcp
EndChar

StartChar: eth
Encoding: 240 240 98
Width: 542
VWidth: 0
Flags: W
HStem: 0 176<250.417 349.869> 357 174<280.416 373.996> 628 155<195 287.484>
DStem2: 246 600 269 544 0.887496 0.460815<0 50.9969 286.678 346.158>
LayerCount: 2
Fore
SplineSet
63 287 m 0
 90 457 164 531 299 531 c 2
 319 531 l 2
 325 531 379 531 398 526 c 1
 394 557 382 578 365 594 c 1
 269 544 l 1
 246 600 l 1
 291 624 l 1
 259 629 218 629 170 628 c 1
 195 783 l 1
 329 783 419 762 480 722 c 1
 557 762 l 1
 581 706 l 1
 528 679 l 1
 597 594 591 425 561 234 c 0
 529 35 432 0 325 0 c 2
 215 0 l 2
 78 0 35 108 63 287 c 0
257 264 m 0
 246 192 243 176 285 176 c 2
 312 176 l 2
 352 176 354 184 367 264 c 0
 381 352 381 357 341 357 c 2
 314 357 l 2
 280 357 269 342 257 264 c 0
EndSplineSet
Validated: 33
Substitution2: "'smcp' Lowercase to Small Capitals lookup 16-1" eth.smcp
EndChar

StartChar: oslash
Encoding: 248 248 105
Width: 553
VWidth: 0
Flags: W
HStem: -5 144<256.131 350.379> 392 144<289.049 381.857>
DStem2: 80 72 94 0 0.709096 0.705112<-40.8407 3.89662 255.976 357.97 607.926 651.249>
LayerCount: 2
Fore
SplineSet
8 0 m 1
 80 72 l 1
 58 114 56 198 69 281 c 0
 103 498 178 536 362 536 c 0
 431 536 481 527 516 505 c 1
 542 531 l 1
 628 531 l 1
 557 460 l 1
 580 416 582 327 567 234 c 0
 536 37 467 -5 276 -5 c 0
 207 -5 156 5 121 27 c 1
 94 0 l 1
 8 0 l 1
262 252 m 1
 383 372 l 1
 379 388 365 392 339 392 c 0
 280 392 281 372 263 258 c 0
 263 256 262 254 262 252 c 1
255 160 m 1
 259 142 273 139 299 139 c 0
 354 139 354 147 373 258 c 0
 374 267 376 275 377 281 c 1
 255 160 l 1
EndSplineSet
Validated: 33
Substitution2: "'smcp' Lowercase to Small Capitals lookup 16-1" oslash.smcp
EndChar

StartChar: thorn
Encoding: 254 254 106
Width: 559
VWidth: 0
Flags: W
HStem: -15 139<257.598 434> 373 157<342.5 508.5> 762 20G<160.825 358>
DStem2: -3 -270 191 -270 0.156782 0.987633<30.4157 323.054 437.22 679.109 784.703 1065.17>
LayerCount: 2
Fore
SplineSet
-3 -270 m 1
 164 782 l 1
 358 782 l 1
 309 475 l 17
 353 508 390 530 449 530 c 3
 568 530 608 426 578 236 c 0
 551 68 506 -15 362 -15 c 3
 317 -15 268 -4 237 19 c 1
 191 -270 l 1
 -3 -270 l 1
256 139 m 1
 264 128 293 124 318 124 c 1
 346 124 365 138 383 251 c 0
 400 360 387 373 358 373 c 3
 327 373 302 368 289 351 c 1
 256 139 l 1
EndSplineSet
Validated: 33
Substitution2: "'smcp' Lowercase to Small Capitals lookup 16-1" thorn.smcp
EndChar

StartChar: Thorn
Encoding: 222 222 113
Width: 538
VWidth: 0
Flags: W
HStem: 0 21G<34 231.214> 149 164<278.615 362.491>
DStem2: 34 0 228 0 0.155823 0.987785<30.2297 200.385 347.198 459.491 625.539 738.015>
LayerCount: 2
Fore
SplineSet
34 0 m 1
 72 243 111 486 149 729 c 1
 343 729 l 1
 321 588 l 1
 428 588 l 2
 507 588 598 541 570 362 c 4
 538 158 433 152 359 149 c 0
 313 147 295 147 255 168 c 1
 228 0 l 1
 34 0 l 1
278 313 m 2
 305 313 l 2
 357 313 366 317 375 372 c 1
 383 423 362 424 322 424 c 1
 295 424 l 1
 278 313 l 2
EndSplineSet
Validated: 33
Substitution2: "'c2sc' Capitals to Small Capitals in Latin lookup 17 subtable" thorn.smcp
EndChar

StartChar: uni00B5
Encoding: 181 181 114
Width: 583
VWidth: 0
Flags: W
HStem: 0 21G<373.769 548.164> 511 20G<131.824 329 431.825 629>
DStem2: 8 -270 202 -270 0.156596 0.987663<30.3796 307.211 445.023 811.006> 378 172 545 0 0.156249 0.987718<-29.3159 363.497>
LayerCount: 2
Fore
SplineSet
8 -270 m 1
 81 191 l 1
 135 531 l 1
 329 531 l 1
 274 187 l 2
 267 145 277 135 299 135 c 0
 336 135 362 145 378 172 c 1
 435 531 l 1
 629 531 l 1
 545 0 l 1
 383 0 l 1
 359 52 l 1
 330 35 309 18 282 6 c 0
 271 1 259 -3 244 -6 c 1
 202 -270 l 1
 8 -270 l 1
EndSplineSet
Validated: 33
EndChar

StartChar: germandbls
Encoding: 223 223 115
Width: 574
VWidth: 0
Flags: W
HStem: -8 144<278.789 389.382> 0 21G<34 231.151> 613 171<337.851 438.992>
DStem2: 34 0 228 0 0.157038 0.987593<30.4653 638.199>
LayerCount: 2
Fore
SplineSet
34 0 m 1x60
 124 566 l 2
 142 682 223 784 411 784 c 3
 692 784 688 563 569 422 c 0
 537 384 505 380 500 348 c 0
 493 305 608 279 591 169 c 2
 588 152 l 2
 567 22 480 -8 385 -8 c 3
 317 -8 292 0 260 11 c 9
 280 142 l 17
 311 138 329 136 342 136 c 3xa0
 365 136 393 144 399 184 c 2
 400 190 l 1
 409 249 302 253 317 351 c 0
 327 415 359 442 399 476 c 0
 432 504 440 525 443 546 c 0
 452 602 432 613 394 613 c 3
 332 613 319 577 303 476 c 2
 228 0 l 1
 34 0 l 1x60
EndSplineSet
Validated: 33
Substitution2: "'smcp' Lowercase to Small Capitals lookup 16-1" germandbls.smcp
EndChar

StartChar: asciitilde
Encoding: 126 126 116
Width: 403
VWidth: 0
Flags: W
HStem: 531 106<301.926 413.981> 566 106<183.775 298.74>
LayerCount: 2
Fore
SplineSet
122 598 m 17x80
 153 634 201 672 257 672 c 27x40
 301 672 317 637 357 637 c 1
 397 635 431 654 457 677 c 9
 471 603 l 17
 444 570 398 531 347 531 c 3x80
 304 531 276 566 237 566 c 3x40
 198 566 173 555 138 531 c 9
 122 598 l 17x80
EndSplineSet
Validated: 33
EndChar

StartChar: asciicircum
Encoding: 94 94 117
Width: 378
VWidth: 0
Flags: W
HStem: 531 140<234 244 323 365>
VStem: 112 322
LayerCount: 2
Fore
SplineSet
112 531 m 1
 234 671 l 1
 365 671 l 1
 434 531 l 1
 323 531 l 1
 292 582 l 1
 244 531 l 5
 112 531 l 1
234 671 m 1
365 671 m 1
EndSplineSet
Validated: 1
EndChar

StartChar: grave
Encoding: 96 96 118
Width: 243
VWidth: 0
Flags: W
HStem: 531 143<207 262>
VStem: 117 199
LayerCount: 2
Fore
SplineSet
117 674 m 29
 262 674 l 29
 316 531 l 29
 207 531 l 29
 117 674 l 29
EndSplineSet
Validated: 1
Substitution2: "'smcp' Lowercase to Small Capitals lookup 16-1" grave.smcp
EndChar

StartChar: dieresis
Encoding: 168 168 119
Width: 441
VWidth: 0
Flags: W
HStem: 516 131<144.217 225.917 399.217 480.917>
VStem: 120 131<540.205 623.388> 375 131<540.205 623.388>
LayerCount: 2
Fore
SplineSet
120 582 m 4
 126 618 160 647 196 647 c 4
 232 647 257 618 251 582 c 4
 245 546 211 516 175 516 c 4
 139 516 114 546 120 582 c 4
375 582 m 4
 381 618 415 647 451 647 c 4
 487 647 512 618 506 582 c 4
 500 546 466 516 430 516 c 4
 394 516 369 546 375 582 c 4
EndSplineSet
Validated: 33
Substitution2: "'smcp' Lowercase to Small Capitals lookup 16-1" dieresis.smcp
EndChar

StartChar: acute
Encoding: 180 180 120
Width: 244
VWidth: 0
Flags: W
HStem: 531 143<195 204>
VStem: 95 245
LayerCount: 2
Fore
SplineSet
95 531 m 29
 195 674 l 29
 340 674 l 29
 204 531 l 29
 95 531 l 29
EndSplineSet
Validated: 1
Substitution2: "'smcp' Lowercase to Small Capitals lookup 16-1" acute.smcp
EndChar

StartChar: cedilla
Encoding: 184 184 121
Width: 238
VWidth: 0
Flags: W
HStem: -183 146<84.3065 113.713>
VStem: 0 205
LayerCount: 2
Fore
SplineSet
0 -183 m 9
 13 -104 l 25
 52 -89 l 17
 82 -77 82 -75 88 -37 c 1
 205 -37 l 17
 189 -139 153 -183 61 -183 c 2
 0 -183 l 9
EndSplineSet
Validated: 1
EndChar

StartChar: exclam
Encoding: 33 33 122
Width: 277
VWidth: 0
Flags: W
HStem: 0 165<76.7023 218.789> 711 20G<158.495 345>
VStem: 57 288
DStem2: 76 140 238 140 0.175213 0.984531<-117.649 29.0438 83.8687 244.885>
LayerCount: 2
Fore
SplineSet
57 23 m 2
 76 140 l 2
 78 155 88 165 104 165 c 2
 219 165 l 2
 234 165 240 154 238 140 c 2
 219 23 l 2
 217 8 207 0 193 0 c 2
 78 0 l 2
 64 0 55 9 57 23 c 2
94 196 m 1
 161 731 l 1
 345 731 l 1
 240 196 l 1
 94 196 l 1
EndSplineSet
Validated: 33
Substitution2: "'smcp' Lowercase to Small Capitals lookup 16-1" exclam.smcp
EndChar

StartChar: degree
Encoding: 176 176 123
Width: 256
VWidth: 0
Flags: W
HStem: 535 62<194.038 258.511> 668 63<197.268 261.456>
VStem: 126 203
LayerCount: 2
Fore
SplineSet
126 632 m 0
 131 689 180 731 236 731 c 0
 292 731 334 689 329 632 c 0
 324 575 276 535 220 535 c 4
 164 535 121 575 126 632 c 0
192 632 m 24
 190 612 205 597 225 597 c 27
 245 597 261 612 263 632 c 24
 265 652 252 668 232 668 c 27
 212 668 194 652 192 632 c 24
EndSplineSet
Validated: 33
Substitution2: "'smcp' Lowercase to Small Capitals lookup 16-1" degree.smcp
EndChar

StartChar: period
Encoding: 46 46 124
Width: 256
VWidth: 0
Flags: W
HStem: 0 165<70.7023 212.652>
VStem: 51 181
LayerCount: 2
Fore
SplineSet
51 23 m 6
 70 140 l 6
 72 155 82 165 98 165 c 6
 211 165 l 6
 229 165 235 156 232 140 c 6
 213 23 l 6
 210 5 199 0 185 0 c 6
 72 0 l 6
 58 0 49 9 51 23 c 6
EndSplineSet
Validated: 33
EndChar

StartChar: periodcentered
Encoding: 183 183 125
Width: 256
VWidth: 0
Flags: W
HStem: 305 165<118.702 260.652>
VStem: 99 181
LayerCount: 2
Fore
SplineSet
99 328 m 2
 118 445 l 2
 120 460 130 470 146 470 c 2
 259 470 l 2
 277 470 283 461 280 445 c 2
 261 328 l 2
 258 310 247 305 233 305 c 2
 120 305 l 2
 106 305 97 314 99 328 c 2
EndSplineSet
Validated: 33
Substitution2: "'smcp' Lowercase to Small Capitals lookup 16-1" periodcentered.smcp
EndChar

StartChar: comma
Encoding: 44 44 126
Width: 254
VWidth: 0
Flags: W
HStem: -88 62<49 79.9808>
VStem: 39 191
LayerCount: 2
Fore
SplineSet
39 -88 m 1
 49 -26 l 0
 79 -27 81 -15 83 -5 c 2
 84 0 l 1
 73 0 l 2
 59 0 49 8 52 25 c 2
 70 139 l 2
 73 157 83 166 99 166 c 2
 210 166 l 2
 228 166 232 154 230 139 c 2
 206 -11 l 2
 186 -135 39 -88 39 -88 c 1
EndSplineSet
Validated: 33
EndChar

StartChar: bullet
Encoding: 256 8226 127
Width: 306
VWidth: 0
Flags: W
HStem: 274 217<122.883 304.291>
VStem: 96 235
LayerCount: 2
Fore
SplineSet
96 306 m 6
 119 456 l 6
 122 477 136 491 158 491 c 6
 302 491 l 6
 327 491 334 478 331 456 c 6
 308 306 l 6
 304 282 287 274 267 274 c 6
 123 274 l 6
 103 274 93 286 96 306 c 6
EndSplineSet
Validated: 33
Substitution2: "'smcp' Lowercase to Small Capitals lookup 16-1" bullet.smcp
EndChar

StartChar: quoteleft
Encoding: 257 8216 128
Width: 249
VWidth: 0
Flags: W
HStem: 668 72<271.832 305>
VStem: 121 196
LayerCount: 2
Fore
SplineSet
121 483 m 2
 146 643 l 2
 167 775 317 740 317 740 c 1
 305 668 l 0
 275 668 271 647 269 637 c 2
 267 622 l 1
 278 622 l 2
 292 622 302 614 299 597 c 2
 281 483 l 2
 278 465 267 456 251 456 c 2
 140 456 l 2
 122 456 119 468 121 483 c 2
EndSplineSet
Validated: 33
Substitution2: "'smcp' Lowercase to Small Capitals lookup 16-1" quoteleft.smcp
EndChar

StartChar: quoteright
Encoding: 258 8217 129
Width: 249
VWidth: 0
Flags: W
HStem: 460 72<133 163.568>
VStem: 122 196
LayerCount: 2
Fore
SplineSet
122 460 m 1
 133 532 l 0
 163 532 167 553 169 563 c 2
 172 578 l 1
 161 578 l 2
 147 578 137 586 140 603 c 2
 158 717 l 2
 161 735 171 744 187 744 c 2
 298 744 l 2
 316 744 320 732 318 717 c 2
 292 557 l 2
 271 425 122 460 122 460 c 1
EndSplineSet
Validated: 33
Substitution2: "'smcp' Lowercase to Small Capitals lookup 16-1" quoteright.smcp
EndChar

StartChar: quotesinglbase
Encoding: 259 8218 130
Width: 249
VWidth: 0
Flags: W
HStem: -118 72<42 72.5679>
VStem: 31 196
LayerCount: 2
Fore
SplineSet
31 -118 m 5
 42 -46 l 4
 72 -46 76 -25 78 -15 c 6
 81 0 l 5
 70 0 l 6
 56 0 46 8 49 25 c 6
 67 139 l 6
 70 157 80 166 96 166 c 6
 207 166 l 6
 225 166 229 154 227 139 c 6
 201 -21 l 6
 180 -153 31 -118 31 -118 c 5
EndSplineSet
Validated: 33
Substitution2: "'smcp' Lowercase to Small Capitals lookup 16-1" quotesinglbase.smcp
EndChar

StartChar: quotedblleft
Encoding: 260 8220 131
Width: 432
VWidth: 0
Flags: W
HStem: 666 72<270.432 301 461.432 492>
LayerCount: 2
Fore
SplineSet
117 481 m 2
 142 641 l 2
 163 773 312 738 312 738 c 1
 301 666 l 0
 271 666 267 645 265 635 c 2
 263 620 l 1
 274 620 l 2
 288 620 298 612 295 595 c 2
 277 481 l 2
 274 463 263 454 247 454 c 2
 136 454 l 2
 118 454 115 466 117 481 c 2
308 481 m 2
 333 641 l 2
 354 773 503 738 503 738 c 1
 492 666 l 0
 462 666 458 645 456 635 c 2
 454 620 l 1
 465 620 l 2
 479 620 489 612 486 595 c 2
 468 481 l 2
 465 463 454 454 438 454 c 2
 327 454 l 2
 309 454 306 466 308 481 c 2
EndSplineSet
Validated: 33
Substitution2: "'smcp' Lowercase to Small Capitals lookup 16-1" quotedblleft.smcp
EndChar

StartChar: quotedblright
Encoding: 261 8221 132
Width: 432
VWidth: 0
Flags: W
HStem: 458 72<129 159.568 320 350.568>
LayerCount: 2
Fore
SplineSet
118 458 m 5
 129 530 l 4
 159 530 163 551 165 561 c 6
 168 576 l 5
 157 576 l 6
 143 576 133 584 136 601 c 6
 154 715 l 6
 157 733 167 742 183 742 c 6
 294 742 l 6
 312 742 316 730 314 715 c 6
 288 555 l 6
 267 423 118 458 118 458 c 5
309 458 m 5
 320 530 l 4
 350 530 354 551 356 561 c 6
 359 576 l 5
 348 576 l 6
 334 576 324 584 327 601 c 6
 345 715 l 6
 348 733 358 742 374 742 c 6
 485 742 l 6
 503 742 507 730 505 715 c 6
 479 555 l 6
 458 423 309 458 309 458 c 5
EndSplineSet
Validated: 33
Substitution2: "'smcp' Lowercase to Small Capitals lookup 16-1" quotedblright.smcp
EndChar

StartChar: quotedblbase
Encoding: 262 8222 133
Width: 431
VWidth: 0
Flags: W
HStem: -118 72<38 68.5679 229 259.568>
LayerCount: 2
Fore
SplineSet
27 -118 m 5
 38 -46 l 4
 68 -46 72 -25 74 -15 c 6
 77 0 l 5
 66 0 l 6
 52 0 42 8 45 25 c 6
 63 139 l 6
 66 157 76 166 92 166 c 6
 203 166 l 6
 221 166 225 154 223 139 c 6
 197 -21 l 6
 176 -153 27 -118 27 -118 c 5
218 -118 m 5
 229 -46 l 4
 259 -46 263 -25 265 -15 c 6
 268 0 l 5
 257 0 l 6
 243 0 233 8 236 25 c 6
 254 139 l 6
 257 157 267 166 283 166 c 6
 394 166 l 6
 412 166 416 154 414 139 c 6
 388 -21 l 6
 367 -153 218 -118 218 -118 c 5
EndSplineSet
Validated: 33
Substitution2: "'smcp' Lowercase to Small Capitals lookup 16-1" quotedblbase.smcp
EndChar

StartChar: colon
Encoding: 58 58 134
Width: 257
VWidth: 0
Flags: W
HStem: 0 165<70.7023 212.652> 366 165<128.702 270.65>
VStem: 51 238
DStem2: 70 140 232 140 0.157432 0.98753<-119.19 28.457 251.377 398.868>
LayerCount: 2
Fore
SplineSet
51 23 m 2
 70 140 l 2
 72 155 82 165 98 165 c 2
 211 165 l 2
 229 165 235 156 232 140 c 2
 213 23 l 2
 210 5 199 0 185 0 c 2
 72 0 l 2
 58 0 49 9 51 23 c 2
109 389 m 6
 128 506 l 6
 130 521 140 531 156 531 c 6
 269 531 l 6
 287 531 292 522 289 506 c 6
 271 389 l 6
 268 371 257 366 243 366 c 6
 130 366 l 6
 116 366 107 375 109 389 c 6
EndSplineSet
Validated: 33
EndChar

StartChar: semicolon
Encoding: 59 59 135
Width: 257
VWidth: 0
Flags: W
HStem: -88 62<49 79.9808> 366 165<128.705 271.452>
VStem: 39 251
DStem2: 70 139 230 139 0.148178 0.988961<-135.183 30.4607 250.129 399.115>
LayerCount: 2
Fore
SplineSet
39 -88 m 1
 49 -26 l 0
 79 -27 81 -15 83 -5 c 2
 84 0 l 1
 73 0 l 2
 59 0 49 8 52 25 c 2
 70 139 l 2
 73 157 83 166 99 166 c 2
 210 166 l 2
 228 166 232 154 230 139 c 2
 206 -11 l 2
 186 -135 39 -88 39 -88 c 1
110 389 m 2
 128 506 l 2
 130 521 140 531 156 531 c 2
 269 531 l 2
 287 531 293 522 290 506 c 2
 272 389 l 2
 269 371 257 366 243 366 c 2
 130 366 l 2
 116 366 108 375 110 389 c 2
EndSplineSet
Validated: 33
EndChar

StartChar: quotedbl
Encoding: 34 34 136
Width: 497
VWidth: 0
Flags: W
HStem: 531 201<164 306 382 524>
LayerCount: 2
Fore
SplineSet
144 531 m 5
 153 665 l 5
 164 732 l 5
 348 732 l 5
 337 665 l 5
 306 531 l 5
 144 531 l 5
360 531 m 5
 371 665 l 5
 382 732 l 5
 566 732 l 5
 555 665 l 5
 524 531 l 5
 360 531 l 5
EndSplineSet
Validated: 1
Substitution2: "'smcp' Lowercase to Small Capitals lookup 16-1" quotedbl.smcp
EndChar

StartChar: exclamdown
Encoding: 161 161 137
Width: 281
VWidth: 0
Flags: W
HStem: 296 165<128.217 270.561>
VStem: 4 286
LayerCount: 2
Fore
SplineSet
4 -270 m 1
 109 265 l 1
 256 265 l 1
 190 -270 l 1
 4 -270 l 1
110 323 m 2
 128 438 l 2
 130 452 142 460 156 461 c 1
 270 461 l 1
 282 460 292 449 290 435 c 2
 272 323 l 1
 270 310 263 296 246 296 c 1
 130 296 l 1
 117 296 107 304 110 323 c 2
EndSplineSet
Validated: 33
Substitution2: "'case' Case-Sensitive Forms lookup 1-1" exclamdown.alt
Substitution2: "'smcp' Lowercase to Small Capitals lookup 16-1" exclamdown.smcp
EndChar

StartChar: zero
Encoding: 48 48 138
Width: 619
VWidth: 0
Flags: W
HStem: 0 174<270.915 411.387> 558 174<323.325 464.733>
DStem2: 68 192 269 233 0.157763 0.987477<23.1537 394.781> 423 232 611 192 0.156108 0.98774<-53.4552 320.957>
LayerCount: 2
Fore
SplineSet
68 192 m 14
 122 530 l 6
 143 660 203 732 328 732 c 6
 492 732 l 6
 637 732 682 640 666 540 c 22
 611 192 l 22
 592 73 535 0 415 0 c 6
 251 0 l 6
 121 0 49 72 68 192 c 14
269 233 m 6
 260 177 294 174 316 174 c 14
 358 174 l 22
 391 174 414 178 423 232 c 6
 466 500 l 6
 473 546 454 558 427 558 c 6
 370 558 l 6
 318 558 313 513 311 500 c 6
 269 233 l 6
EndSplineSet
Validated: 33
Substitution2: "'dnom' Denominators lookup 0 subtable" zero.denominator
Substitution2: "'sups' Superscript lookup 2 subtable" zerosuperior
Substitution2: "'onum' Oldstyle Figures in Latin lookup 5-1" zero.oldstyle
Substitution2: "'tnum' Tabular Numbers in Latin lookup 7-1" zero.tnum
Substitution2: "'numr' Numerators lookup 9 subtable" zero.numerator
Substitution2: "'zero' Slashed Zero lookup 20-1" uni0338
Substitution2: "'sinf' Scientific Inferiors lookup 3-1" zeroinferior
Substitution2: "'frac' Diagonal Fractions lookup 13-1" zero.numerator
Substitution2: "'smcp' Lowercase to Small Capitals lookup 16-1" zero.smcp
EndChar

StartChar: one
Encoding: 49 49 139
Width: 379
VWidth: 0
Flags: W
HStem: 0 21G<139 336.169> 712 20G<233 449>
DStem2: 139 0 333 0 0.156517 0.987675<30.3643 554.863>
LayerCount: 2
Fore
SplineSet
105 528 m 5
 124 651 l 5
 124 651 209 677 257 732 c 13
 449 732 l 5
 333 0 l 5
 139 0 l 5
 226 548 l 5
 183 519 105 528 105 528 c 5
EndSplineSet
Validated: 33
Substitution2: "'dnom' Denominators lookup 0 subtable" one.denominator
Substitution2: "'sups' Superscript lookup 2 subtable" onesuperior
Substitution2: "'onum' Oldstyle Figures in Latin lookup 5-1" one.oldstyle
Substitution2: "'tnum' Tabular Numbers in Latin lookup 7-1" one.tnum
Substitution2: "'numr' Numerators lookup 9 subtable" one.numerator
Substitution2: "'sinf' Scientific Inferiors lookup 3-1" oneinferior
Substitution2: "'frac' Diagonal Fractions lookup 13-1" one.numerator
Substitution2: "'smcp' Lowercase to Small Capitals lookup 16-1" one.smcp
EndChar

StartChar: two
Encoding: 50 50 140
Width: 580
VWidth: 0
Flags: W
HStem: 0 174<373 555> 567 175<178.951 433.889> 567 145<136 263.375>
LayerCount: 2
Fore
SplineSet
30 0 m 25xc0
 57 168 l 17
 146 222 428 424 440 499 c 1
 450 560 417 567 336 567 c 2xc0
 113 567 l 2
 136 712 l 1xa0
 221 730 291 742 435 742 c 3
 591 742 655 619 633 479 c 0
 611 341 444 230 373 174 c 9
 583 174 l 25
 555 0 l 25
 30 0 l 25xc0
EndSplineSet
Validated: 33
Substitution2: "'dnom' Denominators lookup 0 subtable" two.denominator
Substitution2: "'sups' Superscript lookup 2 subtable" twosuperior
Substitution2: "'onum' Oldstyle Figures in Latin lookup 5-1" two.oldstyle
Substitution2: "'tnum' Tabular Numbers in Latin lookup 7-1" two.tnum
Substitution2: "'numr' Numerators lookup 9 subtable" two.numerator
Substitution2: "'sinf' Scientific Inferiors lookup 3-1" twoinferior
Substitution2: "'frac' Diagonal Fractions lookup 13-1" two.numerator
Substitution2: "'smcp' Lowercase to Small Capitals lookup 16-1" two.smcp
EndChar

StartChar: three
Encoding: 51 51 141
Width: 574
VWidth: 0
Flags: W
HStem: -7 175<50.1356 364.885> 21 147<50 126.057> 286 158<155 255> 560 174<150.329 419.672>
LayerCount: 2
Fore
SplineSet
26 21 m 5x70
 50 168 l 5x70
 268 168 l 6
 346 168 367 169 374 216 c 6
 375 226 l 6
 382 272 354 273 291 277 c 6
 129 286 l 6
 155 444 l 5
 319 452 l 6
 388 455 414 455 421 501 c 6
 422 509 l 6
 431 560 388 560 336 560 c 6
 105 560 l 5
 128 706 l 5
 221 737 344 736 461 734 c 4
 571 732 640 648 621 529 c 6
 614 490 l 6
 602 417 567 373 507 364 c 5
 571 347 579 266 567 190 c 6
 562 161 l 6
 543 40 459 -7 337 -7 c 4xb0
 223 -7 109 -10 26 21 c 5x70
EndSplineSet
Validated: 33
Substitution2: "'dnom' Denominators lookup 0 subtable" three.denominator
Substitution2: "'sups' Superscript lookup 2 subtable" threesuperior
Substitution2: "'onum' Oldstyle Figures in Latin lookup 5-1" three.oldstyle
Substitution2: "'tnum' Tabular Numbers in Latin lookup 7-1" three.tnum
Substitution2: "'numr' Numerators lookup 9 subtable" three.numerator
Substitution2: "'sinf' Scientific Inferiors lookup 3-1" threeinferior
Substitution2: "'frac' Diagonal Fractions lookup 13-1" three.numerator
Substitution2: "'smcp' Lowercase to Small Capitals lookup 16-1" three.smcp
EndChar

StartChar: four
Encoding: 52 52 142
Width: 635
VWidth: 0
Flags: W
HStem: 2 21G<370 567.111> 712 20G<325.543 545>
LayerCount: 2
Fore
SplineSet
46 224 m 5
 337 732 l 5
 545 732 l 5
 322 315 l 5
 419 315 l 5
 441 449 l 5
 480 527 l 5
 647 527 l 5
 613 315 l 5
 673 315 l 5
 650 166 l 5
 585 137 l 5
 564 2 l 5
 370 2 l 5
 391 137 l 5
 66 137 l 5
 46 224 l 5
EndSplineSet
Validated: 1
Substitution2: "'dnom' Denominators lookup 0 subtable" four.denominator
Substitution2: "'sups' Superscript lookup 2 subtable" foursuperior
Substitution2: "'onum' Oldstyle Figures in Latin lookup 5-1" four.oldstyle
Substitution2: "'tnum' Tabular Numbers in Latin lookup 7-1" four.tnum
Substitution2: "'numr' Numerators lookup 9 subtable" four.numerator
Substitution2: "'sinf' Scientific Inferiors lookup 3-1" fourinferior
Substitution2: "'frac' Diagonal Fractions lookup 13-1" four.numerator
Substitution2: "'smcp' Lowercase to Small Capitals lookup 16-1" four.smcp
EndChar

StartChar: five
Encoding: 53 53 143
Width: 592
VWidth: 0
Flags: W
HStem: -4 179<71 388.556> 20 155<71 224.708> 312 164<324.358 406.561> 558 174<343 617>
LayerCount: 2
Fore
SplineSet
46 20 m 5x70
 71 175 l 5
 335 175 l 6
 397 175 399 208 402 228 c 6
 407 259 l 6
 412 292 405 312 367 312 c 6
 323 312 l 6
 291 312 277 298 272 267 c 5
 86 267 l 5
 182 732 l 21
 645 732 l 5
 617 558 l 5
 343 558 l 29
 323 456 l 5
 352 472 379 475 392 476 c 4
 418 478 454 477 467 476 c 4
 582 466 618 376 604 270 c 6
 589 156 l 6
 567 19 454 -4 356 -4 c 7xb0
 232 -4 176 -3 46 20 c 5x70
EndSplineSet
Validated: 33
Substitution2: "'dnom' Denominators lookup 0 subtable" five.denominator
Substitution2: "'sups' Superscript lookup 2 subtable" fivesuperior
Substitution2: "'onum' Oldstyle Figures in Latin lookup 5-1" five.oldstyle
Substitution2: "'tnum' Tabular Numbers in Latin lookup 7-1" five.tnum
Substitution2: "'numr' Numerators lookup 9 subtable" five.numerator
Substitution2: "'sinf' Scientific Inferiors lookup 3-1" fiveinferior
Substitution2: "'frac' Diagonal Fractions lookup 13-1" five.numerator
Substitution2: "'smcp' Lowercase to Small Capitals lookup 16-1" five.smcp
EndChar

StartChar: six
Encoding: 54 54 144
Width: 599
VWidth: 0
Flags: W
HStem: -1 174<278.75 402.535> 294 164<303.869 419.519> 564 148<522.848 632>
LayerCount: 2
Fore
SplineSet
98 404 m 4
 140 669 236 719 327 733 c 4
 430 749 565 732 655 712 c 5
 632 564 l 5
 413 564 l 6
 322 564 314 510 302 437 c 5
 342 456 374 458 458 458 c 5
 604 458 626 358 609 249 c 6
 594 148 l 6
 573 18 492 -1 376 -1 c 6
 238 -1 l 6
 116 -1 48 89 98 404 c 4
279 294 m 5
 262 188 275 173 340 173 c 6
 362 173 l 6
 395 173 406 182 412 219 c 6
 416 239 l 6
 423 282 423 294 386 294 c 6
 279 294 l 5
EndSplineSet
Validated: 33
Substitution2: "'dnom' Denominators lookup 0 subtable" six.denominator
Substitution2: "'sups' Superscript lookup 2 subtable" sixsuperior
Substitution2: "'onum' Oldstyle Figures in Latin lookup 5-1" six.oldstyle
Substitution2: "'tnum' Tabular Numbers in Latin lookup 7-1" six.tnum
Substitution2: "'numr' Numerators lookup 9 subtable" six.numerator
Substitution2: "'sinf' Scientific Inferiors lookup 3-1" sixinferior
Substitution2: "'frac' Diagonal Fractions lookup 13-1" six.numerator
Substitution2: "'smcp' Lowercase to Small Capitals lookup 16-1" six.smcp
EndChar

StartChar: seven
Encoding: 55 55 145
Width: 561
VWidth: 0
Flags: W
HStem: 0 21G<110 326.153> 558 174<133 396>
DStem2: 110 0 316 0 0.452659 0.891684<93.2478 627.02>
LayerCount: 2
Fore
SplineSet
105 558 m 5
 133 732 l 5
 614 732 l 5
 648 654 l 5
 316 0 l 5
 110 0 l 5
 396 558 l 5
 105 558 l 5
EndSplineSet
Validated: 1
Substitution2: "'dnom' Denominators lookup 0 subtable" seven.denominator
Substitution2: "'sups' Superscript lookup 2 subtable" sevensuperior
Substitution2: "'onum' Oldstyle Figures in Latin lookup 5-1" seven.oldstyle
Substitution2: "'tnum' Tabular Numbers in Latin lookup 7-1" seven.tnum
Substitution2: "'numr' Numerators lookup 9 subtable" seven.numerator
Substitution2: "'sinf' Scientific Inferiors lookup 3-1" seveninferior
Substitution2: "'frac' Diagonal Fractions lookup 13-1" seven.numerator
Substitution2: "'smcp' Lowercase to Small Capitals lookup 16-1" seven.smcp
EndChar

StartChar: percent
Encoding: 37 37 146
Width: 967
VWidth: 0
Flags: W
HStem: 3 125<718.118 837.262> 261 125<734.838 855.005> 349 125<228.906 348.196> 607 125<246.804 366.005>
DStem2: 191 0 322 0 0.614388 0.789004<80.4849 927.752>
LayerCount: 2
Fore
SplineSet
100 499 m 2xb0
 118 612 l 2
 131 697 177 732 278 732 c 2
 379 732 l 2
 477 732 508 670 495 585 c 2
 477 472 l 18
 464 387 418 349 317 349 c 2
 216 349 l 6
 118 349 87 414 100 499 c 2xb0
230 514 m 2
 227 492 227 474 260 474 c 2
 311 474 l 2
 345 474 354 492 357 514 c 10
 365 567 l 2
 370 600 359 607 334 607 c 2
 283 607 l 2
 261 607 243 601 238 567 c 2
 230 514 l 2
191 0 m 1
 761 732 l 1
 885 732 l 1
 322 0 l 1
 191 0 l 1
590 148 m 2
 607 261 l 2
 620 346 665 386 766 386 c 2
 868 386 l 2xd0
 966 386 996 321 984 236 c 2
 968 123 l 18
 955 38 907 3 806 3 c 2
 704 3 l 2
 606 3 577 63 590 148 c 2
719 168 m 2
 716 146 717 128 750 128 c 2
 800 128 l 2
 834 128 843 146 846 168 c 10
 854 221 l 2
 859 254 848 261 823 261 c 2
 773 261 l 2
 751 261 732 255 727 221 c 2
 719 168 l 2
EndSplineSet
Validated: 33
Substitution2: "'smcp' Lowercase to Small Capitals lookup 16-1" percent.smcp
EndChar

StartChar: nine
Encoding: 57 57 147
Width: 598
VWidth: 0
Flags: W
HStem: 20 148<84 193.536> 274 164<297.208 413.13> 559 174<311.483 436.75>
LayerCount: 2
Fore
SplineSet
61 20 m 5
 84 168 l 5
 303 168 l 6
 394 168 403 222 415 295 c 5
 375 276 342 274 258 274 c 5
 112 274 92 384 109 493 c 6
 122 574 l 6
 142 704 222 733 338 733 c 6
 476 733 l 6
 604 733 667 623 617 308 c 4
 575 43 481 13 390 -1 c 4
 287 -17 151 0 61 20 c 5
301 493 m 6
 294 450 293 438 330 438 c 6
 437 438 l 5
 454 544 440 559 375 559 c 6
 354 559 l 6
 321 559 310 550 304 513 c 6
 301 493 l 6
EndSplineSet
Validated: 33
Substitution2: "'dnom' Denominators lookup 0 subtable" nine.denominator
Substitution2: "'sups' Superscript lookup 2 subtable" ninesuperior
Substitution2: "'onum' Oldstyle Figures in Latin lookup 5-1" nine.oldstyle
Substitution2: "'tnum' Tabular Numbers in Latin lookup 7-1" nine.tnum
Substitution2: "'numr' Numerators lookup 9 subtable" nine.numerator
Substitution2: "'sinf' Scientific Inferiors lookup 3-1" nineinferior
Substitution2: "'frac' Diagonal Fractions lookup 13-1" nine.numerator
Substitution2: "'smcp' Lowercase to Small Capitals lookup 16-1" nine.smcp
EndChar

StartChar: eight
Encoding: 56 56 148
Width: 616
VWidth: 0
Flags: W
HStem: 0 164<267.935 405.589> 297 153<314.161 420.748> 573 164<329.985 464.656>
LayerCount: 2
Fore
SplineSet
70 199 m 2
 78 252 l 2
 86 302 114 340 171 349 c 1
 103 386 111 458 121 519 c 2
 131 584 l 2
 153 724 251 737 354 737 c 2
 510 737 l 2
 628 737 685 671 665 543 c 2
 658 499 l 2
 654 472 630 412 564 403 c 1
 631 390 624 284 617 241 c 2
 605 165 l 2
 579 2 489 0 392 0 c 2
 237 0 l 2
 47 0 60 135 70 199 c 2
269 210 m 2
 263 175 273 164 308 164 c 2
 360 164 l 2
 404 164 411 182 415 210 c 2
 421 250 l 2
 425 276 423 297 384 297 c 2
 330 297 l 2
 288 297 279 277 275 250 c 2
 269 210 l 2
314 494 m 2
 308 455 320 450 354 450 c 2
 406 450 l 2
 450 450 455 464 460 494 c 2
 464 524 l 2
 472 572 449 573 425 573 c 2
 373 573 l 2
 343 573 325 570 318 524 c 2
 314 494 l 2
EndSplineSet
Validated: 33
Substitution2: "'dnom' Denominators lookup 0 subtable" eight.denominator
Substitution2: "'sups' Superscript lookup 2 subtable" eightsuperior
Substitution2: "'onum' Oldstyle Figures in Latin lookup 5-1" eight.oldstyle
Substitution2: "'tnum' Tabular Numbers in Latin lookup 7-1" eight.tnum
Substitution2: "'numr' Numerators lookup 9 subtable" eight.numerator
Substitution2: "'sinf' Scientific Inferiors lookup 3-1" eightinferior
Substitution2: "'frac' Diagonal Fractions lookup 13-1" eight.numerator
Substitution2: "'smcp' Lowercase to Small Capitals lookup 16-1" eight.smcp
EndChar

StartChar: quotesingle
Encoding: 39 39 149
Width: 256
VWidth: 0
Flags: W
HStem: 531 201<147 300>
VStem: 126 216
LayerCount: 2
Fore
SplineSet
126 531 m 5
 136 665 l 5
 147 732 l 5
 342 732 l 5
 331 665 l 5
 300 531 l 5
 126 531 l 5
EndSplineSet
Validated: 1
Substitution2: "'smcp' Lowercase to Small Capitals lookup 16-1" quotesingle.smcp
EndChar

StartChar: onesuperior
Encoding: 185 185 150
Width: 282
VWidth: 556
Flags: W
VStem: 105 258
DStem2: 140 355 286 355 0.156171 0.98773<22.8009 349.512>
LayerCount: 2
Fore
SplineSet
105 687 m 5
 120 787 l 5
 120 787 187 805 219 842 c 9
 363 842 l 1
 286 355 l 1
 140 355 l 1
 196 700 l 1
 168 678 105 687 105 687 c 5
EndSplineSet
Validated: 33
EndChar

StartChar: twosuperior
Encoding: 178 178 151
Width: 409
VWidth: 556
Flags: W
HStem: 355 131<332 428> 718 131<134.759 333.05> 718 109<132 330.773>
LayerCount: 2
Fore
SplineSet
61 355 m 25xc0
 81 481 l 17
 140 513 326 634 333 678 c 1
 339 714 316 718 262 718 c 2xc0
 114 718 l 2
 132 827 l 1xa0
 191 840 240 849 340 849 c 3
 449 849 495 770 481 681 c 0
 467 593 384 522 332 486 c 13
 449 486 l 25
 428 355 l 25
 61 355 l 25xc0
EndSplineSet
Validated: 33
EndChar

StartChar: threesuperior
Encoding: 179 179 152
Width: 410
VWidth: 556
Flags: W
HStem: 350 131<81 295.617> 371 110<81 276.25> 539 119<149 296.444> 713 131<133.062 326.373>
LayerCount: 2
Fore
SplineSet
63 371 m 1x70
 81 481 l 1
 227 481 l 2
 279 481 293 482 296 505 c 2
 297 510 l 6
 300 532 282 533 239 535 c 6
 131 539 l 6
 149 658 l 5
 260 662 l 6
 306 664 323 663 326 685 c 6
 326 689 l 2
 331 713 303 713 268 713 c 2
 113 713 l 1
 130 822 l 1
 195 845 281 846 363 844 c 0
 440 843 488 787 475 708 c 2
 471 682 l 2
 463 633 438 604 393 598 c 1
 441 586 448 533 440 482 c 2
 436 462 l 2
 423 381 365 350 280 350 c 0xb0
 200 350 120 348 63 371 c 1x70
EndSplineSet
Validated: 33
EndChar

StartChar: ordmasculine
Encoding: 186 186 153
Width: 384
VWidth: 0
Flags: W
HStem: 258 78<84 407> 373 108<242.164 310.197> 625 108<255.252 325.161>
LayerCount: 2
Fore
SplineSet
72 258 m 1
 84 336 l 1
 419 336 l 1
 407 258 l 1
 72 258 l 1
111 565 m 0
 134 709 193 733 312 733 c 3
 436 733 476 671 454 531 c 0
 433 400 382 373 255 373 c 3
 130 373 91 439 111 565 c 0
246 549 m 0
 236 489 238 481 272 481 c 3
 313 481 309 486 319 549 c 0
 329 614 337 625 295 625 c 3
 251 625 256 614 246 549 c 0
EndSplineSet
Validated: 33
Ligature2: "'ordn' Ordinals lookup 21-1" o
Substitution2: "'smcp' Lowercase to Small Capitals lookup 16-1" ordmasculine.smcp
EndChar

StartChar: ordfeminine
Encoding: 170 170 154
Width: 360
VWidth: 0
Flags: W
HStem: 258 78<69 392> 370 111<157.619 259.806>
LayerCount: 2
Fore
SplineSet
57 258 m 1
 69 336 l 1
 404 336 l 1
 392 258 l 1
 57 258 l 1
86 583 m 0
 118 732 202 734 272 734 c 0
 327 734 410 726 444 693 c 9
 397 370 l 17
 295 370 l 1
 275 412 l 17
 259 376 207 365 172 365 c 3
 108 365 54 448 86 583 c 0
213 567 m 0
 206 523 196 481 233 481 c 3
 261 481 285 492 287 512 c 1
 305 632 l 1
 297 638 272 638 259 635 c 0
 240 631 221 621 213 567 c 0
EndSplineSet
Validated: 33
Ligature2: "'ordn' Ordinals lookup 21-1" a
Substitution2: "'smcp' Lowercase to Small Capitals lookup 16-1" ordfeminine.smcp
EndChar

StartChar: slash
Encoding: 47 47 155
Width: 503
VWidth: 0
Flags: W
DStem2: 0 -72 199 -72 0.441235 0.897391<87.8058 938.275>
LayerCount: 2
Fore
SplineSet
0 -72 m 1
 414 770 l 1
 613 770 l 5
 199 -72 l 5
 0 -72 l 1
EndSplineSet
Validated: 1
Substitution2: "'numr' Numerators lookup 9 subtable" fraction
Substitution2: "'frac' Diagonal Fractions lookup 12-1" fraction
EndChar

StartChar: backslash
Encoding: 92 92 156
Width: 497
VWidth: 0
Flags: W
DStem2: 328 770 132 770 0.173118 -0.984901<0 820.977>
LayerCount: 2
Fore
SplineSet
132 770 m 1
 328 770 l 5
 476 -72 l 5
 280 -72 l 1
 132 770 l 1
EndSplineSet
Validated: 1
EndChar

StartChar: bar
Encoding: 124 124 157
Width: 250
VWidth: 0
Flags: W
VStem: 36 287
DStem2: 36 -72 190 -72 0.156023 0.987753<24.0275 852.439>
LayerCount: 2
Fore
SplineSet
36 -72 m 1
 169 770 l 1
 323 770 l 5
 190 -72 l 5
 36 -72 l 1
EndSplineSet
Validated: 1
EndChar

StartChar: underscore
Encoding: 95 95 158
Width: 673
VWidth: 0
Flags: W
HStem: -1 154<53 663>
LayerCount: 2
Fore
SplineSet
29 -1 m 5
 53 153 l 5
 687 153 l 5
 663 -1 l 5
 29 -1 l 5
EndSplineSet
Validated: 1
EndChar

StartChar: hyphen
Encoding: 45 45 159
Width: 353
VWidth: 0
Flags: W
HStem: 213 154<85 375>
LayerCount: 2
Fore
SplineSet
61 213 m 1
 85 367 l 1
 399 367 l 1
 375 213 l 1
 61 213 l 1
EndSplineSet
Validated: 1
Substitution2: "'case' Case-Sensitive Forms lookup 1-1" hyphen.alt
Substitution2: "'c2sc' Capitals to Small Capitals in Latin lookup 17 subtable" hyphen.smcp
Substitution2: "'smcp' Lowercase to Small Capitals lookup 16-1" hyphen.smcp
EndChar

StartChar: numbersign
Encoding: 35 35 160
Width: 749
VWidth: 0
Flags: W
HStem: 0 21G<116 254.979 337 476.016> 191 132<82 183 361 404 587 716> 409 132<151 258 437 484 657 784> 712 20G<365.88 505 584.984 724>
DStem2: 116 0 248 0 0.331269 0.943536<43.7275 203.354 386.867 432.947 616.791 775.805> 337 0 469 0 0.328971 0.94434<43.4242 202.41 387.265 434.594 616.159 775.144>
LayerCount: 2
Fore
SplineSet
41 192 m 1
 82 324 l 1
 229 324 l 1
 258 409 l 1
 109 409 l 1
 151 541 l 1
 305 541 l 1
 373 732 l 1
 505 732 l 5
 437 541 l 1
 525 541 l 1
 592 732 l 1
 724 732 l 1
 657 541 l 1
 824 541 l 1
 784 409 l 1
 616 409 l 1
 587 323 l 1
 755 323 l 1
 716 191 l 1
 536 191 l 1
 469 0 l 1
 337 0 l 1
 404 191 l 1
 315 192 l 1
 248 0 l 1
 116 0 l 1
 183 192 l 1
 41 192 l 1
361 324 m 1
 455 323 l 1
 484 409 l 1
 390 409 l 1
 361 324 l 1
EndSplineSet
Validated: 1
Substitution2: "'smcp' Lowercase to Small Capitals lookup 16-1" numbersign.smcp
EndChar

StartChar: dollar
Encoding: 36 36 161
Width: 566
VWidth: 0
Flags: W
HStem: -8 174<93.9956 232 340 367.398> 564 174<313.735 350 458 588.032>
LayerCount: 2
Fore
SplineSet
58 26 m 1
 82 177 l 1
 121 173 216 166 309 166 c 0
 352 166 370 177 375 207 c 2
 377 223 l 2
 382 252 375 267 331 267 c 2
 271 267 l 2
 80 267 101 458 108 505 c 2
 116 566 l 2
 137 710 238 734 350 738 c 1
 363 824 l 1
 471 824 l 1
 458 738 l 1
 531 735 571 724 621 705 c 1
 597 554 l 1
 534 561 454 564 388 564 c 0
 334 564 314 562 307 520 c 2
 305 509 l 2
 300 478 304 461 358 461 c 2
 422 461 l 2
 574 461 588 304 575 224 c 2
 570 191 l 2
 541 10 437 -6 340 -8 c 1
 327 -90 l 1
 219 -90 l 1
 232 -8 l 1
 144 -7 132 0 58 26 c 1
EndSplineSet
Validated: 33
Substitution2: "'smcp' Lowercase to Small Capitals lookup 16-1" dollar.smcp
EndChar

StartChar: zerosuperior
Encoding: 263 8304 162
Width: 429
VWidth: 556
Flags: W
HStem: 355 131<201.504 301.87> 711 131<234.785 335.97>
DStem2: 51 483 202 521 0.153707 0.988116<30.229 251.333> 305 520 445 483 0.153985 0.988073<-36.7895 189.752>
LayerCount: 2
Fore
SplineSet
51 483 m 10
 86 708 l 2
 100 794 143 842 234 842 c 2
 353 842 l 2
 458 842 492 781 481 714 c 18
 445 483 l 18
 432 404 392 355 305 355 c 2
 186 355 l 2
 92 355 38 403 51 483 c 10
202 521 m 2
 197 488 219 486 234 486 c 10
 262 486 l 18
 284 486 300 488 305 520 c 2
 335 677 l 2
 340 704 326 711 308 711 c 2
 270 711 l 2
 239 711 236 698 232 677 c 2
 202 521 l 2
EndSplineSet
Validated: 33
EndChar

StartChar: foursuperior
Encoding: 264 8308 163
Width: 471
VWidth: 556
Flags: W
DStem2: 92 500 291 569 0.495318 0.868712<158.509 393.686>
LayerCount: 2
Fore
SplineSet
92 500 m 1
 287 842 l 1
 440 842 l 1
 291 569 l 1
 358 569 l 5
 372 656 l 5
 401 707 l 5
 520 707 l 1
 498 569 l 1
 538 569 l 1
 520 457 l 1
 474 436 l 1
 464 357 l 1
 324 357 l 5
 337 435 l 5
 115 435 l 1
 92 500 l 1
EndSplineSet
Validated: 1
EndChar

StartChar: fivesuperior
Encoding: 265 8309 164
Width: 418
VWidth: 556
Flags: W
HStem: 352 134<90 308.446> 370 116<90 284.957> 532 21G<99 224.5> 711 131<277 464>
LayerCount: 2
Fore
SplineSet
72 370 m 1x70
 90 486 l 1
 266 486 l 2
 303 486 309 490 311 513 c 2
 312 528 l 2
 314 545 310 555 284 555 c 2
 255 555 l 2
 234 555 226 548 223 532 c 1
 99 532 l 1
 163 842 l 17
 485 842 l 1
 464 711 l 1
 277 711 l 25
 267 663 l 1
 298 681 324 681 358 678 c 4
 458 670 464 588 458 538 c 2
 448 461 l 2
 440 367 357 352 289 352 c 3xb0
 202 352 163 353 72 370 c 1x70
EndSplineSet
Validated: 33
EndChar

StartChar: sixsuperior
Encoding: 266 8310 165
Width: 410
VWidth: 556
Flags: W
HStem: 355 131<217.446 306.238> 555 113<236.261 312.747> 719 111<248.431 465>
LayerCount: 2
Fore
SplineSet
81 625 m 0
 109 802 168 835 234 844 c 0
 309 856 417 843 483 830 c 1
 465 719 l 1
 309 719 l 2
 244 719 241 690 235 652 c 1
 262 666 283 668 340 668 c 1
 449 668 468 599 456 525 c 2
 445 457 l 2
 431 368 371 355 287 355 c 2
 207 355 l 2
 118 355 48 415 81 625 c 0
218 555 m 1
 210 503 218 486 261 486 c 2
 276 486 l 2
 298 486 307 490 309 508 c 2
 312 528 l 6
 315 549 315 555 290 555 c 6
 218 555 l 1
EndSplineSet
Validated: 33
EndChar

StartChar: sevensuperior
Encoding: 267 8311 166
Width: 451
VWidth: 556
Flags: W
HStem: 711 131<121 324>
DStem2: 115 355 274 355 0.505875 0.862607<80.4341 412.816>
LayerCount: 2
Fore
SplineSet
100 711 m 1
 121 842 l 1
 498 842 l 5
 525 783 l 5
 274 355 l 5
 115 355 l 5
 324 711 l 5
 100 711 l 1
EndSplineSet
Validated: 1
EndChar

StartChar: eightsuperior
Encoding: 268 8312 167
Width: 440
VWidth: 556
Flags: W
HStem: 355 123<256.645 352.947> 547 115<285.999 357.615> 723 123<291.52 386.317>
LayerCount: 2
Fore
SplineSet
107 487 m 6
 112 522 l 6
 117 555 138 580 181 586 c 1
 129 611 135 659 141 700 c 2
 148 744 l 2
 163 838 234 846 309 846 c 2
 422 846 l 2
 508 846 550 803 537 719 c 2
 532 690 l 2
 529 672 513 633 463 627 c 1
 514 618 510 546 505 517 c 2
 497 466 l 2
 480 356 414 355 343 355 c 2
 231 355 l 2
 93 355 100 445 107 487 c 6
257 502 m 2
 254 484 261 478 284 478 c 2
 320 478 l 2
 349 478 352 487 354 502 c 2
 358 523 l 2
 360 536 357 547 331 547 c 2
 295 547 l 2
 267 547 263 537 261 523 c 2
 257 502 l 2
286 684 m 2
 283 665 291 662 314 662 c 2
 349 662 l 2
 378 662 381 669 383 684 c 2
 386 699 l 2
 390 723 374 723 358 723 c 2
 323 723 l 2
 303 723 293 722 289 699 c 2
 286 684 l 2
EndSplineSet
Validated: 33
EndChar

StartChar: ninesuperior
Encoding: 269 8313 168
Width: 439
VWidth: 556
Flags: W
HStem: 361 112<111 327.569> 530 124<266.554 341.739> 719 131<272.548 361.977>
LayerCount: 2
Fore
SplineSet
93 361 m 1
 111 473 l 1
 267 473 l 2
 332 473 336 504 343 546 c 1
 316 532 295 530 238 530 c 1
 128 530 112 607 124 683 c 2
 132 739 l 2
 145 830 204 852 288 850 c 2
 377 848 l 6
 470 848 529 775 495 559 c 0
 466 377 409 357 342 347 c 0
 267 335 159 348 93 361 c 1
268 684 m 2
 264 661 263 654 288 654 c 2
 360 654 l 1
 369 711 359 719 316 719 c 2
 302 719 l 2
 280 719 273 714 270 694 c 2
 268 684 l 2
EndSplineSet
Validated: 33
EndChar

StartChar: zeroinferior
Encoding: 270 8320 169
Width: 458
VWidth: 0
Flags: W
HStem: -201 131<236.504 336.87> 155 131<269.785 370.97>
DStem2: 86 -73 237 -35 0.153707 0.988116<30.229 251.333> 340 -36 480 -73 0.153985 0.988073<-36.7895 189.752>
LayerCount: 2
Fore
SplineSet
86 -73 m 10
 121 152 l 2
 135 238 178 286 269 286 c 2
 388 286 l 2
 493 286 527 225 516 158 c 18
 480 -73 l 18
 467 -152 427 -201 340 -201 c 2
 221 -201 l 2
 127 -201 73 -153 86 -73 c 10
237 -35 m 2
 232 -68 254 -70 269 -70 c 10
 297 -70 l 18
 319 -70 335 -68 340 -36 c 2
 370 121 l 2
 375 148 361 155 343 155 c 2
 305 155 l 2
 274 155 271 142 267 121 c 2
 237 -35 l 2
EndSplineSet
Validated: 33
EndChar

StartChar: oneinferior
Encoding: 271 8321 170
Width: 283
VWidth: 0
Flags: W
VStem: 20 258
DStem2: 55 -201 201 -201 0.156171 0.98773<22.8009 349.512>
LayerCount: 2
Fore
SplineSet
20 131 m 5
 35 231 l 5
 35 231 102 249 134 286 c 9
 278 286 l 1
 201 -201 l 1
 55 -201 l 1
 111 144 l 1
 83 122 20 131 20 131 c 5
EndSplineSet
Validated: 33
EndChar

StartChar: twoinferior
Encoding: 272 8322 171
Width: 446
VWidth: 0
Flags: W
HStem: -201 131<304 400> 162 131<106.759 305.05> 162 109<104 302.773>
LayerCount: 2
Fore
SplineSet
33 -201 m 25xc0
 53 -75 l 17
 112 -43 298 78 305 122 c 1
 311 158 288 162 234 162 c 2xc0
 86 162 l 2
 104 271 l 1xa0
 163 284 212 293 312 293 c 3
 421 293 467 214 453 125 c 0
 439 37 356 -34 304 -70 c 13
 421 -70 l 25
 400 -201 l 25
 33 -201 l 25xc0
EndSplineSet
Validated: 33
EndChar

StartChar: threeinferior
Encoding: 273 8323 172
Width: 402
VWidth: 0
Flags: W
HStem: -206 131<8 222.617> -185 110<8 203.25> -17 119<76 223.444> 157 131<60.0622 253.373>
LayerCount: 2
Fore
SplineSet
-10 -185 m 1x70
 8 -75 l 1
 154 -75 l 2
 206 -75 220 -74 223 -51 c 2
 224 -46 l 6
 227 -24 209 -23 166 -21 c 6
 58 -17 l 6
 76 102 l 5
 187 106 l 6
 233 108 250 107 253 129 c 6
 253 133 l 2
 258 157 230 157 195 157 c 2
 40 157 l 1
 57 266 l 1
 122 289 208 290 290 288 c 0
 367 287 415 231 402 152 c 2
 398 126 l 2
 390 77 365 48 320 42 c 1
 368 30 375 -23 367 -74 c 2
 363 -94 l 2
 350 -175 292 -206 207 -206 c 0xb0
 127 -206 47 -208 -10 -185 c 1x70
EndSplineSet
Validated: 33
EndChar

StartChar: fourinferior
Encoding: 274 8324 173
Width: 441
VWidth: 0
Flags: W
DStem2: -8 -56 191 13 0.495318 0.868712<158.509 393.686>
LayerCount: 2
Fore
SplineSet
-8 -56 m 1
 187 286 l 1
 340 286 l 1
 191 13 l 1
 258 13 l 5
 272 100 l 5
 301 151 l 5
 420 151 l 1
 398 13 l 1
 438 13 l 1
 420 -99 l 1
 374 -120 l 1
 364 -199 l 1
 224 -199 l 5
 237 -121 l 5
 15 -121 l 1
 -8 -56 l 1
EndSplineSet
Validated: 1
EndChar

StartChar: fiveinferior
Encoding: 275 8325 174
Width: 417
VWidth: 0
Flags: W
HStem: -204 134<18 236.446> -186 116<18 212.957> 155 131<205 392>
LayerCount: 2
Fore
SplineSet
0 -186 m 1x60
 18 -70 l 1
 194 -70 l 2
 231 -70 237 -66 239 -43 c 2
 240 -28 l 2
 242 -11 238 -1 212 -1 c 2
 183 -1 l 2
 162 -1 154 -8 151 -24 c 1
 27 -24 l 1
 91 286 l 17
 413 286 l 1
 392 155 l 1
 205 155 l 25
 195 107 l 1
 226 125 252 125 286 122 c 4
 386 114 392 32 386 -18 c 2
 376 -95 l 2
 368 -189 285 -204 217 -204 c 3xa0
 130 -204 91 -203 0 -186 c 1x60
EndSplineSet
Validated: 33
EndChar

StartChar: sixinferior
Encoding: 276 8326 175
Width: 410
VWidth: 0
Flags: W
HStem: -201 131<145.446 234.238> -1 113<164.261 240.747> 163 111<176.431 393>
LayerCount: 2
Fore
SplineSet
9 69 m 0
 37 246 96 279 162 288 c 0
 237 300 345 287 411 274 c 1
 393 163 l 1
 237 163 l 2
 172 163 169 134 163 96 c 1
 190 110 211 112 268 112 c 1
 377 112 396 43 384 -31 c 2
 373 -99 l 2
 359 -188 299 -201 215 -201 c 2
 135 -201 l 2
 46 -201 -24 -141 9 69 c 0
146 -1 m 1
 138 -53 146 -70 189 -70 c 2
 204 -70 l 2
 226 -70 235 -66 237 -48 c 2
 240 -28 l 6
 243 -7 243 -1 218 -1 c 6
 146 -1 l 1
EndSplineSet
Validated: 33
EndChar

StartChar: seveninferior
Encoding: 277 8327 176
Width: 451
VWidth: 0
Flags: W
HStem: 155 131<49 252>
DStem2: 43 -201 202 -201 0.505875 0.862607<80.4341 412.816>
LayerCount: 2
Fore
SplineSet
28 155 m 1
 49 286 l 1
 426 286 l 5
 453 227 l 5
 202 -201 l 5
 43 -201 l 5
 252 155 l 5
 28 155 l 1
EndSplineSet
Validated: 1
EndChar

StartChar: eightinferior
Encoding: 278 8328 177
Width: 440
VWidth: 0
Flags: W
HStem: -201 123<184.645 280.947> -9 115<213.999 285.615> 167 123<219.52 314.317>
LayerCount: 2
Fore
SplineSet
35 -69 m 6
 40 -34 l 6
 45 -1 66 24 109 30 c 1
 57 55 63 103 69 144 c 2
 76 188 l 2
 91 282 162 290 237 290 c 2
 350 290 l 2
 436 290 478 247 465 163 c 2
 460 134 l 2
 457 116 441 77 391 71 c 1
 442 62 438 -10 433 -39 c 2
 425 -90 l 2
 408 -200 342 -201 271 -201 c 2
 159 -201 l 2
 21 -201 28 -111 35 -69 c 6
185 -54 m 2
 182 -72 189 -78 212 -78 c 2
 248 -78 l 2
 277 -78 280 -69 282 -54 c 2
 286 -33 l 2
 288 -20 285 -9 259 -9 c 2
 223 -9 l 2
 195 -9 191 -19 189 -33 c 2
 185 -54 l 2
214 128 m 2
 211 109 219 106 242 106 c 2
 277 106 l 2
 306 106 309 113 311 128 c 2
 314 143 l 2
 318 167 302 167 286 167 c 2
 251 167 l 2
 231 167 221 166 217 143 c 2
 214 128 l 2
EndSplineSet
Validated: 33
EndChar

StartChar: nineinferior
Encoding: 279 8329 178
Width: 438
VWidth: 0
Flags: W
HStem: -195 112<39 255.569> -26 124<194.554 269.739> 163 131<200.548 289.977>
LayerCount: 2
Fore
SplineSet
21 -195 m 1
 39 -83 l 1
 195 -83 l 2
 260 -83 264 -52 271 -10 c 1
 244 -24 223 -26 166 -26 c 1
 56 -26 40 51 52 127 c 2
 60 183 l 2
 73 274 132 296 216 294 c 2
 305 292 l 6
 398 292 457 219 423 3 c 0
 394 -179 337 -199 270 -209 c 0
 195 -221 87 -208 21 -195 c 1
196 128 m 2
 192 105 191 98 216 98 c 2
 288 98 l 1
 297 155 287 163 244 163 c 2
 230 163 l 2
 208 163 201 158 198 138 c 2
 196 128 l 2
EndSplineSet
Validated: 33
EndChar

StartChar: zero.oldstyle
Encoding: 280 -1 179
Width: 605
VWidth: 0
Flags: W
HStem: 0 174<270.915 412.175> 458 174<310.062 450.006>
DStem2: 68 192 269 233 0.161709 0.986839<24.5072 293.681> 424 232 611 192 0.163109 0.986608<-57.224 219.237>
LayerCount: 2
Fore
SplineSet
68 192 m 10
 107 430 l 2
 128 560 188 632 313 632 c 2
 477 632 l 2
 642 632 668 540 652 440 c 18
 611 192 l 18
 592 73 535 0 415 0 c 2
 251 0 l 2
 121 0 48 72 68 192 c 10
269 233 m 2
 260 177 294 174 316 174 c 10
 358 174 l 18
 391 174 415 178 424 232 c 2
 451 400 l 2
 458 446 440 458 413 458 c 2
 356 458 l 2
 307 458 298 413 296 400 c 2
 269 233 l 2
EndSplineSet
Substitution2: "'tnum' Tabular Numbers in Latin lookup 7-1" zero.tosf
Substitution2: "'lnum' Lining Figures lookup 19-1" zero
EndChar

StartChar: one.oldstyle
Encoding: 281 -1 180
Width: 374
VWidth: 0
Flags: W
HStem: 0 21G<128 322.816>
DStem2: 128 0 320 0 0.139447 0.99023<26.7738 452.408>
LayerCount: 2
Fore
SplineSet
65 428 m 1
 84 551 l 1
 84 551 169 577 217 632 c 9
 409 632 l 1
 320 0 l 1
 128 0 l 1
 191 448 l 5
 148 419 65 428 65 428 c 1
EndSplineSet
Validated: 33
Substitution2: "'tnum' Tabular Numbers in Latin lookup 7-1" one.tosf
Substitution2: "'lnum' Lining Figures lookup 19-1" one
EndChar

StartChar: two.oldstyle
Encoding: 282 -1 181
Width: 607
VWidth: 0
Flags: W
HStem: 0 174<447 559> 457 175<182.951 434.362> 457 145<140 267.375>
LayerCount: 2
Fore
SplineSet
34 0 m 25xc0
 61 168 l 17
 161 208 427 314 439 389 c 1
 449 450 421 457 340 457 c 2xc0
 117 457 l 2
 140 602 l 1xa0
 225 620 295 632 439 632 c 3
 595 632 659 529 637 389 c 1
 615 251 527 208 447 174 c 9
 587 174 l 25
 559 0 l 25
 34 0 l 25xc0
EndSplineSet
Substitution2: "'tnum' Tabular Numbers in Latin lookup 7-1" two.tosf
Substitution2: "'lnum' Lining Figures lookup 19-1" two
EndChar

StartChar: three.oldstyle
Encoding: 283 -1 182
Width: 581
VWidth: 0
Flags: W
HStem: -107 175<54.1356 368.885> -79 147<54 130.057> 186 158<159 259> 460 174<154.329 423.672>
LayerCount: 2
Fore
SplineSet
30 -79 m 1x70
 54 68 l 1x70
 272 68 l 2
 350 68 371 69 378 116 c 2
 379 126 l 2
 386 172 358 173 295 177 c 2
 133 186 l 2
 159 344 l 1
 323 352 l 2
 392 355 418 355 425 401 c 2
 426 409 l 2
 435 460 392 460 340 460 c 2
 109 460 l 1
 132 606 l 1
 225 637 348 636 465 634 c 0
 575 632 644 548 625 429 c 2
 618 390 l 2
 606 317 571 273 511 264 c 1
 575 247 583 166 571 90 c 2
 566 61 l 2
 547 -60 463 -107 341 -107 c 0xb0
 227 -107 113 -110 30 -79 c 1x70
EndSplineSet
Validated: 33
Substitution2: "'tnum' Tabular Numbers in Latin lookup 7-1" three.tosf
Substitution2: "'lnum' Lining Figures lookup 19-1" three
EndChar

StartChar: four.oldstyle
Encoding: 284 -1 183
Width: 615
VWidth: 0
Flags: W
LayerCount: 2
Fore
SplineSet
22 124 m 5
 313 632 l 5
 521 632 l 5
 298 215 l 5
 395 215 l 5
 417 349 l 5
 456 427 l 5
 623 427 l 5
 589 215 l 5
 649 215 l 5
 626 66 l 5
 561 37 l 5
 540 -98 l 5
 346 -98 l 5
 367 37 l 5
 42 37 l 5
 22 124 l 5
EndSplineSet
Validated: 1
Substitution2: "'tnum' Tabular Numbers in Latin lookup 7-1" four.tosf
Substitution2: "'lnum' Lining Figures lookup 19-1" four
EndChar

StartChar: five.oldstyle
Encoding: 285 -1 184
Width: 605
VWidth: 0
Flags: W
HStem: -104 179<55 372.556> -80 155<55 208.708> 212 164<308.358 390.561> 458 174<327 601>
LayerCount: 2
Fore
SplineSet
30 -80 m 1x70
 55 75 l 1
 319 75 l 2
 381 75 383 108 386 128 c 2
 391 159 l 2
 396 192 389 212 351 212 c 2
 307 212 l 2
 275 212 261 198 256 167 c 1
 70 167 l 1
 166 632 l 17
 629 632 l 1
 601 458 l 1
 327 458 l 25
 307 356 l 1
 336 372 363 375 376 376 c 0
 402 378 438 377 451 376 c 0
 566 366 602 276 588 170 c 2
 573 56 l 2
 551 -81 438 -104 340 -104 c 3xb0
 216 -104 160 -103 30 -80 c 1x70
EndSplineSet
Validated: 33
Substitution2: "'tnum' Tabular Numbers in Latin lookup 7-1" five.tosf
Substitution2: "'lnum' Lining Figures lookup 19-1" five
EndChar

StartChar: six.oldstyle
Encoding: 286 -1 185
Width: 599
VWidth: 0
Flags: W
HStem: -1 174<278.75 402.535> 294 164<303.869 419.519> 564 148<522.848 632>
LayerCount: 2
Fore
SplineSet
98 404 m 0
 140 669 236 719 327 733 c 0
 430 749 565 732 655 712 c 1
 632 564 l 1
 413 564 l 2
 322 564 314 510 302 437 c 1
 342 456 374 458 458 458 c 1
 604 458 626 358 609 249 c 2
 594 148 l 2
 573 18 492 -1 376 -1 c 2
 238 -1 l 2
 116 -1 48 89 98 404 c 0
279 294 m 1
 262 188 275 173 340 173 c 2
 362 173 l 2
 395 173 406 182 412 219 c 2
 416 239 l 2
 423 282 423 294 386 294 c 2
 279 294 l 1
EndSplineSet
Substitution2: "'tnum' Tabular Numbers in Latin lookup 7-1" six.tosf
Substitution2: "'lnum' Lining Figures lookup 19-1" six
EndChar

StartChar: seven.oldstyle
Encoding: 287 -1 186
Width: 568
VWidth: 0
Flags: W
HStem: 458 174<109 372>
DStem2: 86 -100 292 -100 0.452659 0.891684<93.2478 627.02>
LayerCount: 2
Fore
SplineSet
81 458 m 1
 109 632 l 1
 590 632 l 1
 624 554 l 1
 292 -100 l 1
 86 -100 l 1
 372 458 l 1
 81 458 l 1
EndSplineSet
Validated: 1
Substitution2: "'tnum' Tabular Numbers in Latin lookup 7-1" seven.tosf
Substitution2: "'lnum' Lining Figures lookup 19-1" seven
EndChar

StartChar: eight.oldstyle
Encoding: 288 -1 187
Width: 621
VWidth: 0
Flags: W
HStem: 0 164<267.935 405.589> 297 153<314.161 420.748> 573 164<329.985 464.656>
LayerCount: 2
Fore
SplineSet
70 199 m 2
 78 252 l 2
 86 302 114 340 171 349 c 1
 103 386 111 458 121 519 c 2
 131 584 l 2
 153 724 251 737 354 737 c 2
 510 737 l 2
 628 737 685 671 665 543 c 2
 658 499 l 2
 654 472 630 412 564 403 c 1
 631 390 624 284 617 241 c 2
 605 165 l 2
 579 2 489 0 392 0 c 2
 237 0 l 2
 47 0 60 135 70 199 c 2
269 210 m 2
 263 175 273 164 308 164 c 2
 360 164 l 2
 404 164 411 182 415 210 c 2
 421 250 l 2
 425 276 423 297 384 297 c 2
 330 297 l 2
 288 297 279 277 275 250 c 2
 269 210 l 2
314 494 m 2
 308 455 320 450 354 450 c 2
 406 450 l 2
 450 450 455 464 460 494 c 2
 464 524 l 2
 472 572 449 573 425 573 c 2
 373 573 l 2
 343 573 325 570 318 524 c 2
 314 494 l 2
EndSplineSet
Substitution2: "'tnum' Tabular Numbers in Latin lookup 7-1" eight.tosf
Substitution2: "'lnum' Lining Figures lookup 19-1" eight
EndChar

StartChar: nine.oldstyle
Encoding: 289 -1 188
Width: 586
VWidth: 0
Flags: W
HStem: -80 148<88 197.536> 174 164<301.208 417.13> 459 174<315.483 440.75>
LayerCount: 2
Fore
SplineSet
65 -80 m 1
 88 68 l 1
 307 68 l 2
 398 68 407 122 419 195 c 1
 379 176 346 174 262 174 c 1
 116 174 96 284 113 393 c 2
 126 474 l 2
 146 604 226 633 342 633 c 2
 480 633 l 2
 608 633 671 523 621 208 c 0
 579 -57 485 -87 394 -101 c 0
 291 -117 155 -100 65 -80 c 1
305 393 m 2
 298 350 297 338 334 338 c 2
 441 338 l 1
 458 444 444 459 379 459 c 2
 358 459 l 2
 325 459 314 450 308 413 c 2
 305 393 l 2
EndSplineSet
Validated: 33
Substitution2: "'tnum' Tabular Numbers in Latin lookup 7-1" nine.tosf
Substitution2: "'lnum' Lining Figures lookup 19-1" nine
EndChar

StartChar: ampersand
Encoding: 38 38 189
Width: 711
VWidth: 0
Flags: W
HStem: 0 21G<468.642 696> 566 144<505.884 589>
LayerCount: 2
Fore
SplineSet
78 87 m 0
 21 188 41 285 149 365 c 2
 236 430 l 1
 204 487 l 1
 142 594 222 715 311 730 c 0
 436 752 543 727 612 710 c 1
 589 566 l 1
 456 566 l 2
 380 566 383 552 419 488 c 2
 510 328 l 1
 648 443 l 1
 704 355 l 1
 634 231 l 1
 589 188 l 1
 696 0 l 1
 480 0 l 1
 434 81 l 1
 358 25 l 2
 292 -24 142 -27 78 87 c 0
235 194 m 0
 250 169 272 155 308 183 c 2
 351 217 l 1
 307 290 l 1
 259 257 l 18
 222 227 226 209 235 194 c 0
EndSplineSet
Validated: 33
AlternateSubs2: "'salt' Access All Alternates in Latin lookup 4-1" ampersand.salt
Substitution2: "'smcp' Lowercase to Small Capitals lookup 16-1" ampersand.smcp
EndChar

StartChar: asterisk
Encoding: 42 42 190
Width: 417
VWidth: 0
Flags: W
HStem: 561 94<217.684 260> 566 70<128 180.316>
LayerCount: 2
Fore
SplineSet
117 566 m 5x40
 128 636 l 5x40
 270 655 l 5
 260 561 l 5x80
 117 566 l 5x40
142 418 m 5
 188 556 l 5
 276 532 l 5
 205 397 l 5
 142 418 l 5
248 459 m 5
 312 538 l 5
 411 449 l 5
 361 393 l 5
 248 459 l 5
271 722 m 5
 341 744 l 5
 382 618 l 5
 289 584 l 5
 271 722 l 5
320 571 m 5
 452 652 l 5
 484 595 l 5
 367 498 l 5
 320 571 l 5
EndSplineSet
Validated: 1
Substitution2: "'smcp' Lowercase to Small Capitals lookup 16-1" asterisk.smcp
EndChar

StartChar: Euro
Encoding: 290 8364 191
Width: 693
VWidth: 0
Flags: W
HStem: -6 154<318.8 555.07> 148 90<342.465 498> 245 87<59 112 322 541> 380 100<344 563> 388 83<81 125.75 395.778 563> 576 164<371.969 651.323>
LayerCount: 2
Fore
SplineSet
45 245 m 1x64
 59 332 l 1
 128 339 l 1
 134 380 l 1x74
 68 388 l 1
 81 471 l 1x2c
 150 480 l 1
 161 552 201 740 445 740 c 3
 497 740 633 732 714 700 c 1
 692 561 l 2
 692 561 561 576 479 576 c 3
 358 576 355 547 344 480 c 1
 577 473 l 1
 563 387 l 1
 328 380 l 1
 322 339 l 1
 555 332 l 1
 541 245 l 1
 541 245 303 240 306 238 c 1x74
 292 147 354 148 412 148 c 27
 498 148 635 175 635 175 c 1
 613 39 l 1
 539 0 450 -6 327 -6 c 3xa4
 250 -6 76 12 112 238 c 1
 45 245 l 1x64
EndSplineSet
Validated: 33
Substitution2: "'smcp' Lowercase to Small Capitals lookup 16-1" Euro.smcp
EndChar

StartChar: parenleft
Encoding: 40 40 192
Width: 412
VWidth: 0
Flags: W
LayerCount: 2
Fore
SplineSet
93 296 m 4
 151 662 367 800 367 800 c 1
 538 800 l 1
 538 800 333 556 287 266 c 0
 237 -50 368 -270 368 -270 c 1
 197 -270 l 1
 197 -270 30 -101 93 296 c 4
EndSplineSet
Validated: 33
Substitution2: "'case' Case-Sensitive Forms lookup 1-1" parenleft.alt
Substitution2: "'c2sc' Capitals to Small Capitals in Latin lookup 17 subtable" parenleft.smcp
Substitution2: "'smcp' Lowercase to Small Capitals lookup 16-1" parenleft.smcp
EndChar

StartChar: parenright
Encoding: 41 41 193
Width: 413
VWidth: 0
Flags: W
LayerCount: 2
Fore
SplineSet
-22 -270 m 1
 -22 -270 179 -50 229 266 c 0
 275 556 147 800 147 800 c 1
 318 800 l 1
 318 800 481 602 423 236 c 4
 360 -161 169 -270 169 -270 c 1
 -22 -270 l 1
EndSplineSet
Validated: 33
Substitution2: "'case' Case-Sensitive Forms lookup 1-1" parenright.alt
Substitution2: "'c2sc' Capitals to Small Capitals in Latin lookup 17 subtable" parenright.smcp
Substitution2: "'smcp' Lowercase to Small Capitals lookup 16-1" parenright.smcp
EndChar

StartChar: plus
Encoding: 43 43 194
Width: 456
VWidth: 0
Flags: W
HStem: 279 154<88 194 372 480>
DStem2: 173 148 327 148 0.156694 0.987647<24.1309 132.672 312.662 421.203>
LayerCount: 2
Fore
SplineSet
64 279 m 5
 88 433 l 5
 218 433 l 5
 239 564 l 5
 393 564 l 5
 372 433 l 5
 504 433 l 5
 480 279 l 5
 348 279 l 5
 327 148 l 5
 173 148 l 5
 194 279 l 5
 64 279 l 5
EndSplineSet
Validated: 1
EndChar

StartChar: endash
Encoding: 291 8211 195
Width: 451
VWidth: 0
Flags: W
HStem: 210 155<84 532>
LayerCount: 2
Fore
SplineSet
59 210 m 5
 84 365 l 5
 557 365 l 5
 532 210 l 5
 59 210 l 5
EndSplineSet
Validated: 1
Substitution2: "'case' Case-Sensitive Forms lookup 1-1" endash.alt
Substitution2: "'c2sc' Capitals to Small Capitals in Latin lookup 17 subtable" endash.smcp
Substitution2: "'smcp' Lowercase to Small Capitals lookup 16-1" endash.smcp
EndChar

StartChar: emdash
Encoding: 292 8212 196
Width: 736
VWidth: 0
Flags: W
HStem: 212 155<88 759>
LayerCount: 2
Fore
SplineSet
63 212 m 5
 88 367 l 5
 784 367 l 5
 759 212 l 5
 63 212 l 5
EndSplineSet
Validated: 1
Substitution2: "'case' Case-Sensitive Forms lookup 1-1" emdash.alt
Substitution2: "'c2sc' Capitals to Small Capitals in Latin lookup 17 subtable" emdash.smcp
Substitution2: "'smcp' Lowercase to Small Capitals lookup 16-1" emdash.smcp
EndChar

StartChar: less
Encoding: 60 60 197
Width: 431
VWidth: 0
Flags: W
LayerCount: 2
Fore
SplineSet
70 266 m 1
 97 436 l 1
 493 566 l 1
 466 396 l 1
 274 348 l 5
 450 300 l 1
 423 130 l 1
 70 266 l 1
EndSplineSet
Validated: 1
EndChar

StartChar: equal
Encoding: 61 61 198
Width: 467
VWidth: 0
Flags: W
HStem: 162 154<69 472> 381 154<104 507>
LayerCount: 2
Fore
SplineSet
45 162 m 5
 69 316 l 5
 496 316 l 5
 472 162 l 5
 45 162 l 5
80 381 m 1
 104 535 l 1
 531 535 l 1
 507 381 l 1
 80 381 l 1
EndSplineSet
Validated: 1
EndChar

StartChar: greater
Encoding: 62 62 199
Width: 430
VWidth: 0
Flags: W
LayerCount: 2
Fore
SplineSet
48 130 m 1
 75 300 l 5
 268 362 l 1
 90 396 l 1
 117 566 l 1
 471 436 l 1
 445 266 l 1
 48 130 l 1
EndSplineSet
Validated: 1
EndChar

StartChar: multiply
Encoding: 215 215 200
Width: 464
VWidth: 0
Flags: W
DStem2: 73 263 167 149 0.747897 0.663814<0 139.706 300.46 446.561> 221 554 102 448 0.636344 -0.771405<6.04397 121.376 270.548 385.012>
LayerCount: 2
Fore
SplineSet
73 263 m 1
 179 355 l 1
 102 448 l 1
 221 554 l 1
 299 461 l 1
 414 558 l 1
 505 449 l 1
 388 349 l 1
 466 257 l 1
 349 160 l 1
 274 247 l 1
 167 149 l 1
 73 263 l 1
EndSplineSet
Validated: 1
EndChar

StartChar: divide
Encoding: 247 247 201
Width: 482
VWidth: 0
Flags: W
HStem: 117 125<199.692 327.57> 276 154<95 498> 460 125<253.784 382.233>
DStem2: 199 217 341 217 0.157532 0.987514<-81.8851 28.686 265.493 375.958>
LayerCount: 2
Fore
SplineSet
71 276 m 1
 95 430 l 1
 522 430 l 1
 498 276 l 1
 71 276 l 1
186 140 m 2
 199 217 l 2
 201 232 211 242 227 242 c 2
 320 242 l 2
 338 242 344 233 341 217 c 2
 328 140 l 2
 325 122 314 117 300 117 c 2
 207 117 l 2
 193 117 184 126 186 140 c 2
241 483 m 2
 253 560 l 2
 255 575 265 585 281 585 c 2
 374 585 l 2
 392 585 398 576 395 560 c 2
 383 483 l 2
 380 465 368 460 354 460 c 2
 261 460 l 2
 247 460 239 469 241 483 c 2
EndSplineSet
Validated: 33
EndChar

StartChar: question
Encoding: 63 63 202
Width: 545
VWidth: 0
Flags: W
HStem: 0 165<176.702 318.652> 564 175<156.496 400.878> 564 145<123 227.529>
LayerCount: 2
Fore
SplineSet
100 564 m 2xa0
 123 709 l 1xa0
 213 732 296 744 410 739 c 1
 562 739 623 622 607 524 c 2
 598 453 l 2
 581 317 517 270 352 276 c 1
 340 195 l 1
 195 195 l 1
 230 417 l 1
 322 417 l 0
 371 419 398 434 406 487 c 2
 408 502 l 2
 415 546 388 564 331 564 c 2xc0
 100 564 l 2xa0
157 23 m 2
 176 140 l 2
 178 155 188 165 204 165 c 2
 317 165 l 2
 335 165 341 156 338 140 c 2
 319 23 l 2
 316 5 305 0 291 0 c 2
 178 0 l 2
 164 0 155 9 157 23 c 2
EndSplineSet
Validated: 33
Substitution2: "'smcp' Lowercase to Small Capitals lookup 16-1" question.smcp
EndChar

StartChar: bracketleft
Encoding: 91 91 203
Width: 345
VWidth: 0
Flags: W
HStem: 628 154<367.475 444>
DStem2: 50 -19 244 -38 0.162607 0.986691<-52.0316 679.955>
LayerCount: 2
Fore
SplineSet
50 -19 m 2
 153 606 l 2
 175 738 238 782 388 782 c 2
 468 782 l 1
 444 628 l 1
 414 628 l 2
 376 628 350 610 340 550 c 2
 244 -38 l 2
 234 -98 253 -116 291 -116 c 2
 326 -116 l 1
 302 -270 l 1
 206 -270 l 2
 50 -270 32 -125 50 -19 c 2
EndSplineSet
Validated: 33
EndChar

StartChar: bracketright
Encoding: 93 93 204
Width: 339
VWidth: 0
Flags: W
HStem: -270 154<2 84.6157> 762 20G<141.753 298.5>
DStem2: 107 -38 305 -93 0.139042 0.990287<-67.3497 662.585>
LayerCount: 2
Fore
SplineSet
-22 -270 m 1
 2 -116 l 1
 32 -116 l 2
 70 -116 97 -98 107 -38 c 2
 200 550 l 2
 210 610 188 628 150 628 c 2
 120 628 l 1
 145 782 l 1
 229 782 l 2
 368 782 413 680 395 548 c 6
 305 -93 l 2
 292 -190 247 -270 78 -270 c 2
 -22 -270 l 1
EndSplineSet
Validated: 33
EndChar

StartChar: braceleft
Encoding: 123 123 205
Width: 321
VWidth: 0
Flags: W
HStem: 762 20G<361 439.883>
DStem2: 68 -68 268 -28 0.157935 0.98745<-17.2834 265.15 423.135 729.981>
LayerCount: 2
Fore
SplineSet
52 205 m 1
 74 342 l 1
 107 345 136 357 142 395 c 2
 179 626 l 2
 198 746 279 782 443 782 c 1
 419 628 l 1
 377 628 369 607 355 516 c 2
 334 380 l 2
 322 306 278 279 212 274 c 1
 275 261 309 228 300 171 c 2
 268 -28 l 2
 258 -93 254 -126 300 -126 c 1
 277 -270 l 1
 101 -270 48 -192 68 -68 c 6
 103 152 l 2
 108 186 92 208 52 205 c 1
EndSplineSet
Validated: 33
EndChar

StartChar: braceright
Encoding: 125 125 206
Width: 322
VWidth: 0
Flags: W
HStem: 762 20G<141.753 227>
DStem2: 63 -28 242 -108 0.154377 0.988012<-96.9733 258.86 420.187 653.282>
LayerCount: 2
Fore
SplineSet
-22 -270 m 1
 1 -126 l 1
 47 -126 53 -93 63 -28 c 2
 95 171 l 2
 104 228 148 261 215 274 c 1
 151 279 115 306 127 380 c 2
 148 516 l 2
 162 607 162 628 120 628 c 1
 145 782 l 1
 309 782 361 687 342 567 c 6
 323 395 l 2
 319 357 342 345 375 342 c 1
 353 205 l 1
 313 208 292 186 286 152 c 2
 242 -108 l 2
 219 -240 154 -270 -22 -270 c 1
EndSplineSet
Validated: 33
EndChar

StartChar: at
Encoding: 64 64 207
Width: 920
VWidth: 0
Flags: W
HStem: -199 144<198.174 612.942> -172 117<473.118 641> -4 144<418.794 505.415> 403 143<452.119 585.45> 594 145<301.578 786.999>
DStem2: 40 59 186 39 0.156072 0.987746<-64.4383 539.567> 587 398 695 147 0.153773 0.988106<-229.97 0> 762 237 898 157 0.146431 0.989221<-88.9283 329.846>
LayerCount: 2
Fore
SplineSet
40 59 m 2xb8
 113 521 l 2
 143 708 254 739 409 739 c 2
 764 739 l 2
 934 739 965 612 943 461 c 2
 898 157 l 2
 882 47 830 3 686 3 c 2
 562 3 l 1
 538 53 l 1
 523 30 496 -6 423 -4 c 0
 298 0 244 115 271 292 c 0
 305 514 412 546 516 546 c 0
 634 546 691 526 742 477 c 1
 695 147 l 1
 743 147 750 156 762 237 c 2
 798 481 l 2
 811 572 789 594 718 594 c 2
 376 594 l 2
 281 594 265 538 256 481 c 2
 186 39 l 2
 177 -18 188 -55 274 -55 c 2xb8
 660 -55 l 1
 641 -172 l 1x78
 591 -182 475 -199 349 -199 c 2
 261 -199 l 2
 48 -199 21 -66 40 59 c 2xb8
415 274 m 0
 407 224 394 137 464 140 c 0
 519 142 554 163 558 210 c 1
 587 398 l 1
 558 402 532 403 508 403 c 0
 451 403 430 370 415 274 c 0
EndSplineSet
Validated: 33
Substitution2: "'case' Case-Sensitive Forms lookup 1-1" at.alt
Substitution2: "'smcp' Lowercase to Small Capitals lookup 16-1" at.smcp
EndChar

StartChar: breve
Encoding: 293 728 208
Width: 245
VWidth: 0
Flags: W
HStem: 532 65<124.609 210.184>
VStem: 54 67<600.4 644> 217 67<605.701 644>
LayerCount: 2
Fore
SplineSet
54 644 m 1
 121 644 l 1
 118 614 131 597 163 597 c 0
 201 597 215 616 217 644 c 1
 284 644 l 1
 278 576 233 532 162 532 c 4
 93 532 48 576 54 644 c 1
EndSplineSet
Validated: 33
EndChar

StartChar: ogonek
Encoding: 294 731 209
Width: 198
VWidth: 0
Flags: W
HStem: -20 20G<130 273>
LayerCount: 2
Fore
SplineSet
204 0 m 1
 273 0 l 1
 188 -53 233 -107 270 -101 c 9
 256 -191 l 0
 152 -225 56 -78 204 0 c 1
EndSplineSet
Validated: 33
EndChar

StartChar: caron
Encoding: 295 711 210
Width: 373
VWidth: 0
Flags: W
HStem: 531 140<174 211>
VStem: 11 322
LayerCount: 2
Fore
SplineSet
11 671 m 1
 122 671 l 1
 157 620 l 1
 211 671 l 1
 333 671 l 1
 211 531 l 1
 85 531 l 5
 11 671 l 1
85 531 m 5
211 531 m 1
EndSplineSet
Validated: 1
Substitution2: "'smcp' Lowercase to Small Capitals lookup 16-1" caron.smcp
EndChar

StartChar: hungarumlaut
Encoding: 296 733 211
Width: 473
VWidth: 0
Flags: W
HStem: 531 143<234 243 407 416>
LayerCount: 2
Fore
SplineSet
134 531 m 25
 234 674 l 25
 379 674 l 25
 243 531 l 25
 134 531 l 25
307 531 m 25
 407 674 l 25
 552 674 l 25
 416 531 l 25
 307 531 l 25
EndSplineSet
Validated: 1
EndChar

StartChar: dotaccent
Encoding: 297 729 212
Width: 154
VWidth: 0
Flags: W
HStem: 513 142<110.996 231.351>
VStem: 95 152
LayerCount: 2
Fore
SplineSet
95 536 m 2
 110 630 l 6
 112 645 122 655 138 655 c 6
 228 655 l 6
 243 655 249 644 247 630 c 6
 232 536 l 2
 230 521 220 513 206 513 c 2
 116 513 l 2
 102 513 93 522 95 536 c 2
EndSplineSet
Validated: 33
EndChar

StartChar: Lcaron
Encoding: 299 317 214
Width: 525
VWidth: 0
Flags: W
HStem: 0 174<274.984 506> 712 20G<156.84 354>
DStem2: 69 156 274 226 0.156051 0.987749<57.4578 583.144>
LayerCount: 2
Fore
SplineSet
69 156 m 2
 160 732 l 1
 354 732 l 1
 274 226 l 2
 266 173 299 174 328 174 c 2
 534 174 l 1
 506 0 l 1
 210 0 l 2
 119 0 51 43 69 156 c 2
390 571 m 1
 400 705 l 1
 410 772 l 1
 524 772 l 1
 514 705 l 1
 483 571 l 1
 390 571 l 1
EndSplineSet
Validated: 33
Substitution2: "'c2sc' Capitals to Small Capitals in Latin lookup 17 subtable" lcaron.smcp
EndChar

StartChar: lcaron
Encoding: 308 318 223
Width: 421
VWidth: 0
Flags: W
HStem: 0 21G<146.5 315.186> 763 20G<152.835 350 402.716 520>
DStem2: 62 189 262 229 0.156304 0.987709<-6.61297 601.392>
LayerCount: 2
Fore
SplineSet
62 189 m 2
 156 783 l 1
 350 783 l 1
 262 229 l 2
 251 160 264 146 284 134 c 2
 284 134 323 113 330 113 c 1
 312 0 l 1
 194 0 l 2
 99 0 40 48 62 189 c 2
385 581 m 1
 395 715 l 1
 406 782 l 1
 520 782 l 1
 509 715 l 1
 478 581 l 1
 385 581 l 1
EndSplineSet
Validated: 33
Substitution2: "'smcp' Lowercase to Small Capitals lookup 16-1" lcaron.smcp
EndChar

StartChar: tcaron
Encoding: 312 357 227
Width: 385
VWidth: 0
Flags: W
HStem: -1 21G<205 368.186> 398 134<364 432>
LayerCount: 2
Fore
SplineSet
74 398 m 1
 89 494 l 1
 170 532 l 1
 222 680 l 1
 388 680 l 1
 364 532 l 1
 453 532 l 1
 432 398 l 1
 343 398 l 1
 316 230 l 2
 305 159 317 145 337 133 c 2
 337 133 376 112 383 112 c 1
 365 -1 l 1
 245 -1 l 2
 165 -1 94 49 116 190 c 2
 149 398 l 1
 74 398 l 1
432 600 m 1
 442 734 l 1
 453 801 l 1
 567 801 l 1
 556 734 l 1
 525 600 l 1
 432 600 l 1
EndSplineSet
Validated: 33
AlternateSubs2: "'salt' Access All Alternates in Latin lookup 4-1" tcaron.salt
Substitution2: "'smcp' Lowercase to Small Capitals lookup 16-1" tcaron.smcp
EndChar

StartChar: dcaron
Encoding: 338 271 253
Width: 779
VWidth: 0
Flags: W
HStem: -6 157<169.673 303.129> 400 139<213 391.745> 765 20G<452.812 650 699.015 816>
DStem2: 358 173 526 0 0.156027 0.987753<-19.992 221.99 340.31 619.795>
LayerCount: 2
Fore
SplineSet
69 284 m 0
 100 481 141 539 285 539 c 3
 330 539 379 528 412 509 c 1
 456 785 l 1
 650 785 l 1
 526 0 l 1
 360 0 l 1
 338 49 l 17
 294 16 258 -6 199 -6 c 3
 80 -6 37 83 69 284 c 0
265 273 m 0
 248 164 260 151 289 151 c 3
 320 151 345 156 358 173 c 1
 392 385 l 1
 384 396 354 400 329 400 c 1
 301 400 283 386 265 273 c 0
682 581 m 1
 692 715 l 1
 702 782 l 1
 816 782 l 1
 806 715 l 1
 775 581 l 1
 682 581 l 1
EndSplineSet
Validated: 33
AlternateSubs2: "'salt' Access All Alternates in Latin lookup 4-1" dcaron.salt
Substitution2: "'smcp' Lowercase to Small Capitals lookup 16-1" dcaron.smcp
EndChar

StartChar: Lslash
Encoding: 346 321 261
Width: 527
VWidth: 0
Flags: W
HStem: 0 174<275.984 508> 712 20G<157.881 355>
DStem2: 31 374 18 293 0.929146 0.369713<0 42.838 307.883 369.105> 97 324 275 226 0.156051 0.987749<-112.697 0 82.0363 114.286 196.322 412.989>
LayerCount: 2
Fore
SplineSet
18 293 m 1
 31 374 l 1
 110 405 l 1
 161 732 l 1
 355 732 l 1
 317 488 l 1
 413 526 l 1
 400 445 l 1
 304 407 l 1
 275 226 l 2
 267 173 300 174 329 174 c 2
 535 174 l 1
 508 0 l 1
 212 0 l 2
 121 0 52 43 70 156 c 2
 97 324 l 1
 18 293 l 1
EndSplineSet
Validated: 33
Substitution2: "'c2sc' Capitals to Small Capitals in Latin lookup 17 subtable" lslash.smcp
EndChar

StartChar: uni00AD
Encoding: 173 173 262
Width: 353
VWidth: 0
Flags: W
HStem: 213 154<77 367>
LayerCount: 2
Fore
SplineSet
53 213 m 1
 77 367 l 1
 391 367 l 1
 367 213 l 1
 53 213 l 1
EndSplineSet
Validated: 1
Substitution2: "'case' Case-Sensitive Forms lookup 1-1" uni00AD.alt
Substitution2: "'c2sc' Capitals to Small Capitals in Latin lookup 17 subtable" uni00AD.smcp
Substitution2: "'smcp' Lowercase to Small Capitals lookup 16-1" uni00AD.smcp
EndChar

StartChar: lslash
Encoding: 347 322 263
Width: 330
VWidth: 0
Flags: W
HStem: 0 21G<161.5 320.186> 763 20G<157.795 355>
DStem2: 32 416 95 365 0.929146 0.369713<0 39.6809 304.356 369.105> 67 189 267 229 0.156304 0.987709<-6.61184 178.213 260.093 291.56 373.597 601.392>
LayerCount: 2
Fore
SplineSet
19 335 m 1
 32 416 l 1
 107 446 l 1
 161 783 l 1
 355 783 l 1
 315 528 l 1
 414 568 l 1
 401 487 l 1
 302 447 l 1
 267 229 l 2
 256 160 269 146 289 134 c 1
 289 134 328 113 335 113 c 1
 317 0 l 1
 209 0 l 2
 114 0 45 48 67 189 c 2
 95 365 l 1
 19 335 l 1
EndSplineSet
Validated: 33
Substitution2: "'smcp' Lowercase to Small Capitals lookup 16-1" lslash.smcp
EndChar

StartChar: dcroat
Encoding: 349 273 265
Width: 555
VWidth: 0
Flags: W
HStem: -6 157<169.673 303.129> 400 139<213 391.745> 596 74<344 426 632 679> 765 20G<452.87 650>
DStem2: 358 173 526 0 0.156027 0.987753<-19.992 221.99 340.31 428.429 533.665 619.795>
LayerCount: 2
Fore
SplineSet
69 286 m 0
 100 483 141 539 285 539 c 0
 330 539 379 528 412 509 c 1
 426 596 l 1
 332 596 l 1
 344 670 l 1
 438 670 l 1
 456 785 l 1
 650 785 l 1
 632 670 l 1
 691 670 l 1
 679 596 l 1
 620 596 l 1
 526 0 l 1
 360 0 l 1
 338 49 l 1
 294 16 258 -6 199 -6 c 0
 80 -6 37 85 69 286 c 0
265 273 m 0
 248 164 260 151 289 151 c 0
 320 151 345 156 358 173 c 1
 392 385 l 1
 384 396 354 400 329 400 c 0
 301 400 283 386 265 273 c 0
EndSplineSet
Validated: 33
AlternateSubs2: "'salt' Access All Alternates in Latin lookup 4-1" dcroat.salt
Substitution2: "'smcp' Lowercase to Small Capitals lookup 16-1" dcroat.smcp
EndChar

StartChar: questiondown
Encoding: 191 191 266
Width: 542
VWidth: 0
Flags: W
HStem: -267 175<216.461 461.504> -237 145<390.471 495> 307 165<297.548 440.295>
LayerCount: 2
Fore
SplineSet
11 -40 m 2xa0
 19 11 l 2
 40 146 100 202 265 196 c 1
 278 277 l 1
 423 277 l 1
 388 55 l 1
 296 55 l 0
 247 53 220 38 212 -15 c 2
 209 -30 l 2
 202 -74 230 -92 287 -92 c 2xa0
 518 -92 l 2
 495 -237 l 1x60
 405 -260 322 -272 208 -267 c 1
 56 -267 -5 -138 11 -40 c 2xa0
279 332 m 2
 297 449 l 2
 300 467 312 472 326 472 c 2
 439 472 l 2
 453 472 461 463 459 449 c 2
 441 332 l 2
 439 317 429 307 413 307 c 2
 300 307 l 2
 282 307 276 316 279 332 c 2
EndSplineSet
Validated: 33
Substitution2: "'case' Case-Sensitive Forms lookup 1-1" questiondown.alt
Substitution2: "'smcp' Lowercase to Small Capitals lookup 16-1" questiondown.smcp
EndChar

StartChar: at.alt
Encoding: 350 -1 267
Width: 853
VWidth: 0
Flags: W
HStem: -149 144<216.174 630.942> -122 117<491.118 659> 46 144<436.794 523.415> 453 143<470.119 603.45> 644 145<319.578 804.999>
DStem2: 58 109 204 89 0.156072 0.987746<-64.4383 539.567> 605 448 713 197 0.153773 0.988106<-229.97 0> 780 287 916 207 0.146431 0.989221<-88.9283 329.846>
LayerCount: 2
Fore
SplineSet
58 109 m 6xb8
 131 571 l 6
 161 758 272 789 427 789 c 6
 782 789 l 6
 952 789 983 662 961 511 c 6
 916 207 l 6
 900 97 848 53 704 53 c 6
 580 53 l 5
 556 103 l 5
 541 80 514 44 441 46 c 4
 316 50 262 165 289 342 c 4
 323 564 430 596 534 596 c 4
 652 596 709 576 760 527 c 5
 713 197 l 5
 761 197 768 206 780 287 c 6
 816 531 l 6
 829 622 807 644 736 644 c 6
 394 644 l 6
 299 644 283 588 274 531 c 6
 204 89 l 6
 195 32 206 -5 292 -5 c 6xb8
 678 -5 l 5
 659 -122 l 5x78
 609 -132 493 -149 367 -149 c 6
 279 -149 l 6
 66 -149 39 -16 58 109 c 6xb8
433 324 m 4
 425 274 412 187 482 190 c 4
 537 192 572 213 576 260 c 5
 605 448 l 5
 576 452 550 453 526 453 c 4
 469 453 448 420 433 324 c 4
EndSplineSet
Validated: 33
EndChar

StartChar: questiondown.alt
Encoding: 351 -1 268
Width: 542
VWidth: 0
Flags: W
HStem: -8 175<257.461 502.504> 22 145<431.471 536> 566 165<338.548 481.295>
LayerCount: 2
Fore
SplineSet
52 220 m 2xa0
 60 271 l 2
 81 406 141 461 306 455 c 1
 319 536 l 1
 464 536 l 1
 429 314 l 1
 337 314 l 0
 288 312 261 297 253 244 c 2
 250 229 l 2
 243 185 271 167 328 167 c 2xa0
 559 167 l 2
 536 22 l 1x60
 446 -1 363 -13 249 -8 c 1
 97 -8 36 122 52 220 c 2xa0
320 591 m 2
 338 708 l 2
 341 726 353 731 367 731 c 2
 480 731 l 2
 494 731 502 722 500 708 c 2
 482 591 l 2
 480 576 470 566 454 566 c 2
 341 566 l 2
 323 566 317 575 320 591 c 2
EndSplineSet
Validated: 33
EndChar

StartChar: oe
Encoding: 352 339 269
Width: 829
VWidth: 0
Flags: W
HStem: -5 144<250.974 345.724> 22 136<736.305 819> 395 144<283.529 376.875 599.72 676.83>
LayerCount: 2
Fore
SplineSet
63 283 m 0xa0
 97 500 172 539 356 539 c 0
 413 539 458 530 491 512 c 1
 530 532 583 540 657 541 c 0
 762 542 882 515 879 388 c 0
 874 127 605 177 568 192 c 1
 561 146 581 139 652 139 c 0xa0
 698 139 794 148 843 158 c 1
 819 22 l 1x60
 742 -3 654 -19 520 -7 c 0
 489 -4 463 5 442 20 c 1
 400 1 344 -5 270 -5 c 0
 83 -5 33 93 63 283 c 0xa0
257 258 m 0
 240 153 242 139 293 139 c 0
 348 139 349 147 367 258 c 0
 385 373 389 395 333 395 c 0
 274 395 275 372 257 258 c 0
582 316 m 1
 582 316 667 289 679 353 c 0
 685 385 671 398 642 397 c 0
 600 395 589 361 582 316 c 1
EndSplineSet
Validated: 33
Substitution2: "'smcp' Lowercase to Small Capitals lookup 16-1" oe.smcp
EndChar

StartChar: OE
Encoding: 353 338 270
Width: 1007
VWidth: 0
Flags: W
HStem: -4 174<273.126 421.692 672.081 928.968> 14 162<669.779 934> 276 181<705 861.545> 285 161<794.455 926> 553 179<721.885 1016.8> 553 163<721.885 1019> 563 174<328.447 481.397>
LayerCount: 2
Fore
SplineSet
73 386 m 0x80
 127 729 267 737 435 737 c 0x82
 499 737 556 729 600 702 c 1
 641 730 692 735 740 732 c 2x08
 740 732 930 732 1045 716 c 1
 1019 553 l 1x04
 772 553 l 2
 720 553 715 524 711 497 c 2
 705 457 l 1x28
 951 446 l 1
 926 285 l 1x10
 677 276 l 1
 669 228 l 2
 660 175 693 176 722 176 c 2
 959 176 l 1
 934 14 l 1x60
 828 0 634 -3 634 -3 c 2
 601 -5 552 1 515 26 c 1
 459 -1 393 -4 318 -4 c 0
 138 -4 20 53 73 386 c 0x80
267 361 m 0
 243 208 247 170 345 170 c 0
 431 170 460 206 485 361 c 0
 512 531 499 563 408 563 c 0
 320 563 295 540 267 361 c 0
EndSplineSet
Validated: 33
EndChar

StartChar: guillemotright
Encoding: 187 187 272
Width: 595
VWidth: 0
Flags: W
DStem2: 66 244 153 146 0.747409 0.664364<0 187.018> 302 244 389 146 0.747409 0.664364<0 187.018>
LayerCount: 2
Fore
SplineSet
66 244 m 1
 206 368 l 1
 112 472 l 1
 214 557 l 1
 387 354 l 1
 153 146 l 1
 66 244 l 1
302 244 m 1
 442 368 l 1
 347 472 l 1
 449 557 l 1
 623 354 l 1
 389 146 l 1
 302 244 l 1
EndSplineSet
Validated: 1
EndChar

StartChar: cent
Encoding: 162 162 273
Width: 483
VWidth: 0
Flags: W
HStem: -6 145<299 432.326> 392 242<297 388.296>
DStem2: 177 -95 285 -95 0.162423 0.986721<17.5417 91.2412 655.081 738.81>
LayerCount: 2
Fore
SplineSet
64 296 m 4
 97 504 179 536 281 536 c 1
 297 634 l 1
 405 634 l 1
 389 534 l 1
 434 530 485 521 534 500 c 1
 516 386 l 1
 516 386 457 392 368 392 c 0
 300 392 278 394 257 264 c 0
 238 142 255 139 327 139 c 0
 419 139 485 147 485 147 c 1
 467 33 l 1
 416 1 356 -6 299 -6 c 1
 285 -95 l 1
 177 -95 l 1
 192 -5 l 1
 95 -3 32 91 64 296 c 4
EndSplineSet
Validated: 33
EndChar

StartChar: sterling
Encoding: 163 163 274
Width: 572
VWidth: 0
Flags: W
HStem: 0 174<312 543> 300 105<455.706 513> 559 173<378.116 633> 559 157<486.714 633>
LayerCount: 2
Fore
SplineSet
28 0 m 1xe0
 52 149 l 1
 118 174 l 1
 138 300 l 1
 76 300 l 1
 91 395 l 1
 157 422 l 1
 169 495 l 2
 205 722 306 732 484 732 c 3xe0
 541 732 657 716 657 716 c 1xd0
 633 559 l 1
 449 559 l 2
 391 559 371 552 361 487 c 2
 351 422 l 1
 529 405 l 1
 513 300 l 1
 332 300 l 1
 312 174 l 1
 571 174 l 1
 543 0 l 1
 28 0 l 1xe0
EndSplineSet
Validated: 1
Substitution2: "'smcp' Lowercase to Small Capitals lookup 16-1" sterling.smcp
EndChar

StartChar: yen
Encoding: 165 165 275
Width: 662
VWidth: 0
Flags: W
HStem: 0 21G<225 422.125> 128 99<146 245 455 557> 252 99<166 219 539 577> 712 20G<126 339.778 525.556 766>
LayerCount: 2
Fore
SplineSet
130 128 m 1
 146 227 l 1
 261 227 l 1
 265 252 l 1
 150 252 l 1
 166 351 l 1
 219 351 l 1
 126 732 l 1
 337 732 l 1
 382 408 l 1
 535 732 l 1
 766 732 l 1
 539 351 l 1
 593 351 l 1
 577 252 l 1
 459 252 l 1
 455 227 l 1
 573 227 l 1
 557 128 l 1
 439 128 l 1
 419 0 l 1
 225 0 l 1
 245 128 l 1
 130 128 l 1
EndSplineSet
Validated: 1
Substitution2: "'smcp' Lowercase to Small Capitals lookup 16-1" yen.smcp
EndChar

StartChar: section
Encoding: 167 167 276
Width: 531
VWidth: 0
Flags: W
HStem: -8 154<90 335.156> 11 135<90 330.456> 630 154<320.436 564> 630 135<322.614 564>
LayerCount: 2
Fore
SplineSet
69 11 m 1x40
 90 146 l 1
 304 146 l 2
 326 146 332 151 335 167 c 2
 337 179 l 2
 339 193 333 200 312 200 c 2
 232 200 l 2
 132 200 67 247 82 343 c 2
 84 355 l 2
 89 387 94 443 179 468 c 1
 112 503 120 579 125 610 c 2
 128 640 l 2
 140 738 200 784 304 784 c 3xa0
 402 784 522 782 585 765 c 1x10
 564 630 l 1
 350 630 l 2
 329 630 322 620 320 606 c 2
 319 600 l 2
 318 591 317 575 343 575 c 2
 420 575 l 2
 533 575 588 531 574 440 c 2
 572 428 l 2
 566 389 549 337 480 315 c 1
 540 305 538 216 533 183 c 2
 527 140 l 2
 506 9 426 -8 362 -8 c 3xa0
 251 -8 125 -7 69 11 c 1x40
284 377 m 2
 279 348 293 344 315 344 c 2
 325 344 l 2
 356 344 364 350 368 378 c 2
 369 379 371 396 371 396 c 2
 374 416 374 430 338 430 c 2
 328 430 l 2
 292 430 290 414 287 394 c 2
 284 377 l 2
EndSplineSet
Validated: 33
EndChar

StartChar: g.salt
Encoding: 355 -1 277
Width: 518
VWidth: 0
Flags: W
HStem: -270 147<203.842 298.815> 148 135<272.779 345.079> 399 134<284.302 358.699>
LayerCount: 2
Fore
SplineSet
10 -96 m 0
 51 114 l 0
 56 150 78 200 128 200 c 1
 66 236 75 321 83 374 c 0
 106 520 208 535 302 533 c 2
 397 531 l 2
 465 530 578 496 548 314 c 0
 536 237 474 148 332 148 c 2
 285 148 l 2
 269 148 245 153 240 136 c 0
 235 118 258 117 278 113 c 2
 384 91 l 2
 451 75 522 36 505 -73 c 2
 496 -126 l 2
 482 -215 439 -270 292 -270 c 2
 183 -270 l 2
 25 -270 -9 -192 10 -96 c 0
206 -86 m 2
 202 -110 199 -123 235 -123 c 2
 275 -123 l 2
 299 -123 303 -114 306 -96 c 2
 307 -85 l 2
 311 -57 307 -55 282 -50 c 2
 214 -39 l 1
 206 -86 l 2
277 344 m 0
 269 295 267 283 303 283 c 2
 314 283 l 2
 345 283 349 310 354 344 c 0
 363 399 362 399 332 399 c 2
 321 399 l 2
 291 399 286 396 277 344 c 0
EndSplineSet
Validated: 33
EndChar

StartChar: guillemotleft
Encoding: 171 171 278
Width: 596
VWidth: 0
Flags: W
DStem2: 84 354 267 344 0.760834 0.648947<132.743 312.815> 320 354 503 344 0.760834 0.648947<132.743 312.815>
LayerCount: 2
Fore
SplineSet
84 354 m 1
 322 557 l 1
 404 462 l 1
 267 344 l 1
 371 224 l 1
 262 146 l 1
 84 354 l 1
320 354 m 1
 558 557 l 1
 640 462 l 1
 503 344 l 1
 607 224 l 1
 498 146 l 1
 320 354 l 1
EndSplineSet
Validated: 1
EndChar

StartChar: paragraph
Encoding: 182 182 279
Width: 573
VWidth: 0
Flags: W
HStem: 0 21G<399 526.168> 355 124<228.717 289.713> 608 124<242.953 328 452 496 619 658>
DStem2: 189 -270 313 -270 0.156367 0.987699<19.3895 649.896 758.238 888.935> 399 0 523 0 0.157547 0.987511<19.5358 615.689>
LayerCount: 2
Fore
SplineSet
101 521 m 6
 115 614 l 6
 130 709 199 732 293 732 c 2
 678 732 l 1
 658 606 l 1
 619 606 l 1
 523 0 l 1
 399 0 l 1
 496 608 l 1
 452 608 l 1
 313 -270 l 1
 189 -270 l 1
 290 372 l 1
 284 370 270 355 234 355 c 3
 120 355 89 443 101 521 c 6
228 519 m 2
 222 480 235 479 263 479 c 10
 307 479 l 25
 328 608 l 25
 284 608 l 2
 244 608 241 600 234 558 c 10
 228 519 l 2
EndSplineSet
Validated: 33
EndChar

StartChar: macron
Encoding: 175 175 280
Width: 348
VWidth: 0
Flags: W
HStem: 531 93<127 404>
VStem: 112 307
LayerCount: 2
Fore
SplineSet
112 531 m 1
 127 624 l 5
 419 624 l 5
 404 531 l 1
 112 531 l 1
EndSplineSet
Validated: 1
Substitution2: "'smcp' Lowercase to Small Capitals lookup 16-1" macron.smcp
EndChar

StartChar: copyright
Encoding: 169 169 281
Width: 791
VWidth: 0
Flags: W
HStem: 0 104<251.262 590.966> 147 104<352.5 568.302> 479 104<418.872 622.211> 628 104<324.647 673.597>
LayerCount: 2
Fore
SplineSet
88 388 m 0
 119 583 192 732 421 732 c 2
 621 732 l 2
 824 732 853 553 819 338 c 0
 778 79 661 0 510 0 c 2
 310 0 l 2
 117 0 53 167 88 388 c 0
202 368 m 0
 177 209 209 104 323 104 c 2
 513 104 l 2
 603 104 673 164 705 368 c 0
 724 488 737 628 606 628 c 2
 406 628 l 2
 317 628 236 583 202 368 c 0
274 382 m 0
 300 543 362 583 452 583 c 3
 493 583 581 581 636 559 c 1
 622 467 l 1
 560 476 509 479 476 479 c 3
 422 479 402 457 387 362 c 0
 374 278 398 251 447 251 c 27
 506 251 555 259 596 267 c 1
 582 175 l 17
 526 147 459 147 392 147 c 3
 313 147 246 205 274 382 c 0
EndSplineSet
Validated: 33
EndChar

StartChar: registered
Encoding: 174 174 282
Width: 791
VWidth: 0
Flags: W
HStem: 0 104<251.262 590.966> 476 104<424 513.226> 628 104<324.647 673.597>
DStem2: 259 153 373 153 0.157269 0.987556<17.9286 182.002 267.001 344.93>
LayerCount: 2
Fore
SplineSet
88 388 m 0
 119 583 192 732 421 732 c 2
 621 732 l 2
 824 732 853 553 819 338 c 0
 778 79 661 0 510 0 c 2
 310 0 l 2
 117 0 53 167 88 388 c 0
202 368 m 0
 177 209 209 104 323 104 c 2
 513 104 l 2
 603 104 673 164 705 368 c 0
 724 488 737 628 606 628 c 2
 406 628 l 2
 317 628 236 583 202 368 c 0
259 153 m 1
 327 580 l 1
 514 580 l 2
 580 580 644 553 626 442 c 0
 614 365 589 327 541 311 c 1
 600 153 l 1
 479 153 l 1
 426 303 l 1
 399 315 l 1
 373 153 l 1
 259 153 l 1
412 399 m 1
 451 399 l 2
 503 399 506 403 512 441 c 0
 517 473 508 476 463 476 c 2
 424 476 l 1
 412 399 l 1
EndSplineSet
Validated: 33
EndChar

StartChar: plusminus
Encoding: 177 177 283
Width: 480
VWidth: 0
Flags: W
HStem: 57 154<65 457> 377 154<117 223 401 509>
DStem2: 202 246 356 246 0.156694 0.987647<24.1309 132.672 312.662 421.203>
LayerCount: 2
Fore
SplineSet
41 57 m 1
 65 211 l 1
 481 211 l 1
 457 57 l 1
 41 57 l 1
93 377 m 5
 117 531 l 5
 247 531 l 5
 268 662 l 5
 422 662 l 5
 401 531 l 5
 533 531 l 5
 509 377 l 5
 377 377 l 5
 356 246 l 5
 202 246 l 5
 223 377 l 5
 93 377 l 5
EndSplineSet
Validated: 1
EndChar

StartChar: logicalnot
Encoding: 172 172 284
Width: 466
VWidth: 0
Flags: W
HStem: 159 211<338 471.864> 226 144<78 338>
LayerCount: 2
Fore
SplineSet
55 226 m 1x40
 78 370 l 1
 505 370 l 1x40
 496 313 480 216 471 159 c 1
 327 159 l 1x80
 338 226 l 1
 55 226 l 1x40
EndSplineSet
Validated: 1
EndChar

StartChar: guilsinglleft
Encoding: 356 8249 285
Width: 278
VWidth: 0
Flags: W
VStem: 5 320
LayerCount: 2
Fore
SplineSet
5 354 m 1
 243 557 l 1
 325 462 l 1
 198 354 l 1
 292 244 l 1
 183 146 l 1
 5 354 l 1
EndSplineSet
Validated: 1
EndChar

StartChar: guilsinglright
Encoding: 357 8250 286
Width: 357
VWidth: 0
Flags: W
VStem: 84 321
DStem2: 84 244 162 146 0.759698 0.650276<0 168.772>
LayerCount: 2
Fore
SplineSet
84 244 m 1
 212 354 l 1
 120 462 l 1
 232 557 l 1
 405 354 l 1
 162 146 l 1
 84 244 l 1
EndSplineSet
Validated: 1
EndChar

StartChar: perthousand
Encoding: 358 8240 287
Width: 1334
VWidth: 0
Flags: W
HStem: 3 125<687.118 806.196 1097.12 1220.34> 261 125<703.838 824.005 1114.8 1234.13> 349 125<197.906 317.196> 607 125<215.804 335.005>
DStem2: 160 0 291 0 0.614388 0.789004<80.4849 927.752>
LayerCount: 2
Fore
SplineSet
69 499 m 2xb0
 87 612 l 2
 100 697 146 732 247 732 c 2
 348 732 l 2
 446 732 477 667 464 582 c 2
 446 469 l 18
 433 384 387 349 286 349 c 2
 185 349 l 2
 87 349 56 414 69 499 c 2xb0
199 514 m 2
 196 492 196 474 229 474 c 2
 280 474 l 2
 314 474 323 492 326 514 c 10
 334 567 l 2
 339 600 328 607 303 607 c 2
 252 607 l 2
 230 607 212 601 207 567 c 2
 199 514 l 2
160 0 m 1
 730 732 l 1
 854 732 l 1
 291 0 l 1
 160 0 l 1
558 153 m 2
 576 266 l 2
 589 351 634 386 735 386 c 2
 837 386 l 2xd0
 935 386 966 321 953 236 c 2
 935 123 l 18
 922 38 876 3 775 3 c 2
 673 3 l 2
 575 3 545 68 558 153 c 2
688 168 m 2
 685 146 686 128 719 128 c 2
 769 128 l 2
 803 128 812 146 815 168 c 10
 823 221 l 2
 828 254 817 261 792 261 c 2
 742 261 l 2
 720 261 701 255 696 221 c 2
 688 168 l 2
968 153 m 2
 986 266 l 2
 999 351 1045 386 1146 386 c 2
 1247 386 l 2
 1345 386 1376 321 1363 236 c 6
 1345 123 l 22
 1332 38 1286 3 1185 3 c 2
 1084 3 l 2
 986 3 955 68 968 153 c 2
1098 168 m 2
 1095 146 1096 128 1129 128 c 2
 1180 128 l 2
 1214 128 1222 146 1225 168 c 10
 1233 221 l 2
 1238 254 1228 261 1203 261 c 2
 1152 261 l 2
 1130 261 1111 255 1106 221 c 2
 1098 168 l 2
EndSplineSet
Validated: 33
Substitution2: "'smcp' Lowercase to Small Capitals lookup 16-1" perthousand.smcp
EndChar

StartChar: dagger
Encoding: 359 8224 288
Width: 565
VWidth: 0
Flags: W
HStem: 424 149<121 158.133 524.333 561>
LayerCount: 2
Fore
SplineSet
97 424 m 5
 121 573 l 5
 256 588 l 5
 298 770 l 5
 471 770 l 5
 455 588 l 5
 585 573 l 5
 561 424 l 5
 427 409 l 5
 336 -72 l 5
 163 -72 l 5
 228 409 l 5
 97 424 l 5
EndSplineSet
Validated: 1
EndChar

StartChar: daggerdbl
Encoding: 360 8225 289
Width: 534
VWidth: 0
Flags: W
HStem: 424 149<149 186.667 552.8 590>
LayerCount: 2
Fore
SplineSet
78 124 m 1
 102 273 l 1
 241 292 l 1
 256 409 l 1
 126 424 l 1
 149 573 l 1
 285 588 l 1
 326 770 l 1
 499 770 l 1
 484 588 l 1
 613 573 l 1
 590 424 l 1
 455 409 l 1
 433 291 l 1
 566 273 l 1
 542 124 l 1
 398 107 l 1
 365 -72 l 1
 192 -72 l 1
 216 105 l 1
 78 124 l 1
EndSplineSet
Validated: 1
EndChar

StartChar: trademark
Encoding: 361 8482 290
Width: 622
VWidth: 0
Flags: W
HStem: 383 349<123 197 390 402 443 511 580 687> 638 94<45 123 237 329>
VStem: 573 114<383 553> 580 107<383 553>
DStem2: 83 383 197 383 0.154968 0.98792<17.6663 258.118>
LayerCount: 2
Fore
SplineSet
30 638 m 1x40
 45 732 l 1
 344 732 l 1
 329 638 l 1
 237 638 l 1x40
 197 383 l 1
 83 383 l 1x80
 123 638 l 1
 30 638 l 1x40
288 383 m 1x90
 390 732 l 1
 511 732 l 1x90
 512 563 l 5
 566 732 l 1
 691 732 l 1x50
 687 383 l 1
 573 383 l 1xa0
 580 553 l 1
 540 383 l 1
 437 383 l 1
 443 551 l 1
 402 383 l 1
 288 383 l 1x90
EndSplineSet
Validated: 1
EndChar

StartChar: notequal
Encoding: 362 8800 291
Width: 542
VWidth: 0
Flags: W
HStem: 162 154<136 177 258 289 370 539> 381 154<171 337 418 448 529 574>
DStem2: 177 162 208 93 0.588556 0.808456<-37.5382 0 238.094 271.221 508.726 533.251>
LayerCount: 2
Fore
SplineSet
112 162 m 1
 136 316 l 1
 289 316 l 1
 337 381 l 1
 147 381 l 1
 171 535 l 1
 448 535 l 1
 491 593 l 1
 572 593 l 1
 529 535 l 1
 598 535 l 1
 574 381 l 1
 418 381 l 1
 370 316 l 1
 563 316 l 1
 539 162 l 1
 258 162 l 1
 208 93 l 1
 127 93 l 1
 177 162 l 1
 112 162 l 1
EndSplineSet
Validated: 1
EndChar

StartChar: infinity
Encoding: 363 8734 292
Width: 656
VWidth: 0
Flags: W
HStem: 169 123<112.123 264.978 488.049 582.125> 391 123<180.292 270.622 497.403 593.409>
LayerCount: 2
Fore
SplineSet
40 361 m 0
 54 448 95 514 233 514 c 3
 309 514 355 487 392 427 c 1
 440 493 511 514 587 514 c 3
 725 514 740 408 726 321 c 0
 711 229 659 169 532 169 c 3
 469 169 409 179 363 255 c 1
 303 179 252 169 178 169 c 3
 51 169 25 269 40 361 c 0
173 341 m 0
 169 313 173 292 211 292 c 3
 245 292 272 317 292 341 c 1
 280 366 255 391 227 391 c 3
 183 391 177 369 173 341 c 0
469 340 m 1
 481 316 503 292 537 292 c 3
 573 292 589 313 593 341 c 0
 597 369 596 391 553 391 c 3
 515 391 489 365 469 340 c 1
EndSplineSet
Validated: 33
EndChar

StartChar: lessequal
Encoding: 364 8804 293
Width: 512
VWidth: 0
Flags: W
HStem: 63 134<99 452>
LayerCount: 2
Fore
SplineSet
78 63 m 1
 99 197 l 1
 473 197 l 1
 452 63 l 1
 78 63 l 1
123 346 m 1
 150 516 l 1
 542 626 l 1
 515 456 l 1
 327 423 l 1
 506 396 l 5
 479 230 l 1
 123 346 l 1
EndSplineSet
Validated: 1
EndChar

StartChar: greaterequal
Encoding: 365 8805 294
Width: 411
VWidth: 0
Flags: W
HStem: 63 134<58 412>
LayerCount: 2
Fore
SplineSet
37 63 m 1
 58 197 l 1
 433 197 l 1
 412 63 l 1
 37 63 l 1
63 230 m 1
 90 400 l 1
 281 440 l 1
 99 460 l 5
 126 626 l 1
 484 516 l 1
 457 346 l 1
 63 230 l 1
EndSplineSet
Validated: 1
EndChar

StartChar: circumflex
Encoding: 366 710 295
Width: 305
VWidth: 0
Flags: W
HStem: 531 140<117 159>
VStem: 37 322
LayerCount: 2
Fore
SplineSet
37 531 m 1
 159 671 l 1
 290 671 l 1
 359 531 l 1
 248 531 l 1
 217 582 l 1
 159 531 l 1
 37 531 l 1
159 671 m 1
290 671 m 1
EndSplineSet
Validated: 1
Substitution2: "'smcp' Lowercase to Small Capitals lookup 16-1" circumflex.smcp
EndChar

StartChar: tilde
Encoding: 367 732 296
Width: 404
VWidth: 0
Flags: W
HStem: 531 106<291.926 403.981> 566 106<173.775 288.74>
LayerCount: 2
Fore
SplineSet
112 598 m 17x80
 143 634 191 672 247 672 c 27x40
 291 672 307 637 347 637 c 1
 387 635 421 654 447 677 c 9
 461 603 l 17
 434 570 388 531 337 531 c 7x80
 294 531 266 566 227 566 c 3x40
 188 566 163 555 128 531 c 9
 112 598 l 17x80
EndSplineSet
Validated: 33
Substitution2: "'smcp' Lowercase to Small Capitals lookup 16-1" tilde.smcp
EndChar

StartChar: ring
Encoding: 368 730 297
Width: 258
VWidth: 0
Flags: W
HStem: 532 67<191.787 253.453> 666 66<193.483 256.107>
VStem: 122 203
LayerCount: 2
Fore
SplineSet
122 632 m 0
 127 689 175 732 231 732 c 0
 287 732 330 689 325 632 c 0
 320 575 274 532 218 532 c 0
 162 532 117 575 122 632 c 0
190 632 m 24
 188 613 202 599 221 599 c 27
 240 599 255 613 257 632 c 24
 259 651 246 666 227 666 c 27
 208 666 192 651 190 632 c 24
EndSplineSet
Validated: 33
Substitution2: "'smcp' Lowercase to Small Capitals lookup 16-1" ring.smcp
EndChar

StartChar: ellipsis
Encoding: 369 8230 298
Width: 799
VWidth: 0
Flags: W
HStem: 0 165<142.702 284.652 414.702 556.652 686.702 828.652>
LayerCount: 2
Fore
SplineSet
123 23 m 6
 142 140 l 6
 144 155 154 165 170 165 c 6
 283 165 l 6
 301 165 307 156 304 140 c 6
 285 23 l 6
 282 5 271 0 257 0 c 6
 144 0 l 6
 130 0 121 9 123 23 c 6
395 23 m 6
 414 140 l 6
 416 155 426 165 442 165 c 6
 555 165 l 6
 573 165 579 156 576 140 c 6
 557 23 l 6
 554 5 543 0 529 0 c 6
 416 0 l 6
 402 0 393 9 395 23 c 6
667 23 m 6
 686 140 l 6
 688 155 698 165 714 165 c 6
 827 165 l 6
 845 165 851 156 848 140 c 6
 829 23 l 6
 826 5 815 0 801 0 c 6
 688 0 l 6
 674 0 665 9 667 23 c 6
EndSplineSet
Validated: 33
EndChar

StartChar: fraction
Encoding: 370 8260 299
Width: 395
VWidth: 0
Flags: W
HStem: 0 21G<-51 92.6742>
DStem2: -51 0 80 0 0.535279 0.844676<70.1215 911.593>
LayerCount: 2
Fore
SplineSet
-51 0 m 1
 436.956 770 l 1
 567.956 770 l 1
 80 0 l 1
 -51 0 l 1
EndSplineSet
EndChar

StartChar: dotlessi
Encoding: 371 305 300
Width: 252
VWidth: 0
Flags: W
HStem: 0 21G<20 217.164> 511 20G<100.836 298>
VStem: 20 278
DStem2: 20 0 214 0 0.156249 0.987718<30.3123 537.603>
LayerCount: 2
Fore
SplineSet
20 0 m 1
 104 531 l 1
 298 531 l 1
 214 0 l 1
 20 0 l 1
EndSplineSet
Validated: 1
EndChar

StartChar: fi
Encoding: 372 64257 301
Width: 615
VWidth: 0
Flags: W
HStem: 0 21G<43 240.174 379 576.186> 397 134<321 442> 652 134<370.001 649>
DStem2: 43 0 237 0 0.156239 0.987719<30.3104 401.968> 379 0 573 0 0.157325 0.987547<30.5211 401.968>
LayerCount: 2
Fore
SplineSet
34 397 m 1
 53 514 l 1
 127 531 l 1
 140 590 l 2
 159 711 255 782 402 786 c 0
 451 787 631 782 667 762 c 1
 649 651 l 1
 648 651 456 652 456 652 c 2
 406 652 339 642 324 550 c 2
 321 531 l 1
 656 521 l 1
 573 0 l 1
 379 0 l 1
 442 397 l 1
 300 397 l 1
 237 0 l 1
 43 0 l 1
 106 397 l 1
 34 397 l 1
EndSplineSet
Validated: 33
Ligature2: "'liga' Standard Ligatures lookup 15-1" f i
LCarets2: 1 0 
EndChar

StartChar: fl
Encoding: 373 64258 302
Width: 690
VWidth: 0
Flags: W
HStem: 0 21G<82 279.174 558.5 717.186> 397 134<360 437> 652 134<390.843 537>
DStem2: 82 0 276 0 0.156729 0.987642<30.4054 401.968> 464 189 664 229 0.156878 0.987618<-6.61179 467.732>
LayerCount: 2
Fore
SplineSet
73 397 m 1
 92 514 l 1
 166 531 l 1
 176 580 l 2
 205 765 321 786 441 786 c 2
 752 783 l 1
 664 229 l 2
 653 160 666 146 686 134 c 1
 686 134 725 113 732 113 c 1
 714 0 l 1
 606 0 l 2
 511 0 442 48 464 189 c 2
 537 651 l 1
 492 651 445 652 445 652 c 2
 395 652 374 632 364 570 c 2
 360 531 l 1
 458 531 l 1
 437 397 l 1
 339 397 l 1
 276 0 l 1
 82 0 l 1
 145 397 l 1
 73 397 l 1
EndSplineSet
Validated: 33
Ligature2: "'liga' Standard Ligatures lookup 15-1" f l
LCarets2: 1 0 
EndChar

StartChar: exclamdown.alt
Encoding: 374 -1 303
Width: 331
VWidth: 0
Flags: W
HStem: 296 165<197.217 339.561>
VStem: 73 286
LayerCount: 2
Fore
SplineSet
73 -270 m 1
 178 265 l 1
 325 265 l 1
 259 -270 l 1
 73 -270 l 1
179 323 m 2
 197 438 l 2
 199 452 211 460 225 461 c 1
 339 461 l 1
 351 460 361 449 359 435 c 2
 341 323 l 1
 339 310 332 296 315 296 c 1
 199 296 l 1
 186 296 176 304 179 323 c 2
EndSplineSet
Validated: 33
EndChar

StartChar: ampersand.salt
Encoding: 375 -1 304
Width: 1005
VWidth: 0
Flags: W
HStem: -2 151<475.291 732.178> 176 296<479.835 677.967> 510 151<310.705 805>
DStem2: 764 247 957 214 0.148691 0.988884<-79.6289 266.173 445.931 470.678>
LayerCount: 2
Fore
SplineSet
80 367 m 6
 91 450 l 2
 116 639 219 659 408 661 c 1
 829 661 l 1
 864 766 l 1
 1040 766 l 1
 1023 659 l 1
 1098 659 l 1
 1078 530 l 1
 1000 511 l 1
 957 214 l 2
 925 15 788 -2 635 -2 c 2
 471 -2 l 0
 366 -1 261 52 280 169 c 1
 150 169 56 218 80 367 c 6
273 356 m 2
 267 321 271 308 302 308 c 1
 322 432 410 472 536 472 c 2
 565 472 l 2
 680 472 767 434 746 304 c 0
 725 171 622 176 516 176 c 2
 476 176 l 1
 474 164 473 149 500 149 c 1
 659 149 l 2
 742 149 755 189 764 247 c 2
 805 510 l 1
 394 510 l 0
 297 510 294 484 285 430 c 2
 273 356 l 2
496 306 m 1
 534 306 l 2
 546 306 552 310 555 326 c 0
 557 340 549 342 540 342 c 2
 526 342 l 2
 510 342 502 342 496 306 c 1
EndSplineSet
Validated: 33
EndChar

StartChar: a.superior
Encoding: 376 -1 305
Width: 399
VWidth: 0
Flags: W
HStem: 364 111<175.053 280.937>
LayerCount: 2
Fore
SplineSet
98 581 m 0
 131 730 229 729 302 729 c 0
 363 729 441 718 477 685 c 13
 431 364 l 21
 316 364 l 5
 294 406 l 21
 277 370 250 359 197 359 c 3
 120 359 69 447 98 581 c 0
233 557 m 0
 227 515 222 475 255 475 c 3
 283 475 303 486 305 505 c 5
 321 620 l 5
 306 624 292 626 279 623 c 0
 259 619 240 609 233 557 c 0
EndSplineSet
Validated: 33
EndChar

StartChar: b.superior
Encoding: 377 -1 306
Width: 405
VWidth: 0
Flags: W
HStem: 360 118<252.612 360.821> 627 105<282.598 430>
DStem2: 80 364 246 491 0.156738 0.98764<143.342 290.612 372.083 529.545>
LayerCount: 2
Fore
SplineSet
80 364 m 1
 163 887 l 1
 308 887 l 1
 280 709 l 1
 308 724 346 732 378 732 c 3
 482 732 493 645 473 516 c 0
 452 384 405 360 319 360 c 3
 276 360 256 376 232 401 c 9
 204 364 l 1
 80 364 l 1
246 491 m 1
 251 481 267 478 288 478 c 3
 307 478 319 486 329 551 c 0
 340 619 331 627 312 627 c 1
 295 627 274 624 266 616 c 1
 246 491 l 1
EndSplineSet
Validated: 33
Ligature2: "'ordn' Ordinals lookup 21-1" b
EndChar

StartChar: c.superior
Encoding: 378 -1 307
Width: 345
VWidth: 0
Flags: W
HStem: 361 108<246.893 372.607> 613 108<220 420.276>
LayerCount: 2
Fore
SplineSet
104 561 m 0
 126 699 184 721 256 721 c 3
 293 721 379 717 434 694 c 1
 420 609 l 1
 420 609 381 613 322 613 c 3
 277 613 263 612 250 540 c 0
 238 471 251 469 299 469 c 3
 360 469 404 473 404 473 c 1
 390 390 l 17
 338 365 292 360 199 361 c 0
 129 362 82 423 104 561 c 0
EndSplineSet
Validated: 33
Ligature2: "'ordn' Ordinals lookup 21-1" c
EndChar

StartChar: d.superior
Encoding: 379 -1 308
Width: 405
VWidth: 0
Flags: W
HStem: 360 118<180.987 273.657> 627 105<207 334.202>
DStem2: 315 491 441 364 0.156738 0.98764<-14.9777 132.504 220.948 401.137>
LayerCount: 2
Fore
SplineSet
105 571 m 0
 123 674 155 732 259 732 c 3
 291 732 327 724 351 709 c 1
 379 887 l 1
 524 887 l 1
 441 364 l 1
 317 364 l 1
 301 401 l 17
 269 376 243 360 200 360 c 3
 114 360 83 449 105 571 c 0
252 551 m 0
 242 486 250 478 269 478 c 3
 290 478 306 481 315 491 c 1
 335 616 l 1
 329 624 310 627 293 627 c 1
 274 627 263 619 252 551 c 0
EndSplineSet
Validated: 33
Ligature2: "'ordn' Ordinals lookup 21-1" d
EndChar

StartChar: e.superior
Encoding: 380 -1 309
Width: 374
VWidth: 0
Flags: W
HStem: 613 111<254.66 316.888>
LayerCount: 2
Fore
SplineSet
106 570 m 0
 126 678 159 723 296 724 c 0
 369 725 459 702 455 620 c 0
 447 459 262 487 238 498 c 1
 234 473 258 469 305 469 c 0
 336 469 392 474 425 479 c 1
 407 381 l 17
 353 362 298 348 204 359 c 0
 115 370 82 441 106 570 c 0
245 568 m 0
 245 568 308 544 318 588 c 4
 322 608 309 613 290 613 c 0
 254 613 249 596 245 568 c 0
EndSplineSet
Validated: 33
Ligature2: "'ordn' Ordinals lookup 21-1" e
EndChar

StartChar: f.superior
Encoding: 381 -1 310
Width: 308
VWidth: 0
Flags: W
HStem: 619 101<325 381> 787 101<334.779 420.918>
VStem: 115 320
DStem2: 123 364 269 364 0.154217 0.988037<22.5157 258.118>
LayerCount: 2
Fore
SplineSet
115 619 m 1
 129 707 l 1
 177 724 l 5
 188 776 l 2
 207 862 254 888 343 888 c 0
 379 888 408 885 435 870 c 1
 421 786 l 1
 420 786 370 787 370 787 c 2
 332 788 333 776 328 742 c 2
 325 720 l 1
 397 720 l 1
 381 619 l 1
 309 619 l 9
 269 364 l 17
 123 364 l 1
 163 619 l 1
 115 619 l 1
EndSplineSet
Validated: 33
Ligature2: "'ordn' Ordinals lookup 21-1" f
EndChar

StartChar: g.superior
Encoding: 382 -1 311
Width: 401
VWidth: 0
Flags: W
HStem: 192 98<85 140.75> 361 106<174.5 296.845> 629 102<273.282 339.114>
DStem2: 298 348 442 323 0.153425 0.98816<-51.5202 42.4233 117.427 284.424>
LayerCount: 2
Fore
SplineSet
69 192 m 1
 85 290 l 1
 228 290 l 2
 266 290 292 309 298 348 c 2
 304 390 l 1
 285 369 263 361 230 361 c 3
 119 361 92 441 113 573 c 0
 134 703 198 731 290 731 c 3
 368 731 464 720 501 703 c 1
 442 323 l 2
 426 224 371 161 233 176 c 2
 69 192 l 1
260 556 m 0
 249 487 249 467 284 467 c 3
 297 467 309 468 318 475 c 1
 342 629 l 2
 310 629 l 2
 271 629 266 593 260 556 c 0
EndSplineSet
Validated: 33
Ligature2: "'ordn' Ordinals lookup 21-1" g
EndChar

StartChar: h.superior
Encoding: 383 -1 312
Width: 404
VWidth: 0
Flags: W
HStem: 620 109<307.392 440>
DStem2: 80 364 226 364 0.157325 0.987547<22.9695 281.724 345.863 527.57> 297 364 443 364 0.154639 0.987971<22.5773 255.961>
LayerCount: 2
Fore
SplineSet
80 364 m 1
 163 885 l 1
 308 885 l 1
 276 683 l 1
 301 705 331 729 390 729 c 3
 490 729 491 670 479 594 c 2
 443 364 l 9
 297 364 l 17
 332 586 l 2
 336 613 331 620 316 620 c 3
 292 620 274 614 263 597 c 1
 226 364 l 1
 80 364 l 1
EndSplineSet
Validated: 33
Ligature2: "'ordn' Ordinals lookup 21-1" h
EndChar

StartChar: i.superior
Encoding: 384 -1 313
Width: 189
VWidth: 0
Flags: W
HStem: 745 124<156.983 290.656>
VStem: 79 225
DStem2: 79 364 225 364 0.160446 0.987045<23.425 360.373 406.02 515.192>
LayerCount: 2
Fore
SplineSet
79 364 m 1
 135 720 l 1
 281 720 l 1
 225 364 l 1
 79 364 l 1
143 762 m 2
 157 850 l 2
 159 861 166 869 178 869 c 2
 291 869 l 2
 302 869 306 861 304 850 c 2
 290 762 l 2
 288 751 282 745 271 745 c 2
 158 745 l 2
 147 745 141 751 143 762 c 2
EndSplineSet
Validated: 1
Ligature2: "'ordn' Ordinals lookup 21-1" i
EndChar

StartChar: j.superior
Encoding: 385 -1 314
Width: 189
VWidth: 0
Flags: W
HStem: 743 125<156.983 291.511>
VStem: 52 253
DStem2: 52 181 226 360 0.155279 0.987871<42.4683 543.685 588.093 698.781>
LayerCount: 2
Fore
SplineSet
52 181 m 1
 137 718 l 1
 283 718 l 1
 226 360 l 2
 218 302 206 233 164 181 c 1
 52 181 l 1
143 760 m 2
 157 849 l 2
 159 860 166 868 178 868 c 2
 291 868 l 2
 302 868 307 860 305 849 c 2
 291 760 l 2
 289 749 282 743 271 743 c 2
 158 743 l 2
 147 743 141 749 143 760 c 2
EndSplineSet
Validated: 1
Ligature2: "'ordn' Ordinals lookup 21-1" j
EndChar

StartChar: k.superior
Encoding: 386 -1 315
Width: 424
VWidth: 0
Flags: W
DStem2: 80 364 226 364 0.157325 0.987547<22.9695 175.865 261.694 527.57>
LayerCount: 2
Fore
SplineSet
80 364 m 1
 163 885 l 1
 309 885 l 1
 262 600 l 1
 322 620 350 653 375 716 c 1
 525 716 l 1
 498 617 449 579 412 557 c 1
 499 364 l 1
 341 364 l 1
 280 516 l 1
 250 515 l 9
 226 364 l 17
 80 364 l 1
EndSplineSet
Validated: 1
Ligature2: "'ordn' Ordinals lookup 21-1" k
EndChar

StartChar: l.superior
Encoding: 387 -1 316
Width: 238
VWidth: 0
Flags: W
HStem: 364 85<255.376 286>
VStem: 100 209
DStem2: 100 490 251 525 0.154681 0.987964<0.0837097 400.824>
LayerCount: 2
Fore
SplineSet
100 490 m 2
 162 886 l 1
 309 886 l 1
 251 525 l 2
 244 480 251 471 266 463 c 2
 266 463 294 449 299 449 c 1
 286 364 l 1
 206 364 l 6
 136 364 85 396 100 490 c 2
EndSplineSet
Validated: 33
Ligature2: "'ordn' Ordinals lookup 21-1" l
EndChar

StartChar: m.superior
Encoding: 388 -1 317
Width: 622
VWidth: 0
Flags: W
HStem: 616 108<302.422 411 518.456 656>
DStem2: 297 364 443 364 0.156833 0.987625<22.8976 251.809> 515 364 661 364 0.156633 0.987657<22.8684 251.814>
LayerCount: 2
Fore
SplineSet
80 364 m 1
 136 717 l 1
 258 717 l 1
 270 678 l 1
 301 703 325 724 385 724 c 0
 437 724 463 706 475 678 c 1
 510 699 550 724 606 724 c 0
 706 724 709 666 697 591 c 2
 661 364 l 1
 515 364 l 1
 550 583 l 2
 554 610 548 616 533 616 c 0
 511 616 491 611 480 597 c 1
 479 592 478 587 477 581 c 2
 443 364 l 1
 297 364 l 1
 332 583 l 2
 336 610 330 616 315 616 c 0
 291 616 273 610 262 593 c 1
 226 364 l 1
 80 364 l 1
EndSplineSet
Validated: 33
Ligature2: "'ordn' Ordinals lookup 21-1" m
EndChar

StartChar: n.superior
Encoding: 389 -1 318
Width: 404
VWidth: 0
Flags: W
HStem: 616 108<302.259 437>
DStem2: 80 364 226 364 0.156681 0.987649<22.8754 277.509> 297 364 443 364 0.156633 0.987657<22.8684 251.814>
LayerCount: 2
Fore
SplineSet
80 364 m 1
 136 717 l 1
 258 717 l 1
 271 678 l 1
 299 702 326 724 386 724 c 3
 488 724 491 666 479 591 c 2
 443 364 l 9
 297 364 l 17
 332 583 l 2
 336 610 330 616 315 616 c 3
 291 616 273 610 262 593 c 1
 226 364 l 1
 80 364 l 1
EndSplineSet
Validated: 33
Ligature2: "'ordn' Ordinals lookup 21-1" n
EndChar

StartChar: o.superior
Encoding: 390 -1 319
Width: 384
VWidth: 0
Flags: W
HStem: 361 108<235.681 303.595> 613 108<249.092 319.689>
LayerCount: 2
Fore
SplineSet
105 553 m 4
 128 697 172 721 306 721 c 3
 442 721 470 659 448 519 c 0
 427 388 388 361 249 361 c 3
 113 361 85 427 105 553 c 4
240 537 m 0
 230 477 232 469 266 469 c 3
 307 469 303 474 313 537 c 0
 323 602 331 613 289 613 c 3
 245 613 250 602 240 537 c 0
EndSplineSet
Validated: 33
EndChar

StartChar: p.superior
Encoding: 391 -1 320
Width: 401
VWidth: 0
Flags: W
HStem: 350 106<244.482 365.163> 625 102<269 329.484>
DStem2: 51 177 197 177 0.156738 0.98764<22.8838 228.39 309.811 476.632>
LayerCount: 2
Fore
SplineSet
51 177 m 9
 134 700 l 1
 175 717 250 727 353 727 c 3
 440 727 492 666 471 528 c 0
 455 418 419 350 309 350 c 3
 277 350 242 358 229 380 c 1
 197 177 l 17
 51 177 l 9
244 468 m 1
 251 459 262 456 275 456 c 3
 310 456 316 477 327 546 c 0
 333 583 339 625 300 625 c 8
 269 625 l 25
 244 468 l 1
EndSplineSet
Validated: 33
Ligature2: "'ordn' Ordinals lookup 21-1" p
EndChar

StartChar: q.superior
Encoding: 392 -1 321
Width: 402
VWidth: 0
Flags: W
HStem: 350 106<165 287.641> 625 102<270.249 331.9>
DStem2: 264 177 410 177 0.154895 0.987931<22.6147 205.507 279.791 453.591>
LayerCount: 2
Fore
SplineSet
105 562 m 4
 127 700 191 727 283 727 c 3
 361 727 455 717 492 700 c 1
 410 177 l 17
 264 177 l 9
 296 380 l 1
 277 358 252 350 220 350 c 3
 110 350 84 430 105 562 c 4
250 546 m 0
 239 477 240 456 275 456 c 3
 288 456 301 459 310 468 c 1
 335 625 l 2
 303 625 l 2
 264 625 256 583 250 546 c 0
EndSplineSet
Validated: 33
Ligature2: "'ordn' Ordinals lookup 21-1" q
EndChar

StartChar: r.superior
Encoding: 393 -1 322
Width: 294
VWidth: 0
Flags: W
HStem: 577 140<292.805 368>
VStem: 80 310
DStem2: 80 364 226 364 0.156681 0.987649<22.8754 238.964>
LayerCount: 2
Fore
SplineSet
80 364 m 1
 136 717 l 1
 266 717 l 1
 267 667 l 1
 283 694 320 721 358 721 c 27
 371 721 380 721 390 717 c 1
 368 577 l 1
 357 577 337 577 316 577 c 27
 289 577 260 577 254 541 c 1
 226 364 l 1
 80 364 l 1
EndSplineSet
Validated: 1
Ligature2: "'ordn' Ordinals lookup 21-1" r
EndChar

StartChar: s.superior
Encoding: 394 -1 323
Width: 349
VWidth: 0
Flags: W
HStem: 361 113<110 275.664> 497 87<245 279> 608 113<245.051 410>
VStem: 97 326
LayerCount: 2
Fore
SplineSet
97 389 m 9
 110 474 l 17
 264 474 l 18
 276 474 279 476 279 485 c 0
 279 486 l 18
 279 494 279 497 268 497 c 10
 205 497 l 2
 142 497 106 543 116 608 c 10
 120 637 l 18
 128 689 159 721 228 721 c 3
 324 721 407 723 423 694 c 9
 410 608 l 17
 262 608 l 2
 253 608 246 608 245 600 c 10
 245 595 l 18
 244 586 250 584 258 584 c 2
 324 584 l 2
 399 584 420 536 413 492 c 1
 406 452 l 2
 393 374 346 361 303 361 c 3
 208 361 116 358 97 389 c 9
EndSplineSet
Validated: 33
Ligature2: "'ordn' Ordinals lookup 21-1" s
EndChar

StartChar: t.superior
Encoding: 395 -1 324
Width: 287
VWidth: 0
Flags: W
HStem: 620 101<327 370>
VStem: 115 271
LayerCount: 2
Fore
SplineSet
115 620 m 1
 126 701 l 5
 185 724 l 5
 218 820 l 1
 343 820 l 1
 327 721 l 1
 386 721 l 1
 370 620 l 1
 311 620 l 1
 295 520 l 2
 288 477 296 469 310 462 c 2
 310 462 335 449 340 449 c 1
 326 364 l 1
 239 364 l 2
 181 364 130 397 144 487 c 2
 165 620 l 1
 115 620 l 1
EndSplineSet
Validated: 33
Ligature2: "'ordn' Ordinals lookup 21-1" t
EndChar

StartChar: u.superior
Encoding: 396 -1 325
Width: 405
VWidth: 0
Flags: W
HStem: 357 108<141 275.209>
DStem2: 99 490 246 498 0.156633 0.987657<0.891661 229.837> 316 488 442 364 0.156681 0.987649<-22.8212 231.812>
LayerCount: 2
Fore
SplineSet
99 490 m 2
 135 717 l 9
 281 717 l 17
 246 498 l 2
 242 471 248 465 263 465 c 3
 287 465 305 471 316 488 c 1
 352 717 l 1
 498 717 l 1
 442 364 l 1
 320 364 l 1
 308 407 l 1
 276 375 252 357 192 357 c 3
 90 357 87 415 99 490 c 2
EndSplineSet
Validated: 33
Ligature2: "'ordn' Ordinals lookup 21-1" u
EndChar

StartChar: v.superior
Encoding: 397 -1 326
Width: 398
VWidth: 0
Flags: W
VStem: 356 140<631.439 719>
LayerCount: 2
Fore
SplineSet
129 717 m 25
 267 717 l 17
 280 503 l 1
 332 627 l 2
 341 645 353 675 356 719 c 9
 496 719 l 17
 507 668 482 612 464 580 c 9
 345 364 l 9
 184 364 l 25
 129 717 l 25
EndSplineSet
Validated: 33
Ligature2: "'ordn' Ordinals lookup 21-1" v
EndChar

StartChar: w.superior
Encoding: 398 -1 327
Width: 616
VWidth: 0
Flags: W
VStem: 356 140<632.282 719> 574 140<631.439 719>
LayerCount: 2
Fore
SplineSet
129 717 m 1
 266 717 l 1
 279 503 l 1
 332 627 l 2
 341 645 353 675 356 719 c 1
 496 719 l 1
 503 687 495 653 484 624 c 1
 482 619 480 615 478 610 c 1
 497 503 l 1
 550 627 l 2
 559 645 571 675 574 719 c 1
 714 719 l 1
 725 668 699 612 681 580 c 9
 562 364 l 1
 405 364 l 1
 386 459 l 1
 344 364 l 1
 183 364 l 1
 129 717 l 1
EndSplineSet
Validated: 33
Ligature2: "'ordn' Ordinals lookup 21-1" w
EndChar

StartChar: x.superior
Encoding: 399 -1 328
Width: 418
VWidth: 0
Flags: W
LayerCount: 2
Fore
SplineSet
74 364 m 1
 219 553 l 1
 130 717 l 1
 284 717 l 1
 311 636 l 1
 365 717 l 1
 520 717 l 1
 372 528 l 5
 458 364 l 1
 309 364 l 1
 282 446 l 1
 228 364 l 1
 74 364 l 1
EndSplineSet
Validated: 1
Ligature2: "'ordn' Ordinals lookup 21-1" x
EndChar

StartChar: y.superior
Encoding: 400 -1 329
Width: 424
VWidth: 0
Flags: W
VStem: 129 144<607.75 718> 145 133<465.397 560.5> 381 140<604.197 719>
DStem2: 303 465 406 361 0.384615 0.923077<0 250.283>
LayerCount: 2
Fore
SplineSet
146 159 m 0x60
 146 249 l 0
 210 278 239 312 264 361 c 1
 186 361 148 406 145 466 c 2x60
 129 718 l 1
 273 718 l 1xa0
 278 492 l 2
 279 471 292 466 303 465 c 1
 360 605 l 2
 368 628 376 665 381 719 c 9
 521 719 l 17
 532 667 511 611 496 577 c 9
 406 361 l 2
 318 166 186 164 146 159 c 0x60
EndSplineSet
Validated: 33
Ligature2: "'ordn' Ordinals lookup 21-1" y
EndChar

StartChar: z.superior
Encoding: 401 -1 330
Width: 342
VWidth: 0
Flags: W
HStem: 365 116<282 382.019> 601 116<133 240>
LayerCount: 2
Fore
SplineSet
87 365 m 25
 105 479 l 25
 240 601 l 17
 114 601 l 17
 133 717 l 25
 437 717 l 25
 421 620 l 25
 282 481 l 21
 399 481 l 17
 400 480 381 365 381 365 c 25
 87 365 l 25
EndSplineSet
Validated: 33
Ligature2: "'ordn' Ordinals lookup 21-1" z
EndChar

StartChar: zero.tnum
Encoding: 402 -1 331
Width: 606
VWidth: 0
Flags: W
HStem: 0 174<264.915 405.387> 558 174<317.325 458.733>
DStem2: 62 192 263 233 0.157763 0.987477<23.1537 394.781> 417 232 605 192 0.156108 0.98774<-53.4552 320.957>
LayerCount: 2
Fore
SplineSet
62 192 m 10
 116 530 l 2
 137 660 197 732 322 732 c 2
 486 732 l 2
 631 732 676 640 660 540 c 18
 605 192 l 18
 586 73 529 0 409 0 c 2
 245 0 l 2
 115 0 43 72 62 192 c 10
263 233 m 2
 254 177 288 174 310 174 c 10
 352 174 l 18
 385 174 408 178 417 232 c 2
 460 500 l 2
 467 546 448 558 421 558 c 2
 364 558 l 2
 312 558 307 513 305 500 c 2
 263 233 l 2
EndSplineSet
Substitution2: "'onum' Oldstyle Figures in Latin lookup 5-1" zero.tosf
Substitution2: "'lnum' Lining Figures lookup 19-1" zero
EndChar

StartChar: one.tnum
Encoding: 403 -1 332
Width: 606
VWidth: 0
Flags: W
HStem: 0 154<119 245 439 545> 712 20G<315 531>
DStem2: 245 154 439 154 0.157191 0.987568<30.495 399.005>
LayerCount: 2
Fore
SplineSet
95 0 m 5
 119 154 l 5
 245 154 l 5
 308 548 l 5
 265 519 187 528 187 528 c 5
 206 651 l 5
 206 651 291 677 339 732 c 5
 531 732 l 5
 439 154 l 5
 569 154 l 5
 545 0 l 5
 95 0 l 5
EndSplineSet
Substitution2: "'onum' Oldstyle Figures in Latin lookup 5-1" one.tosf
Substitution2: "'lnum' Lining Figures lookup 19-1" one
EndChar

StartChar: two.tnum
Encoding: 404 -1 333
Width: 606
VWidth: 0
Flags: W
HStem: 0 174<381 563> 567 175<186.951 441.889> 567 145<144 271.375>
LayerCount: 2
Fore
SplineSet
38 0 m 25xc0
 65 168 l 17
 154 222 436 424 448 499 c 1
 458 560 425 567 344 567 c 2xc0
 121 567 l 2
 144 712 l 1xa0
 229 730 299 742 443 742 c 3
 599 742 663 619 641 479 c 0
 619 341 452 230 381 174 c 9
 591 174 l 25
 563 0 l 25
 38 0 l 25xc0
EndSplineSet
Substitution2: "'onum' Oldstyle Figures in Latin lookup 5-1" two.tosf
Substitution2: "'lnum' Lining Figures lookup 19-1" two
EndChar

StartChar: three.tnum
Encoding: 405 -1 334
Width: 606
VWidth: 0
Flags: W
HStem: -7 175<70.1356 384.885> 21 147<70 146.057> 286 158<175 275> 560 174<170.329 439.672>
LayerCount: 2
Fore
SplineSet
46 21 m 5x70
 70 168 l 5x70
 288 168 l 6
 366 168 387 169 394 216 c 6
 395 226 l 6
 402 272 374 273 311 277 c 6
 149 286 l 6
 175 444 l 5
 339 452 l 6
 408 455 434 455 441 501 c 6
 442 509 l 6
 451 560 408 560 356 560 c 6
 125 560 l 5
 148 706 l 5
 241 737 364 736 481 734 c 4
 591 732 660 648 641 529 c 6
 634 490 l 6
 622 417 587 373 527 364 c 5
 591 347 599 266 587 190 c 6
 582 161 l 6
 563 40 479 -7 357 -7 c 4xb0
 243 -7 129 -10 46 21 c 5x70
EndSplineSet
Substitution2: "'onum' Oldstyle Figures in Latin lookup 5-1" three.tosf
Substitution2: "'lnum' Lining Figures lookup 19-1" three
EndChar

StartChar: four.tnum
Encoding: 406 -1 335
Width: 606
VWidth: 0
Flags: W
HStem: 2 21G<344 541.111> 712 20G<299.543 519>
LayerCount: 2
Fore
SplineSet
20 224 m 1
 311 732 l 1
 519 732 l 1
 296 315 l 1
 393 315 l 1
 415 449 l 1
 454 527 l 1
 621 527 l 1
 587 315 l 1
 647 315 l 1
 624 166 l 1
 559 137 l 1
 538 2 l 1
 344 2 l 1
 365 137 l 1
 40 137 l 1
 20 224 l 1
EndSplineSet
Substitution2: "'onum' Oldstyle Figures in Latin lookup 5-1" four.tosf
Substitution2: "'lnum' Lining Figures lookup 19-1" four
EndChar

StartChar: five.tnum
Encoding: 407 -1 336
Width: 606
VWidth: 0
Flags: W
HStem: -4 179<71 388.556> 20 155<71 224.708> 312 164<324.358 406.561> 558 174<343 617>
LayerCount: 2
Fore
SplineSet
46 20 m 5x70
 71 175 l 5
 335 175 l 6
 397 175 399 208 402 228 c 6
 407 259 l 6
 412 292 405 312 367 312 c 6
 323 312 l 6
 291 312 277 298 272 267 c 5
 86 267 l 5
 182 732 l 21
 645 732 l 5
 617 558 l 5
 343 558 l 29
 323 456 l 5
 352 472 379 475 392 476 c 4
 418 478 454 477 467 476 c 4
 582 466 618 376 604 270 c 6
 589 156 l 6
 567 19 454 -4 356 -4 c 7xb0
 232 -4 176 -3 46 20 c 5x70
EndSplineSet
Substitution2: "'onum' Oldstyle Figures in Latin lookup 5-1" five.tosf
Substitution2: "'lnum' Lining Figures lookup 19-1" five
EndChar

StartChar: six.tnum
Encoding: 408 -1 337
Width: 606
VWidth: 0
Flags: W
HStem: -1 174<275.75 399.535> 294 164<300.869 416.519> 564 148<519.848 629>
LayerCount: 2
Fore
SplineSet
95 404 m 4
 137 669 233 719 324 733 c 4
 427 749 562 732 652 712 c 5
 629 564 l 5
 410 564 l 6
 319 564 311 510 299 437 c 5
 339 456 371 458 455 458 c 5
 601 458 623 358 606 249 c 6
 591 148 l 6
 570 18 489 -1 373 -1 c 6
 235 -1 l 6
 113 -1 45 89 95 404 c 4
276 294 m 5
 259 188 272 173 337 173 c 6
 359 173 l 6
 392 173 403 182 409 219 c 6
 413 239 l 6
 420 282 420 294 383 294 c 6
 276 294 l 5
EndSplineSet
Substitution2: "'onum' Oldstyle Figures in Latin lookup 5-1" six.tosf
Substitution2: "'lnum' Lining Figures lookup 19-1" six
EndChar

StartChar: seven.tnum
Encoding: 409 -1 338
Width: 606
VWidth: 0
Flags: W
HStem: 0 21G<131 347.153> 558 174<154 417>
DStem2: 131 0 337 0 0.452659 0.891684<93.2478 627.02>
LayerCount: 2
Fore
SplineSet
126 558 m 5
 154 732 l 5
 635 732 l 5
 669 654 l 5
 337 0 l 5
 131 0 l 5
 417 558 l 5
 126 558 l 5
EndSplineSet
Substitution2: "'onum' Oldstyle Figures in Latin lookup 5-1" seven.tosf
Substitution2: "'lnum' Lining Figures lookup 19-1" seven
EndChar

StartChar: eight.tnum
Encoding: 410 -1 339
Width: 606
VWidth: 0
Flags: W
HStem: 0 164<263.935 401.589> 297 153<310.161 416.748> 573 164<325.985 460.656>
LayerCount: 2
Fore
SplineSet
66 199 m 6
 74 252 l 6
 82 302 110 340 167 349 c 5
 99 386 107 458 117 519 c 6
 127 584 l 6
 149 724 247 737 350 737 c 6
 506 737 l 6
 624 737 681 671 661 543 c 6
 654 499 l 6
 650 472 626 412 560 403 c 5
 627 390 620 284 613 241 c 6
 601 165 l 6
 575 2 485 0 388 0 c 6
 233 0 l 6
 43 0 56 135 66 199 c 6
265 210 m 6
 259 175 269 164 304 164 c 6
 356 164 l 6
 400 164 407 182 411 210 c 6
 417 250 l 6
 421 276 419 297 380 297 c 6
 326 297 l 6
 284 297 275 277 271 250 c 6
 265 210 l 6
310 494 m 6
 304 455 316 450 350 450 c 6
 402 450 l 6
 446 450 451 464 456 494 c 6
 460 524 l 6
 468 572 445 573 421 573 c 6
 369 573 l 6
 339 573 321 570 314 524 c 6
 310 494 l 6
EndSplineSet
Substitution2: "'onum' Oldstyle Figures in Latin lookup 5-1" eight.tosf
Substitution2: "'lnum' Lining Figures lookup 19-1" eight
EndChar

StartChar: nine.tnum
Encoding: 411 -1 340
Width: 606
VWidth: 0
Flags: W
HStem: 20 148<84 193.536> 274 164<297.208 413.13> 559 174<311.483 436.75>
LayerCount: 2
Fore
SplineSet
61 20 m 1
 84 168 l 1
 303 168 l 2
 394 168 403 222 415 295 c 1
 375 276 342 274 258 274 c 1
 112 274 92 384 109 493 c 2
 122 574 l 2
 142 704 222 733 338 733 c 2
 476 733 l 2
 604 733 667 623 617 308 c 0
 575 43 481 13 390 -1 c 0
 287 -17 151 0 61 20 c 1
301 493 m 2
 294 450 293 438 330 438 c 2
 437 438 l 1
 454 544 440 559 375 559 c 2
 354 559 l 2
 321 559 310 550 304 513 c 2
 301 493 l 2
EndSplineSet
Substitution2: "'onum' Oldstyle Figures in Latin lookup 5-1" nine.tosf
Substitution2: "'lnum' Lining Figures lookup 19-1" nine
EndChar

StartChar: zero.tosf
Encoding: 412 -1 341
Width: 606
VWidth: 0
Flags: W
HStem: 0 174<264.915 406.175> 458 174<304.062 444.006>
DStem2: 62 192 263 233 0.161709 0.986839<24.5072 293.681> 418 232 605 192 0.163109 0.986608<-57.224 219.237>
LayerCount: 2
Fore
SplineSet
62 192 m 10
 101 430 l 2
 122 560 182 632 307 632 c 2
 471 632 l 2
 636 632 662 540 646 440 c 18
 605 192 l 18
 586 73 529 0 409 0 c 2
 245 0 l 2
 115 0 42 72 62 192 c 10
263 233 m 2
 254 177 288 174 310 174 c 10
 352 174 l 18
 385 174 409 178 418 232 c 2
 445 400 l 2
 452 446 434 458 407 458 c 2
 350 458 l 2
 301 458 292 413 290 400 c 2
 263 233 l 2
EndSplineSet
Substitution2: "'lnum' Lining Figures lookup 19-1" zero
EndChar

StartChar: one.tosf
Encoding: 413 -1 342
Width: 606
VWidth: 0
Flags: W
HStem: 0 154<137 262 460 563>
DStem2: 262 154 460 154 0.12863 0.991693<25.4687 296.96>
LayerCount: 2
Fore
SplineSet
113 0 m 1
 137 154 l 1
 262 154 l 1
 304 448 l 1
 261 419 178 428 178 428 c 1
 197 551 l 1
 197 551 282 577 330 632 c 1
 522 632 l 1
 460 154 l 1
 587 154 l 1
 563 0 l 1
 113 0 l 1
EndSplineSet
Substitution2: "'lnum' Lining Figures lookup 19-1" one
EndChar

StartChar: two.tosf
Encoding: 414 -1 343
Width: 606
VWidth: 0
Flags: W
HStem: 0 174<451 563> 457 175<186.951 438.362> 457 145<144 271.375>
LayerCount: 2
Fore
SplineSet
38 0 m 25xc0
 65 168 l 17
 165 208 431 314 443 389 c 1
 453 450 425 457 344 457 c 2xc0
 121 457 l 2
 144 602 l 1xa0
 229 620 299 632 443 632 c 3
 599 632 663 529 641 389 c 1
 619 251 531 208 451 174 c 9
 591 174 l 25
 563 0 l 25
 38 0 l 25xc0
EndSplineSet
Substitution2: "'lnum' Lining Figures lookup 19-1" two
EndChar

StartChar: three.tosf
Encoding: 415 -1 344
Width: 606
VWidth: 0
Flags: W
HStem: -107 175<55.1356 369.885> -79 147<55 131.057> 186 158<160 260> 460 174<155.329 424.672>
LayerCount: 2
Fore
SplineSet
31 -79 m 1x70
 55 68 l 1x70
 273 68 l 2
 351 68 372 69 379 116 c 2
 380 126 l 2
 387 172 359 173 296 177 c 2
 134 186 l 2
 160 344 l 1
 324 352 l 2
 393 355 419 355 426 401 c 2
 427 409 l 2
 436 460 393 460 341 460 c 2
 110 460 l 1
 133 606 l 1
 226 637 349 636 466 634 c 0
 576 632 645 548 626 429 c 2
 619 390 l 2
 607 317 572 273 512 264 c 1
 576 247 584 166 572 90 c 2
 567 61 l 2
 548 -60 464 -107 342 -107 c 0xb0
 228 -107 114 -110 31 -79 c 1x70
EndSplineSet
Substitution2: "'lnum' Lining Figures lookup 19-1" three
EndChar

StartChar: four.tosf
Encoding: 416 -1 345
Width: 606
VWidth: 0
Flags: W
LayerCount: 2
Fore
SplineSet
22 124 m 5
 313 632 l 5
 521 632 l 5
 298 215 l 5
 395 215 l 5
 417 349 l 5
 456 427 l 5
 623 427 l 5
 589 215 l 5
 649 215 l 5
 626 66 l 5
 561 37 l 5
 540 -98 l 5
 346 -98 l 5
 367 37 l 5
 42 37 l 5
 22 124 l 5
EndSplineSet
Substitution2: "'lnum' Lining Figures lookup 19-1" four
EndChar

StartChar: five.tosf
Encoding: 417 -1 346
Width: 606
VWidth: 0
Flags: W
HStem: -104 179<55 372.556> -80 155<55 208.708> 212 164<308.358 390.561> 458 174<327 601>
LayerCount: 2
Fore
SplineSet
30 -80 m 1x70
 55 75 l 1
 319 75 l 2
 381 75 383 108 386 128 c 2
 391 159 l 2
 396 192 389 212 351 212 c 2
 307 212 l 2
 275 212 261 198 256 167 c 1
 70 167 l 1
 166 632 l 17
 629 632 l 1
 601 458 l 1
 327 458 l 25
 307 356 l 1
 336 372 363 375 376 376 c 0
 402 378 438 377 451 376 c 0
 566 366 602 276 588 170 c 2
 573 56 l 2
 551 -81 438 -104 340 -104 c 3xb0
 216 -104 160 -103 30 -80 c 1x70
EndSplineSet
Substitution2: "'lnum' Lining Figures lookup 19-1" five
EndChar

StartChar: six.tosf
Encoding: 418 -1 347
Width: 606
VWidth: 0
Flags: W
HStem: -1 174<275.75 399.535> 294 164<300.869 416.519> 564 148<519.848 629>
LayerCount: 2
Fore
SplineSet
95 404 m 0
 137 669 233 719 324 733 c 0
 427 749 562 732 652 712 c 1
 629 564 l 1
 410 564 l 2
 319 564 311 510 299 437 c 1
 339 456 371 458 455 458 c 1
 601 458 623 358 606 249 c 2
 591 148 l 2
 570 18 489 -1 373 -1 c 2
 235 -1 l 2
 113 -1 45 89 95 404 c 0
276 294 m 1
 259 188 272 173 337 173 c 2
 359 173 l 2
 392 173 403 182 409 219 c 2
 413 239 l 2
 420 282 420 294 383 294 c 2
 276 294 l 1
EndSplineSet
Substitution2: "'lnum' Lining Figures lookup 19-1" six
EndChar

StartChar: seven.tosf
Encoding: 419 -1 348
Width: 606
VWidth: 0
Flags: W
HStem: 458 174<138 401>
DStem2: 115 -100 321 -100 0.452659 0.891684<93.2478 627.02>
LayerCount: 2
Fore
SplineSet
110 458 m 1
 138 632 l 1
 619 632 l 1
 653 554 l 1
 321 -100 l 1
 115 -100 l 1
 401 458 l 1
 110 458 l 1
EndSplineSet
Substitution2: "'lnum' Lining Figures lookup 19-1" seven
EndChar

StartChar: eight.tosf
Encoding: 420 -1 349
Width: 606
VWidth: 0
Flags: W
HStem: 0 164<263.935 401.589> 297 153<310.161 416.748> 573 164<325.985 460.656>
LayerCount: 2
Fore
SplineSet
66 199 m 2
 74 252 l 2
 82 302 110 340 167 349 c 1
 99 386 107 458 117 519 c 2
 127 584 l 2
 149 724 247 737 350 737 c 2
 506 737 l 2
 624 737 681 671 661 543 c 2
 654 499 l 2
 650 472 626 412 560 403 c 1
 627 390 620 284 613 241 c 2
 601 165 l 2
 575 2 485 0 388 0 c 2
 233 0 l 2
 43 0 56 135 66 199 c 2
265 210 m 2
 259 175 269 164 304 164 c 2
 356 164 l 2
 400 164 407 182 411 210 c 2
 417 250 l 2
 421 276 419 297 380 297 c 2
 326 297 l 2
 284 297 275 277 271 250 c 2
 265 210 l 2
310 494 m 2
 304 455 316 450 350 450 c 2
 402 450 l 2
 446 450 451 464 456 494 c 2
 460 524 l 2
 468 572 445 573 421 573 c 2
 369 573 l 2
 339 573 321 570 314 524 c 2
 310 494 l 2
EndSplineSet
Substitution2: "'lnum' Lining Figures lookup 19-1" eight
EndChar

StartChar: nine.tosf
Encoding: 421 -1 350
Width: 606
VWidth: 0
Flags: W
HStem: -80 148<68 177.536> 174 164<281.208 397.13> 459 174<295.483 420.75>
LayerCount: 2
Fore
SplineSet
45 -80 m 1
 68 68 l 1
 287 68 l 2
 378 68 387 122 399 195 c 1
 359 176 326 174 242 174 c 1
 96 174 76 284 93 393 c 2
 106 474 l 2
 126 604 206 633 322 633 c 2
 460 633 l 2
 588 633 651 523 601 208 c 0
 559 -57 465 -87 374 -101 c 0
 271 -117 135 -100 45 -80 c 1
285 393 m 2
 278 350 277 338 314 338 c 2
 421 338 l 1
 438 444 424 459 359 459 c 2
 338 459 l 2
 305 459 294 450 288 413 c 2
 285 393 l 2
EndSplineSet
Substitution2: "'lnum' Lining Figures lookup 19-1" nine
EndChar

StartChar: partialdiff
Encoding: 422 8706 351
Width: 625
VWidth: 0
Flags: W
HStem: -5 171<269.078 363.914> 294 171<280.307 409.467> 566 174<294.694 431.813>
LayerCount: 2
Fore
SplineSet
67 247 m 1
 91 398 195 465 329 465 c 3
 380 465 437 450 448 408 c 1
 465 514 446 566 381 566 c 3
 303 566 221 538 180 515 c 1
 180 662 l 1
 254 706 327 740 412 740 c 3
 607 740 674 563 640 347 c 0
 603 114 509 -5 294 -5 c 7
 163 -5 42 89 67 247 c 1
260 230 m 0
 253 187 283 166 319 166 c 3
 379 166 405 248 410 278 c 1
 397 286 374 294 344 294 c 3
 290 294 266 267 260 230 c 0
EndSplineSet
Validated: 33
EndChar

StartChar: summation
Encoding: 423 8721 352
Width: 560
VWidth: 0
Flags: W
HStem: -200 177<273 517> 558 174<344 637>
LayerCount: 2
Fore
SplineSet
-9 -200 m 1
 19 -23 l 1
 279 270 l 1
 111 558 l 1
 139 732 l 1
 665 732 l 1
 637 558 l 9
 344 558 l 17
 517 270 l 9
 273 -23 l 29
 545 -23 l 17
 517 -200 l 1
 -9 -200 l 1
EndSplineSet
Validated: 1
EndChar

StartChar: product
Encoding: 424 8719 353
Width: 656
VWidth: 0
Flags: W
HStem: 0 21G<77 274.154 384 581.154> 558 174<127 165 359 472 666 733>
DStem2: 77 0 271 0 0.155781 0.987792<30.2215 564.896> 384 0 578 0 0.155781 0.987792<30.2215 564.896>
LayerCount: 2
Fore
SplineSet
77 0 m 1
 165 558 l 1
 99 558 l 1
 127 732 l 1
 761 732 l 1
 733 558 l 1
 666 558 l 1
 578 0 l 1
 384 0 l 1
 472 558 l 1
 359 558 l 1
 271 0 l 1
 77 0 l 1
EndSplineSet
Validated: 1
EndChar

StartChar: pi
Encoding: 425 960 354
Width: 649
VWidth: 0
Flags: W
HStem: -5 145<564.493 626.499> 357 174<95 133 327 394 588 647>
DStem2: 76 0 270 0 0.157667 0.987492<30.5874 361.522>
LayerCount: 2
Fore
SplineSet
67 357 m 1
 95 531 l 1
 675 531 l 1
 647 357 l 1
 588 357 l 1
 564 206 l 2
 555 147 573 140 623 140 c 2
 661 140 l 1
 643 26 l 1
 615 9 582 -5 510 -5 c 3
 403 -5 347 64 368 196 c 2
 394 357 l 1
 327 357 l 1
 270 0 l 1
 76 0 l 1
 133 357 l 1
 67 357 l 1
EndSplineSet
Validated: 33
EndChar

StartChar: integral
Encoding: 426 8747 355
Width: 444
VWidth: 0
Flags: W
HStem: -204 144<2 93.0681> 656 144<443.287 536> 656 119<480.411 536>
DStem2: 138 88 332 88 0.155963 0.987763<-123.953 583.062>
LayerCount: 2
Fore
SplineSet
-17 -179 m 1xc0
 2 -60 l 1
 42 -60 l 1
 112 -60 127 18 138 88 c 9
 204 506 l 18
 231 674 303 800 420 800 c 3xc0
 512 800 538 782 555 775 c 1xa0
 536 656 l 1
 498 656 l 1
 429 656 412 593 398 506 c 1
 332 88 l 2
 303 -98 240 -204 120 -204 c 3
 47 -204 2 -193 -17 -179 c 1xc0
EndSplineSet
Validated: 1
EndChar

StartChar: Omega
Encoding: 427 937 356
Width: 751
VWidth: 0
Flags: W
HStem: 0 157<67 127.455 679.1 715> 565 174<381.207 537.769>
LayerCount: 2
Fore
SplineSet
42 0 m 1
 67 158 l 1
 162 168 l 1
 105 212 83 326 101 438 c 0
 125 592 221 739 483 739 c 7
 731 739 801 575 772 393 c 0
 753 276 710 226 653 167 c 1
 740 157 l 1
 715 0 l 1
 447 0 l 1
 474 168 l 1
 539 224 563 296 577 385 c 0
 587 450 585 565 465 565 c 3
 335 565 301 450 290 380 c 0
 276 293 277 230 329 168 c 1
 302 0 l 1
 42 0 l 1
EndSplineSet
Validated: 33
EndChar

StartChar: radical
Encoding: 428 8730 357
Width: 685
VWidth: 0
Flags: W
HStem: 0 21G<159.039 370.025>
DStem2: 289 263 359 0 0.482759 0.875753<0 614.142>
LayerCount: 2
Fore
SplineSet
43 204 m 1
 71 378 l 1
 261 378 l 1
 289 263 l 1
 587 800 l 1
 800 800 l 1
 359 0 l 1
 166 0 l 1
 95 204 l 1
 43 204 l 1
EndSplineSet
Validated: 1
EndChar

StartChar: florin
Encoding: 429 402 358
Width: 595
VWidth: 0
Flags: W
HStem: -204 144<21 115.419> 357 134<234 266 502 555>
DStem2: 181 88 375 88 0.301131 0.953583<-122.97 282.11 480.957 625.24>
LayerCount: 2
Fore
SplineSet
-17 -179 m 1
 21 -60 l 1
 61 -60 l 2
 131 -60 159 18 181 88 c 2
 266 357 l 1
 192 357 l 1
 234 491 l 1
 308 491 l 1
 313 506 l 2
 359 653 438 790 555 800 c 4
 646 808 690 782 706 775 c 1
 669 656 l 1
 631 656 l 2
 562 656 535 593 507 506 c 2
 502 491 l 1
 597 491 l 1
 555 357 l 1
 460 357 l 1
 375 88 l 2
 327 -64 245 -192 126 -204 c 0
 52 -211 0 -193 -17 -179 c 1
EndSplineSet
Validated: 33
EndChar

StartChar: approxequal
Encoding: 430 8776 359
Width: 492
VWidth: 0
Flags: W
HStem: 187 115<292.615 433.668> 225 114<143.464 291.571> 371 115<321.818 462.045> 409 114<172.464 320.775>
LayerCount: 2
Fore
SplineSet
70 268 m 17x80
 108 300 164 339 228 339 c 27x40
 288 339 311 302 371 302 c 27
 418 302 447 314 491 341 c 9
 505 262 l 17
 464 223 413 187 351 187 c 3x80
 306 187 268 225 208 225 c 27x40
 157 225 128 202 78 187 c 25
 70 268 l 17x80
99 452 m 17
 137 484 193 523 257 523 c 27x10
 317 523 341 486 401 486 c 27
 448 486 476 498 520 525 c 9
 534 446 l 17
 493 407 442 371 380 371 c 3x20
 335 371 297 409 237 409 c 27x10
 186 409 157 386 107 371 c 25x20
 99 452 l 17
EndSplineSet
Validated: 1
EndChar

StartChar: uni2206
Encoding: 431 8710 360
Width: 706
VWidth: 0
Flags: W
HStem: 0 164<293 515> 712 20G<426.333 517>
DStem2: 11 0 293 164 0.503871 0.863779<283.751 590.465> 512 732 444 431 0.242536 -0.970142<275.52 551.769>
LayerCount: 2
Fore
SplineSet
11 0 m 1
 438 732 l 1
 512 732 l 1
 695 0 l 1
 11 0 l 1
293 164 m 1
 515 164 l 5
 444 431 l 1
 293 164 l 1
EndSplineSet
Validated: 1
EndChar

StartChar: lozenge
Encoding: 432 9674 361
Width: 504
VWidth: 0
Flags: W
HStem: 0 21G<210.064 305.941> 712 20G<319.292 416.022>
LayerCount: 2
Fore
SplineSet
70 373 m 1
 334 732 l 1
 408 732 l 1
 552 373 l 1
 292 0 l 1
 218 0 l 1
 70 373 l 1
240 366 m 1
 285 241 l 1
 387 380 l 1
 339 494 l 1
 240 366 l 1
EndSplineSet
Validated: 1
EndChar

StartChar: onequarter
Encoding: 188 188 362
Width: 1021
VWidth: 0
Flags: W
HStem: 0 21G<208 361.675 830 972.279>
DStem2: 140 255 286 255 0.156171 0.98773<22.8009 349.512> 208 0 349 0 0.535313 0.844654<75.4791 911.616> 597 144 796 213 0.495318 0.868712<158.509 393.686>
LayerCount: 2
Fore
SplineSet
105 587 m 1
 120 687 l 1
 120 687 187 705 219 742 c 9
 363 742 l 1
 286 255 l 1
 140 255 l 1
 196 600 l 1
 168 578 105 587 105 587 c 1
208 0 m 1
 696 770 l 1
 837 770 l 1
 349 0 l 1
 208 0 l 1
597 144 m 1
 792 486 l 1
 945 486 l 1
 796 213 l 1
 863 213 l 1
 877 300 l 1
 906 351 l 1
 1025 351 l 1
 1003 213 l 1
 1043 213 l 1
 1025 101 l 1
 979 80 l 1
 970 1 l 1
 830 1 l 1
 842 79 l 1
 620 79 l 1
 597 144 l 1
EndSplineSet
Validated: 33
Ligature2: "'frac' Diagonal Fractions lookup 11 subtable" one slash four
Ligature2: "'frac' Diagonal Fractions lookup 11 subtable" one fraction four
LCarets2: 2 0 0 
EndChar

StartChar: brokenbar
Encoding: 166 166 363
Width: 250
VWidth: 0
Flags: W
VStem: 36 287
DStem2: 36 -72 190 -72 0.156023 0.987753<24.0275 332.096 531.218 852.439>
LayerCount: 2
Fore
SplineSet
36 -72 m 1
 88 256 l 1
 242 256 l 1
 190 -72 l 1
 36 -72 l 1
115 429 m 1
 169 770 l 1
 323 770 l 1
 269 429 l 1
 115 429 l 1
EndSplineSet
Validated: 1
EndChar

StartChar: currency
Encoding: 164 164 364
Width: 436
VWidth: 0
Flags: W
HStem: 151 95<215.032 309.991> 373 95<229.254 322.429>
DStem2: 119 233 165 175 0.760864 0.648911<-75.5204 4.96061 320.262 400.892>
LayerCount: 2
Fore
SplineSet
61 182 m 1
 119 233 l 1
 111 256 107 281 111 309 c 0
 115 335 126 360 140 381 c 1
 96 429 l 1
 160 488 l 1
 202 441 l 1
 230 458 262 468 294 468 c 0
 324 468 350 459 372 444 c 1
 425 492 l 1
 478 439 l 1
 419 387 l 1
 428 364 431 337 427 309 c 0
 421 274 405 242 382 216 c 1
 421 173 l 1
 359 112 l 1
 311 165 l 1
 290 156 267 151 244 151 c 0
 214 151 187 160 165 175 c 1
 111 126 l 1
 61 182 l 1
206 309 m 0
 200 274 224 246 259 246 c 0
 294 246 326 274 332 309 c 0
 338 344 314 373 279 373 c 0
 244 373 212 344 206 309 c 0
EndSplineSet
Validated: 33
EndChar

StartChar: onehalf
Encoding: 189 189 365
Width: 1040
VWidth: 0
Flags: W
HStem: -1 131<923 1019> 362 131<725.759 924.157> 362 109<723 921.773>
DStem2: 140 255 286 255 0.156171 0.98773<22.8009 349.512> 207 0 348 0 0.535313 0.844654<75.4791 911.616>
LayerCount: 2
Fore
SplineSet
105 587 m 1x80
 120 687 l 1
 120 687 187 705 219 742 c 9
 363 742 l 1
 286 255 l 1
 140 255 l 1
 196 600 l 1
 168 578 105 587 105 587 c 1x80
207 0 m 1
 695 770 l 1
 836 770 l 1
 348 0 l 1
 207 0 l 1
652 -1 m 29
 672 125 l 21
 731 157 917 278 924 322 c 5
 930 358 908 362 854 362 c 6xc0
 706 362 l 6
 723 471 l 5xa0
 782 484 831 493 931 493 c 7xc0
 1040 493 1086 414 1072 325 c 4
 1058 237 975 166 923 130 c 13
 1040 130 l 29
 1019 -1 l 29
 652 -1 l 29
EndSplineSet
Validated: 33
Ligature2: "'frac' Diagonal Fractions lookup 11 subtable" one slash two
Ligature2: "'frac' Diagonal Fractions lookup 11 subtable" one fraction two
LCarets2: 2 0 0 
EndChar

StartChar: threequarters
Encoding: 190 190 366
Width: 1130
VWidth: 0
Flags: W
HStem: 0 21G<310 463.675 922 1064.28> 250 131<81 295.617> 271 110<81 276.25> 439 119<149 296.444> 613 131<133.062 326.373>
DStem2: 310 0 451 0 0.535313 0.844654<75.4791 911.616> 689 144 888 213 0.497231 0.867618<158.815 394.183>
LayerCount: 2
Fore
SplineSet
63 271 m 1xb8
 81 381 l 1
 227 381 l 2
 279 381 293 382 296 405 c 2
 297 410 l 2
 300 432 282 433 239 435 c 2
 131 439 l 2
 149 558 l 1
 260 562 l 2
 306 564 323 563 326 585 c 2
 326 589 l 2
 331 613 303 613 268 613 c 2
 113 613 l 1
 130 722 l 1
 195 745 281 746 363 744 c 0
 440 743 488 687 475 608 c 2
 471 582 l 2
 463 533 438 504 393 498 c 1
 441 486 448 433 440 382 c 2
 436 362 l 2
 423 281 365 250 280 250 c 0xd8
 200 250 120 248 63 271 c 1xb8
310 0 m 1
 798 770 l 1
 939 770 l 1
 451 0 l 1
 310 0 l 1
689 144 m 1
 885 486 l 1
 1038 486 l 1
 888 213 l 1
 955 213 l 1
 969 300 l 1
 998 351 l 1
 1117 351 l 1
 1095 213 l 1
 1135 213 l 1
 1118 101 l 1
 1071 80 l 1
 1062 1 l 1
 922 1 l 1
 934 79 l 1
 712 79 l 1
 689 144 l 1
EndSplineSet
Validated: 33
Ligature2: "'frac' Diagonal Fractions lookup 11 subtable" three slash four
Ligature2: "'frac' Diagonal Fractions lookup 11 subtable" three fraction four
LCarets2: 2 0 0 
EndChar

StartChar: Hbar
Encoding: 435 294 369
Width: 680
VWidth: 0
Flags: W
HStem: 0 21G<46 243.146 410 607.178> 267 174<310 452> 516 74<74 128 333 492 697 751> 712 20G<158.761 356 522.761 720>
DStem2: 46 0 240 0 0.156517 0.987675<30.3643 300.647 476.885 522.475 627.649 741.134> 410 0 604 0 0.156517 0.987675<30.3643 270.283 446.521 522.475 627.649 741.134>
LayerCount: 2
Fore
SplineSet
46 0 m 1
 128 516 l 1
 63 516 l 1
 74 590 l 1
 139 590 l 1
 162 732 l 1
 356 732 l 1
 333 590 l 1
 503 590 l 1
 526 732 l 1
 720 732 l 1
 697 590 l 1
 762 590 l 1
 751 516 l 1
 686 516 l 1
 604 0 l 1
 410 0 l 1
 452 267 l 1
 282 267 l 1
 240 0 l 1
 46 0 l 1
310 441 m 1
 480 441 l 1
 492 516 l 1
 322 516 l 1
 310 441 l 1
EndSplineSet
Validated: 1
Substitution2: "'c2sc' Capitals to Small Capitals in Latin lookup 17 subtable" hbar.smcp
EndChar

StartChar: hbar
Encoding: 440 295 374
Width: 581
VWidth: 0
Flags: W
HStem: 0 21G<60 257.175 360 557.176> 396 144<371.5 555> 600 74<107 155 360 443> 762 20G<180.852 377>
DStem2: 60 0 254 0 0.156611 0.98766<30.3826 423.203 515.218 607.474 712.666 791.77> 360 0 554 0 0.155078 0.987902<30.0851 395.281>
LayerCount: 2
Fore
SplineSet
60 0 m 1
 155 600 l 1
 95 600 l 1
 107 674 l 1
 167 674 l 1
 184 782 l 1
 377 782 l 1
 360 674 l 1
 455 674 l 1
 443 600 l 1
 348 600 l 1
 329 479 l 1
 379 508 405 540 486 540 c 0
 624 540 626 452 608 340 c 2
 554 0 l 1
 360 0 l 1
 414 344 l 2
 421 386 412 396 390 396 c 0
 353 396 327 386 311 359 c 1
 254 0 l 1
 60 0 l 1
EndSplineSet
Validated: 33
Substitution2: "'smcp' Lowercase to Small Capitals lookup 16-1" hbar.smcp
EndChar

StartChar: jcircumflex
Encoding: 442 309 376
Width: 265
VWidth: 0
Flags: W
HStem: 511 20G<123.829 321>
DStem2: 0 -270 236 -4 0.156596 0.987663<81.7581 811.006>
LayerCount: 2
Fore
SplineSet
0 -270 m 1
 127 531 l 1
 321 531 l 1
 236 -4 l 2
 223 -90 205 -192 148 -270 c 1
 0 -270 l 1
67 594 m 1
 189 734 l 1
 320 734 l 1
 389 594 l 1
 278 594 l 1
 236 645 l 1
 179 594 l 1
 67 594 l 1
189 734 m 1
320 734 m 1
EndSplineSet
Validated: 1
Substitution2: "'smcp' Lowercase to Small Capitals lookup 16-1" jcircumflex.smcp
EndChar

StartChar: f_f
Encoding: 457 64256 391
Width: 806
VWidth: 0
Flags: W
HStem: 0 21G<107 304.174 482 679.174> 397 134<387 545 760 837> 641 135<406.701 512.91> 652 134<779.896 898>
DStem2: 107 0 301 0 0.159232 0.987241<30.8911 401.966 568.81 677.598> 482 0 676 0 0.156768 0.987636<30.4129 401.968 568.016 689.857>
LayerCount: 2
Fore
SplineSet
73 397 m 1xd0
 92 514 l 1
 193 531 l 1
 207 620 l 2
 218 692 275 776 395 776 c 4
 444 776 496 770 531 752 c 1
 513 640 l 1
 512 640 451 641 451 641 c 2xe0
 406 642 401 615 393 567 c 2
 387 531 l 1
 566 531 l 1
 582 630 l 2
 601 751 671 786 791 786 c 0
 840 786 880 782 916 762 c 1
 898 651 l 1
 897 651 825 652 825 652 c 2
 775 653 776 632 766 570 c 2
 760 531 l 1
 858 531 l 1
 837 397 l 1
 739 397 l 9
 676 0 l 17
 482 0 l 1
 545 397 l 1
 364 397 l 1
 301 0 l 1
 107 0 l 1
 170 397 l 1
 73 397 l 1xd0
EndSplineSet
Validated: 33
Ligature2: "'dlig' Discretionary Ligatures lookup 14-1" f f
LCarets2: 1 0 
EndChar

StartChar: f_f_i
Encoding: 458 64259 392
Width: 1036
VWidth: 0
Flags: W
HStem: 0 21G<107 305.174 473 670.174 809 1006.15> 397 134<386 536 751 872> 641 135<407.345 512.91> 652 134<803.952 1079>
DStem2: 107 0 302 0 0.159232 0.987241<31.0503 401.966 568.651 677.598> 473 0 667 0 0.155238 0.987877<30.1161 401.967 567.719 659.68> 809 0 1003 0 0.155476 0.98784<30.1623 401.967>
LayerCount: 2
Fore
SplineSet
73 397 m 1xd0
 92 514 l 1
 193 531 l 1
 207 620 l 2
 218 692 275 776 395 776 c 0
 444 776 496 770 531 752 c 1
 513 640 l 1
 512 640 451 641 451 641 c 2xe0
 406 642 403 615 392 567 c 2
 386 531 l 1
 557 531 l 1
 561 560 l 2
 580 681 684 782 831 786 c 0
 880 787 1060 782 1096 762 c 1
 1079 651 l 1
 1078 651 886 652 886 652 c 2
 836 652 769 642 754 550 c 2
 751 531 l 1
 1085 521 l 1
 1003 0 l 1
 809 0 l 1
 872 397 l 1
 730 397 l 1
 667 0 l 1
 473 0 l 1
 536 397 l 1
 365 397 l 1
 302 0 l 1
 107 0 l 1
 170 397 l 1
 73 397 l 1xd0
EndSplineSet
Validated: 33
Ligature2: "'dlig' Discretionary Ligatures lookup 14-1" f f i
LCarets2: 2 0 0 
EndChar

StartChar: ffl
Encoding: 459 64260 393
Width: 1119
VWidth: 0
Flags: W
HStem: 0 21G<107 305.174 477 674.174 953.5 1112.19> 397 134<386 540 756 832> 641 135<406.551 512.91> 652 134<787.11 933>
DStem2: 107 0 302 0 0.159232 0.987241<31.0503 401.966 568.651 677.598> 477 0 671 0 0.157653 0.987495<30.5846 401.967 568.345 681.244> 859 189 1060 229 0.155138 0.987893<-6.61191 467.887>
LayerCount: 2
Fore
SplineSet
73 397 m 1xd0
 92 514 l 1
 193 531 l 1
 207 620 l 2
 218 692 275 776 395 776 c 0
 444 776 496 770 531 752 c 1
 513 640 l 1
 512 640 451 641 451 641 c 2xe0
 406 642 401 615 392 567 c 2
 386 531 l 1
 562 531 l 1
 568 570 l 2
 597 755 706 786 826 786 c 2
 1147 783 l 1
 1060 229 l 2
 1049 160 1062 146 1082 134 c 1
 1082 134 1120 113 1127 113 c 1
 1109 0 l 1
 1001 0 l 2
 906 0 837 48 859 189 c 2
 933 651 l 1
 888 651 841 652 841 652 c 2
 791 652 772 632 762 570 c 2
 756 531 l 1
 854 531 l 1
 832 397 l 1
 734 397 l 1
 671 0 l 1
 477 0 l 1
 540 397 l 1
 365 397 l 1
 302 0 l 1
 107 0 l 1
 170 397 l 1
 73 397 l 1xd0
EndSplineSet
Validated: 33
Ligature2: "'dlig' Discretionary Ligatures lookup 14-1" f f l
LCarets2: 2 0 0 
EndChar

StartChar: c_t
Encoding: 460 -1 394
Width: 852
VWidth: 0
Flags: W
HStem: -7 144<174.478 421.203> 397 134<296.616 623 838 906>
DStem2: 590 189 790 229 0.15585 0.987781<-13.0745 210.601 376.472 419.279>
LayerCount: 2
Fore
SplineSet
63 291 m 0
 100 523 189 533 291 533 c 0
 644 531 l 1
 695 679 l 1
 861 679 l 1
 838 531 l 1
 927 531 l 1
 906 397 l 1
 817 397 l 1
 790 229 l 2
 779 158 791 144 811 132 c 2
 811 132 850 111 857 111 c 1
 839 -2 l 1
 719 -2 l 2
 639 -2 568 48 590 189 c 2
 623 397 l 1
 379 396 l 3
 319 396 280 409 256 257 c 0
 236 129 258 137 330 137 c 3
 422 137 488 145 488 145 c 1
 470 31 l 17
 388 0 328 -7 198 -7 c 0
 96 -7 26 58 63 291 c 0
EndSplineSet
Validated: 33
Ligature2: "'dlig' Discretionary Ligatures lookup 14-1" c t
LCarets2: 1 0 
EndChar

StartChar: s_t
Encoding: 461 64262 395
Width: 889
VWidth: 0
Flags: W
HStem: -5 151<73.4728 321> 386 145<273.344 655> 397 134<872 939>
LayerCount: 2
Fore
SplineSet
49 32 m 9xc0
 67 146 l 17
 298 146 l 18
 315 146 318 153 320 163 c 2
 321 168 l 2
 323 180 320 186 304 186 c 10
 209 186 l 2
 115 186 62 255 78 358 c 10
 83 404 l 18
 91 487 151 531 254 531 c 9
 678 531 l 17
 729 679 l 1
 895 679 l 1
 872 531 l 1
 961 531 l 1
 939 397 l 1
 850 397 l 1xa0
 824 229 l 2
 813 158 825 144 845 132 c 2
 845 132 883 111 890 111 c 1
 872 -2 l 1
 752 -2 l 2
 672 -2 601 48 623 189 c 2
 655 386 l 9
 299 386 l 17
 286 386 277 386 274 368 c 10
 273 362 l 18
 270 346 281 346 293 346 c 2
 393 346 l 2
 506 346 530 261 517 182 c 5
 511 123 l 2
 499 13 421 -5 357 -5 c 3
 264 -5 79 -9 49 32 c 9xc0
EndSplineSet
Validated: 33
Ligature2: "'dlig' Discretionary Ligatures lookup 14-1" s t
LCarets2: 1 0 
EndChar

StartChar: t_t
Encoding: 462 -1 396
Width: 770
VWidth: 0
Flags: W
HStem: -1 113<336.068 365 726.069 755> 398 134<364 539 754 822>
DStem2: 506 190 707 230 0.15585 0.987781<-13.0745 210.601 376.472 416.804>
LayerCount: 2
Fore
SplineSet
74 398 m 1
 89 494 l 1
 170 532 l 1
 222 680 l 1
 388 680 l 1
 364 532 l 1
 560 532 l 1
 612 680 l 1
 778 680 l 1
 754 532 l 1
 843 532 l 1
 822 398 l 1
 733 398 l 1
 707 230 l 2
 696 159 707 145 727 133 c 1
 727 133 766 112 773 112 c 1
 755 -1 l 1
 635 -1 l 2
 555 -1 484 49 506 190 c 2
 539 398 l 1
 343 398 l 1
 316 230 l 2
 305 159 317 145 337 133 c 1
 337 133 376 112 383 112 c 1
 365 -1 l 1
 245 -1 l 2
 165 -1 94 49 116 190 c 2
 149 398 l 1
 74 398 l 1
EndSplineSet
Validated: 33
Ligature2: "'dlig' Discretionary Ligatures lookup 14-1" t t
LCarets2: 1 0 
EndChar

StartChar: f_t
Encoding: 463 -1 397
Width: 754
VWidth: 0
Flags: W
HStem: 0 20G<82 279.166 581 744.009> 398 134<360 525 740 808> 652 134<379.897 498>
DStem2: 82 0 276 0 0.156768 0.987636<30.4129 401.968 569.003 689.857> 492 190 692 230 0.15585 0.987781<-13.0745 210.601 376.472 419.279>
LayerCount: 2
Fore
SplineSet
73 397 m 1
 92 514 l 1
 166 531 l 1
 182 630 l 2
 201 751 271 786 391 786 c 0
 440 786 480 782 516 762 c 1
 498 651 l 1
 497 651 425 652 425 652 c 2
 375 653 376 632 366 570 c 2
 360 532 l 1
 546 532 l 1
 597 680 l 1
 763 680 l 1
 740 532 l 1
 829 532 l 1
 808 398 l 1
 719 398 l 1
 692 230 l 2
 681 159 693 145 713 133 c 1
 713 133 751 112 758 112 c 1
 741 -1 l 1
 621 -1 l 6
 541 -1 470 49 492 190 c 2
 525 398 l 1
 339 398 l 1
 276 0 l 1
 82 0 l 1
 145 397 l 1
 73 397 l 1
EndSplineSet
Validated: 33
Ligature2: "'dlig' Discretionary Ligatures lookup 14-1" f t
LCarets2: 1 0 
EndChar

StartChar: t_y
Encoding: 464 -1 398
Width: 954
VWidth: 0
Flags: W
HStem: -1 21G<205 368.186> 398 134<364 472.739>
VStem: 839 186<407.807 532>
DStem2: 727 156 859 0 0.372378 0.928081<-4.15173 338.45>
LayerCount: 2
Fore
SplineSet
74 398 m 1
 89 494 l 1
 170 532 l 1
 222 680 l 1
 388 680 l 1
 364 532 l 1
 500 532 l 1
 620 532 678 478 680 391 c 2
 684 195 l 2
 685 164 706 157 727 156 c 1
 813 394 l 2
 823 422 834 466 839 532 c 9
 1025 532 l 17
 1038 455 1010 374 989 324 c 9
 859 0 l 2
 734 -292 548 -296 492 -304 c 1
 492 -168 l 1
 588 -124 632 -74 669 0 c 1
 547 0 506 66 500 156 c 2
 490 315 l 2
 486 383 464 398 404 398 c 1
 343 398 l 1
 316 230 l 2
 305 159 317 145 337 133 c 2
 337 133 376 112 383 112 c 1
 365 -1 l 1
 245 -1 l 2
 165 -1 94 49 116 190 c 2
 149 398 l 1
 74 398 l 1
EndSplineSet
Validated: 33
Ligature2: "'dlig' Discretionary Ligatures lookup 14-1" t y
LCarets2: 1 0 
EndChar

StartChar: f_y
Encoding: 465 -1 399
Width: 963
VWidth: 0
Flags: W
HStem: 0 21G<82 279.174> 397 134<360 487.75> 652 134<379.897 498>
VStem: 848 186<407.807 532>
DStem2: 82 0 276 0 0.156768 0.987636<30.4129 401.968 568.016 689.857> 736 156 868 0 0.372378 0.928081<-2.29074 338.45>
LayerCount: 2
Fore
SplineSet
73 397 m 1
 92 514 l 1
 166 531 l 1
 182 630 l 2
 201 751 271 786 391 786 c 0
 440 786 480 782 516 762 c 1
 498 651 l 1
 497 651 425 652 425 652 c 2
 375 653 376 632 366 570 c 2
 360 531 l 1
 509 531 l 1
 634 532 692 478 694 391 c 2
 699 195 l 2
 700 164 720 157 736 156 c 1
 822 394 l 2
 832 422 843 466 848 532 c 9
 1034 532 l 17
 1047 455 1019 374 998 324 c 9
 868 0 l 2
 743 -292 557 -296 501 -304 c 1
 501 -168 l 1
 597 -124 642 -74 679 0 c 1
 563 0 520 66 514 156 c 2
 504 315 l 2
 500 383 478 398 417 397 c 1
 339 397 l 9
 276 0 l 17
 82 0 l 1
 145 397 l 1
 73 397 l 1
EndSplineSet
Validated: 33
Ligature2: "'dlig' Discretionary Ligatures lookup 14-1" f y
LCarets2: 1 0 
EndChar

StartChar: kgreenlandic
Encoding: 466 312 400
Width: 601
VWidth: 0
Flags: W
HStem: 0 21G<34 232.163 357.347 576> 511 20G<114.836 313 439.075 674>
DStem2: 34 0 229 0 0.156249 0.987718<30.4686 228.905 364.54 537.603>
LayerCount: 2
Fore
SplineSet
34 0 m 1
 118 531 l 1
 313 531 l 1
 281 330 l 1
 304 330 l 1
 454 531 l 1
 674 531 l 1
 470 246 l 5
 576 0 l 1
 365 0 l 1
 290 196 l 1
 260 196 l 9
 229 0 l 17
 34 0 l 1
EndSplineSet
Validated: 1
EndChar

StartChar: Tbar
Encoding: 472 358 406
Width: 617
VWidth: 0
Flags: W
HStem: 0 21G<204 401.143> 350 74<191 259 465 533> 558 174<136 292 486 676>
DStem2: 204 0 398 0 0.155781 0.987792<30.2215 354.295 459.482 564.896>
LayerCount: 2
Fore
SplineSet
108 558 m 1
 136 732 l 1
 704 732 l 1
 676 558 l 1
 486 558 l 1
 465 424 l 1
 545 424 l 1
 533 350 l 1
 453 350 l 1
 398 0 l 1
 204 0 l 1
 259 350 l 1
 179 350 l 1
 191 424 l 1
 271 424 l 1
 292 558 l 1
 108 558 l 1
EndSplineSet
Validated: 1
Substitution2: "'c2sc' Capitals to Small Capitals in Latin lookup 17 subtable" tbar.smcp
EndChar

StartChar: gcommaaccent
Encoding: 477 291 411
Width: 653
VWidth: 0
Flags: W
HStem: 6 140<177.5 338.117> 409 134<321.662 411.052> 779 56<464.98 496>
DStem2: 346 -24 538 -54 0.156686 0.987648<-71.5086 68.8836 172.317 438.463>
LayerCount: 2
Fore
SplineSet
28 -248 m 1
 48 -119 l 1
 246 -119 l 2
 299 -119 336 -88 346 -24 c 2
 357 44 l 1
 331 16 299 6 254 6 c 3
 101 6 65 121 95 313 c 0
 125 502 214 543 339 543 c 3
 445 543 576 529 627 507 c 1
 538 -54 l 2
 515 -200 440 -292 252 -272 c 2
 28 -248 l 1
290 291 m 0
 272 179 272 146 324 146 c 3
 344 146 362 150 376 165 c 1
 415 409 l 2
 368 409 l 2
 310 409 300 351 290 291 c 0
333 631 m 2
 354 766 l 2
 372 878 505 835 505 835 c 1
 496 779 l 0
 469 780 466 769 465 760 c 2
 464 756 l 1
 474 756 l 2
 487 756 495 749 493 734 c 2
 477 631 l 2
 474 615 464 607 450 607 c 2
 350 607 l 2
 334 607 331 617 333 631 c 2
EndSplineSet
Validated: 33
AlternateSubs2: "'salt' Access All Alternates in Latin lookup 4-1" gcommaaccent.salt
Substitution2: "'smcp' Lowercase to Small Capitals lookup 16-1" gcommaaccent.smcp
EndChar

StartChar: gcommaaccent.salt
Encoding: 478 -1 412
Width: 518
VWidth: 0
Flags: W
HStem: -270 147<203.842 298.815> 148 135<272.779 345.079> 399 134<284.302 358.699> 769 56<418.274 450>
LayerCount: 2
Fore
SplineSet
10 -96 m 0
 51 114 l 0
 56 150 78 200 128 200 c 1
 66 236 75 321 83 374 c 0
 106 520 208 535 302 533 c 2
 397 531 l 2
 465 530 578 496 548 314 c 0
 536 237 474 148 332 148 c 2
 285 148 l 2
 269 148 245 153 240 136 c 0
 235 118 258 117 278 113 c 2
 384 91 l 2
 451 75 522 36 505 -73 c 2
 496 -126 l 2
 482 -215 439 -270 292 -270 c 2
 183 -270 l 2
 25 -270 -9 -192 10 -96 c 0
206 -86 m 2
 202 -110 199 -123 235 -123 c 2
 275 -123 l 2
 299 -123 303 -114 306 -96 c 2
 307 -85 l 2
 311 -57 307 -55 282 -50 c 2
 214 -39 l 1
 206 -86 l 2
277 344 m 0
 269 295 267 283 303 283 c 2
 314 283 l 2
 345 283 349 310 354 344 c 0
 363 399 362 399 332 399 c 2
 321 399 l 2
 291 399 286 396 277 344 c 0
287 621 m 2
 308 756 l 2
 326 868 458 825 458 825 c 1
 450 769 l 0
 423 770 420 759 419 750 c 2
 418 746 l 1
 428 746 l 2
 441 746 449 739 447 724 c 2
 431 621 l 2
 428 605 418 597 404 597 c 2
 304 597 l 2
 288 597 285 607 287 621 c 2
EndSplineSet
Validated: 33
EndChar

StartChar: tbar
Encoding: 479 359 413
Width: 375
VWidth: 0
Flags: W
HStem: -1 21G<195 358.186> 248 74<65 115 321 373> 398 134<354 422>
LayerCount: 2
Fore
SplineSet
53 248 m 1
 65 322 l 1
 127 322 l 1
 139 398 l 1
 64 398 l 1
 79 494 l 1
 160 532 l 1
 211 680 l 1
 377 680 l 1
 354 532 l 1
 443 532 l 1
 422 398 l 1
 333 398 l 1
 321 322 l 1
 385 322 l 1
 373 248 l 1
 309 248 l 1
 306 230 l 2
 295 159 307 145 327 133 c 1
 327 133 366 112 373 112 c 1
 355 -1 l 1
 235 -1 l 2
 155 -1 84 49 106 190 c 2
 115 248 l 1
 53 248 l 1
EndSplineSet
Validated: 33
AlternateSubs2: "'salt' Access All Alternates in Latin lookup 4-1" tbar.salt
Substitution2: "'smcp' Lowercase to Small Capitals lookup 16-1" tbar.smcp
EndChar

StartChar: Eng
Encoding: 480 330 414
Width: 677
VWidth: 0
Flags: W
HStem: -257 137<341 419.762> 0 21G<45 243.187> 712 20G<157.831 365.021 562.845 760>
DStem2: 45 0 240 0 0.156517 0.987675<30.5208 399.113> 440 -60 634 -64 0.156345 0.987703<-47.1334 60.8256 423.335 801.96>
LayerCount: 2
Fore
SplineSet
45 0 m 1
 161 732 l 1
 357 732 l 1
 507 358 l 1
 566 732 l 1
 760 732 l 1
 644 0 l 0
 634 -64 l 1
 603 -257 437 -270 319 -257 c 1
 341 -120 l 1
 392 -119 431 -118 440 -60 c 1
 450 0 l 1
 298 364 l 1
 240 0 l 1
 45 0 l 1
EndSplineSet
Validated: 33
Substitution2: "'c2sc' Capitals to Small Capitals in Latin lookup 17 subtable" eng.smcp
EndChar

StartChar: eng
Encoding: 481 331 415
Width: 561
VWidth: 0
Flags: W
HStem: 0 21G<34 231.175> 396 144<345.5 529> 511 20G<114.836 289.231>
DStem2: 34 0 228 0 0.156249 0.987718<30.3123 423.125> 325 -54 519 -50 0.156345 0.987703<-67.9247 450.271>
LayerCount: 2
Fore
SplineSet
34 0 m 1xc0
 118 531 l 1
 280 531 l 1xa0
 304 479 l 1
 354 508 379 540 460 540 c 3
 598 540 600 452 582 340 c 2
 528 0 l 1
 519 -50 l 1
 491 -227 326 -270 262 -268 c 1
 239 -160 l 1
 296 -145 310 -138 325 -54 c 1
 334 0 l 1
 388 344 l 2
 395 386 386 396 364 396 c 3
 327 396 301 386 285 359 c 1
 228 0 l 1
 34 0 l 1xc0
EndSplineSet
Validated: 33
Substitution2: "'smcp' Lowercase to Small Capitals lookup 16-1" eng.smcp
EndChar

StartChar: exclam.smcp
Encoding: 502 -1 436
Width: 275
VWidth: 0
Flags: W
HStem: 0 165<75.7023 217.789>
VStem: 56 263
LayerCount: 2
Fore
SplineSet
56 23 m 2
 75 140 l 2
 77 155 87 165 103 165 c 2
 218 165 l 2
 233 165 239 154 237 140 c 2
 218 23 l 2
 216 8 206 0 192 0 c 2
 77 0 l 2
 63 0 54 9 56 23 c 2
93 197 m 1
 136 570 l 1
 319 570 l 1
 238 197 l 1
 93 197 l 1
EndSplineSet
Validated: 33
EndChar

StartChar: quotedbl.smcp
Encoding: 503 -1 437
Width: 496
VWidth: 0
Flags: W
HStem: 370 201<138 280 356 498>
LayerCount: 2
Fore
SplineSet
118 370 m 5
 127 504 l 5
 138 571 l 5
 322 571 l 5
 311 504 l 5
 280 370 l 5
 118 370 l 5
334 370 m 1
 345 504 l 1
 356 571 l 1
 540 571 l 1
 529 504 l 1
 498 370 l 1
 334 370 l 1
EndSplineSet
Validated: 1
EndChar

StartChar: numbersign.smcp
Encoding: 504 -1 438
Width: 646
VWidth: 0
Flags: W
HStem: 0 21G<106 244.364 311 449.412> 132 132<72 148 322 353 527 605> 338 132<137 214 387 419 592 670>
DStem2: 106 0 238 0 0.302208 0.953242<39.8915 138.521 316.933 354.834 532.944 622.088> 311 0 443 0 0.302208 0.953242<39.8915 137.567 316.933 354.834 532.944 622.088>
LayerCount: 2
Fore
SplineSet
31 132 m 1
 72 264 l 1
 190 264 l 1
 214 338 l 1
 96 338 l 1
 137 470 l 1
 255 470 l 1
 294 593 l 1
 426 593 l 1
 387 470 l 1
 460 470 l 9
 499 593 l 17
 631 593 l 9
 592 470 l 17
 711 470 l 1
 670 338 l 1
 551 338 l 1
 527 264 l 1
 644 263 l 1
 605 131 l 1
 485 131 l 9
 443 0 l 17
 311 0 l 9
 353 131 l 17
 280 132 l 1
 238 0 l 1
 106 0 l 1
 148 132 l 1
 31 132 l 1
322 264 m 1
 395 264 l 1
 419 338 l 1
 346 338 l 1
 322 264 l 1
EndSplineSet
Validated: 1
EndChar

StartChar: dollar.smcp
Encoding: 505 -1 439
Width: 535
VWidth: 0
Flags: W
HStem: -10 154<73.0953 189 297 331.96> 420 236<294 386.11>
DStem2: 389 569 312 420 0.996169 -0.0874507<0 168.223>
LayerCount: 2
Fore
SplineSet
52 16 m 1
 73 151 l 1
 73 151 204 144 308 144 c 0
 333 144 337 164 337 164 c 1
 340 178 l 2
 343 195 333 198 317 198 c 2
 217 198 l 2
 92 198 70 293 85 389 c 2
 91 426 l 17
 105 514 149 571 281 573 c 1
 294 656 l 1
 402 656 l 1
 389 569 l 1
 447 565 515 558 565 548 c 1
 544 411 l 1
 544 411 426 420 312 420 c 0
 296 420 286 410 284 396 c 2
 282 384 l 17
 280 370 284 362 303 362 c 2
 413 362 l 2
 541 362 549 253 535 163 c 2
 530 133 l 2
 505 -24 426 -10 297 -10 c 1
 284 -90 l 1
 176 -90 l 1
 189 -7 l 1
 127 -4 70 3 52 16 c 1
EndSplineSet
Validated: 33
EndChar

StartChar: percent.smcp
Encoding: 506 -1 440
Width: 1046
VWidth: 0
Flags: W
HStem: 0 125<803.906 924.502> 189 125<195.118 315.502> 258 125<818.224 941.005> 447 125<210.199 333.005>
DStem2: 328 0 459 0 0.521087 0.853504<68.2623 667.835>
LayerCount: 2
Fore
SplineSet
66 334 m 6xd0
 84 447 l 6
 97 532 136 572 237 572 c 6
 338 572 l 6
 436 572 474 512 461 427 c 6
 443 314 l 22
 430 229 394 189 293 189 c 6
 192 189 l 6
 94 189 53 249 66 334 c 6xd0
196 354 m 6
 193 332 194 314 227 314 c 6
 278 314 l 6
 312 314 320 332 323 354 c 14
 332 407 l 6
 337 440 326 447 301 447 c 6
 250 447 l 6
 228 447 210 441 205 407 c 6
 196 354 l 6
328 0 m 1
 676 570 l 1
 801 570 l 1
 459 0 l 1
 328 0 l 1
675 145 m 2
 693 258 l 2
 706 343 744 383 845 383 c 2
 946 383 l 2xb0
 1044 383 1083 323 1070 238 c 2
 1052 125 l 18
 1039 40 1003 0 902 0 c 2
 801 0 l 2
 703 0 662 60 675 145 c 2
805 165 m 2
 802 143 802 125 835 125 c 2
 886 125 l 2
 920 125 929 143 932 165 c 10
 940 218 l 2
 945 251 934 258 909 258 c 2
 858 258 l 2
 836 258 818 252 813 218 c 2
 805 165 l 2
EndSplineSet
Validated: 33
EndChar

StartChar: ampersand.smcp
Encoding: 507 -1 441
Width: 615
VWidth: 0
Flags: W
HStem: 0 21G<388.333 593> 415 133<401.125 480>
LayerCount: 2
Fore
SplineSet
60 90 m 0
 15 195 65 257 146 321 c 2
 194 358 l 1
 178 386 l 1
 132 466 196 559 269 571 c 0
 345 584 468 562 501 548 c 1
 480 415 l 1
 400 415 l 2
 376 415 351 409 370 377 c 2
 421 290 l 1
 552 370 l 1
 613 286 l 1
 536 188 l 1
 496 159 l 1
 593 0 l 1
 401 0 l 1
 363 60 l 1
 327 32 l 2
 276 -7 117 -43 60 90 c 0
214 169 m 0
 224 154 233 150 252 163 c 2
 286 188 l 1
 263 229 l 1
 228 204 l 18
 213 194 205 184 214 169 c 0
EndSplineSet
Validated: 33
EndChar

StartChar: quotesingle.smcp
Encoding: 508 -1 442
Width: 278
VWidth: 0
Flags: W
HStem: 370 201<138 280>
VStem: 117 205
LayerCount: 2
Fore
SplineSet
117 370 m 1
 127 504 l 1
 138 571 l 1
 322 571 l 1
 311 504 l 1
 280 370 l 1
 117 370 l 1
EndSplineSet
Validated: 1
EndChar

StartChar: asterisk.smcp
Encoding: 509 -1 443
Width: 417
VWidth: 0
Flags: W
HStem: 388 94<190.684 233> 393 70<101 153.316>
LayerCount: 2
Fore
SplineSet
90 393 m 1x40
 101 463 l 1x40
 243 482 l 1
 233 388 l 1x80
 90 393 l 1x40
115 245 m 1
 161 383 l 1
 249 359 l 1
 178 224 l 1
 115 245 l 1
221 286 m 1
 285 365 l 1
 384 276 l 1
 334 220 l 1
 221 286 l 1
244 549 m 1
 314 571 l 1
 355 445 l 1
 262 411 l 1
 244 549 l 1
293 398 m 1
 425 479 l 1
 457 422 l 1
 340 325 l 1
 293 398 l 1
EndSplineSet
Validated: 1
EndChar

StartChar: zero.smcp
Encoding: 510 -1 444
Width: 552
VWidth: 0
Flags: W
HStem: 0 174<261.44 353.658> 396 174<288.119 382.156>
LayerCount: 2
Fore
SplineSet
64 182 m 10
 99 428 l 2
 115 540 202 570 297 570 c 2
 441 570 l 2
 595 570 585 436 577 388 c 0
 543 142 l 18
 527 23 449 0 350 0 c 2
 206 0 l 2
 115 0 45 62 64 182 c 10
263 216 m 2
 257 177 268 174 290 174 c 10
 320 174 l 18
 351 174 354 192 358 217 c 2
 378 345 l 2
 382 373 392 396 353 396 c 2
 323 396 l 2
 287 396 287 374 283 346 c 2
 263 216 l 2
EndSplineSet
Validated: 33
EndChar

StartChar: one.smcp
Encoding: 511 -1 445
Width: 378
VWidth: 0
Flags: W
HStem: 0 21G<141 338.088>
DStem2: 141 0 335 0 0.152578 0.988291<29.6002 390.483>
LayerCount: 2
Fore
SplineSet
79 366 m 1
 98 489 l 1
 98 489 183 515 231 570 c 9
 423 570 l 1
 335 0 l 1
 141 0 l 1
 200 386 l 1
 157 357 79 366 79 366 c 1
EndSplineSet
Validated: 33
EndChar

StartChar: two.smcp
Encoding: 512 -1 446
Width: 523
VWidth: 0
Flags: W
HStem: 0 21G<30 498.218> 404 175<149.027 356.656> 404 145<110 212.375>
LayerCount: 2
Fore
SplineSet
30 0 m 25xc0
 57 168 l 17
 138 196 346 284 357 356 c 1
 363 396 351 404 270 404 c 2xc0
 87 404 l 2
 110 549 l 1xa0
 195 567 215 579 359 579 c 3
 515 579 576 492 554 352 c 0
 536 241 471 202 413 174 c 9
 523 174 l 25
 495 0 l 25
 30 0 l 25xc0
EndSplineSet
Validated: 33
EndChar

StartChar: three.smcp
Encoding: 513 -1 447
Width: 503
VWidth: 0
Flags: W
HStem: -5 169<47 296> 16 148<47 173.733> 210 150<126 295.922> 404 169<107.465 328.712> 404 147<104 260.346>
LayerCount: 2
Fore
SplineSet
24 16 m 1x60
 47 164 l 1
 262 164 l 2
 281 164 293 168 295 181 c 2
 296 186 l 2
 299 203 292 204 267 205 c 2
 103 210 l 2
 126 360 l 1
 292 364 l 2
 321 365 326 365 329 384 c 2
 330 387 l 2
 333 403 323 404 300 404 c 2xb0
 80 404 l 1
 104 551 l 1x28
 177 575 309 576 400 573 c 0
 496 570 543 500 530 419 c 2
 527 395 l 2
 518 338 502 295 447 284 c 1
 496 261 496 206 487 147 c 2
 485 131 l 2
 471 40 424 0 304 -5 c 0xb0
 214 -9 89 -8 24 16 c 1x60
EndSplineSet
Validated: 33
EndChar

StartChar: four.smcp
Encoding: 514 -1 448
Width: 568
VWidth: 0
Flags: W
HStem: 2 21G<313 510.208>
DStem2: 43 205 292 276 0.50225 0.864723<186.456 422.101>
LayerCount: 2
Fore
SplineSet
43 205 m 1
 255 570 l 5
 456 570 l 5
 292 276 l 1
 356 276 l 1
 370 361 l 1
 422 456 l 1
 579 456 l 1
 550 276 l 1
 600 276 l 1
 577 127 l 1
 524 108 l 1
 507 2 l 1
 313 2 l 1
 330 108 l 1
 75 108 l 1
 43 205 l 1
EndSplineSet
Validated: 1
EndChar

StartChar: five.smcp
Encoding: 515 -1 449
Width: 521
VWidth: 0
Flags: W
HStem: -1 169<69 324.986> 23 145<69 189.142> 396 174<284 526>
LayerCount: 2
Fore
SplineSet
46 23 m 1x60
 69 168 l 1
 293 168 l 2
 312 168 322 168 326 191 c 2
 327 198 l 2
 331 224 327 224 307 224 c 0
 274 224 l 2
 261 224 239 223 235 199 c 1
 75 199 l 1
 151 570 l 25
 554 570 l 1
 526 396 l 1
 284 396 l 25
 270 343 l 1
 294 364 324 367 347 367 c 2
 347 367 351 367 379 367 c 0
 497 367 538 301 520 185 c 6
 513 142 l 6
 494 20 406 0 321 -1 c 0xa0
 222 -2 125 0 46 23 c 1x60
EndSplineSet
Validated: 33
EndChar

StartChar: six.smcp
Encoding: 516 -1 450
Width: 531
VWidth: 0
Flags: W
HStem: 402 174<293.322 545> 402 159<313.723 545>
LayerCount: 2
Fore
SplineSet
82 320 m 0x80
 117 540 222 576 310 576 c 0x80
 389 576 495 577 570 561 c 1x40
 545 402 l 1
 343 402 l 1
 293 402 290 386 285 355 c 1
 335 366 353 367 411 367 c 0
 517 367 545 279 532 194 c 2
 525 150 l 2
 506 33 436 -1 363 -1 c 2
 245 -1 l 2
 121 -1 42 68 82 320 c 0x80
265 228 m 1
 257 176 260 173 288 173 c 2
 310 173 l 2
 328 173 334 178 337 200 c 2
 337 205 l 2
 340 226 337 228 319 228 c 2
 265 228 l 1
EndSplineSet
Validated: 33
EndChar

StartChar: seven.smcp
Encoding: 517 -1 451
Width: 478
VWidth: 0
Flags: W
HStem: 0 21G<78 295.366> 396 174<107 284>
DStem2: 78 0 285 0 0.460159 0.887836<95.2529 446.376>
LayerCount: 2
Fore
SplineSet
80 396 m 1
 107 570 l 1
 500 570 l 1
 540 492 l 1
 285 0 l 1
 78 0 l 1
 284 396 l 1
 80 396 l 1
EndSplineSet
Validated: 1
EndChar

StartChar: eight.smcp
Encoding: 518 -1 452
Width: 548
VWidth: 0
Flags: W
HStem: 0 155<260.938 341.278> 420 155<296.5 375.562>
LayerCount: 2
Fore
SplineSet
63 150 m 2
 71 200 l 2
 80 258 118 268 151 278 c 1
 104 295 97 349 101 390 c 2
 105 433 l 2
 125 560 192 575 282 575 c 2
 448 575 l 2
 534 575 596 538 576 413 c 2
 569 380 l 2
 566 363 554 309 496 297 c 1
 537 289 544 224 539 190 c 2
 528 120 l 2
 510 5 418 0 364 0 c 2
 181 0 l 2
 53 0 53 90 63 150 c 2
262 184 m 2
 257 155 265 155 288 155 c 2
 311 155 l 2
 337 155 338 158 342 181 c 2
 344 196 l 2
 347 216 346 221 323 221 c 2
 293 221 l 2
 277 221 268 219 265 199 c 2
 262 184 l 2
293 379 m 2
 291 367 288 354 313 354 c 2
 347 354 l 2
 370 354 370 366 372 376 c 2
 376 401 l 2
 378 416 372 420 356 420 c 2
 324 420 l 2
 309 420 299 416 297 401 c 2
 293 379 l 2
EndSplineSet
Validated: 33
EndChar

StartChar: nine.smcp
Encoding: 519 -1 453
Width: 530
VWidth: 0
Flags: W
HStem: -1 174<79 330.667> 14 159<79 310.277>
LayerCount: 2
Fore
SplineSet
54 14 m 1x40
 79 173 l 1
 281 173 l 1
 331 173 334 189 339 220 c 1
 263 208 256 208 201 208 c 0
 95 208 79 300 92 385 c 2
 99 429 l 2
 118 546 186 576 259 576 c 2
 379 576 l 2
 503 576 581 503 541 251 c 4
 506 31 402 -1 314 -1 c 0x80
 235 -1 129 -2 54 14 c 1x40
286 370 m 2
 283 349 285 347 303 347 c 2
 359 347 l 1
 367 399 361 402 333 402 c 2
 311 402 l 2
 293 402 290 397 287 375 c 2
 286 370 l 2
EndSplineSet
Validated: 33
EndChar

StartChar: question.smcp
Encoding: 520 -1 454
Width: 474
VWidth: 0
Flags: W
HStem: 0 165<141.614 283.652> 197 150<187 300> 395 179<100.754 316.844> 395 158<98 315.232>
LayerCount: 2
Fore
SplineSet
73 395 m 2xd0
 98 553 l 1xd0
 156 565 263 578 348 574 c 1
 468 574 536 515 514 374 c 2
 511 353 l 1
 493 241 414 199 303 221 c 1
 300 197 l 1
 164 197 l 1
 187 347 l 1
 231 346 262 347 283 347 c 0
 311 347 313 349 316 368 c 2
 317 374 l 2
 321 399 306 395 280 395 c 2xe0
 73 395 l 2xd0
122 23 m 2
 141 140 l 2
 143 155 153 165 169 165 c 2
 282 165 l 2
 300 165 306 156 303 140 c 2
 284 23 l 2
 281 5 269 0 255 0 c 2
 142 0 l 2
 128 0 120 9 122 23 c 2
EndSplineSet
Validated: 33
EndChar

StartChar: at.smcp
Encoding: 521 -1 455
Width: 919
VWidth: 0
Flags: W
HStem: -189 144<204.174 618.942> -162 117<479.118 647> 6 144<424.794 511.415> 413 143<458.119 591.45> 604 135<307.578 792.999>
DStem2: 46 69 192 49 0.156072 0.987746<-64.4383 539.036> 593 408 701 157 0.153773 0.988106<-229.97 0> 768 247 904 167 0.146431 0.989221<-88.9283 335.045>
LayerCount: 2
Fore
SplineSet
46 69 m 6xb8
 119 531 l 6
 149 718 260 739 415 739 c 2
 770 739 l 2
 940 739 971 622 949 471 c 6
 904 167 l 6
 888 57 836 13 692 13 c 6
 568 13 l 5
 544 63 l 5
 529 40 502 4 429 6 c 4
 304 10 250 125 277 302 c 4
 311 524 418 556 522 556 c 4
 640 556 697 536 748 487 c 5
 701 157 l 5
 749 157 756 166 768 247 c 6
 804 491 l 6
 817 582 795 604 724 604 c 6
 382 604 l 6
 287 604 271 548 262 491 c 6
 192 49 l 6
 183 -8 194 -45 280 -45 c 6xb8
 666 -45 l 5
 647 -162 l 5x78
 597 -172 481 -189 355 -189 c 6
 267 -189 l 6
 54 -189 27 -56 46 69 c 6xb8
421 284 m 4
 413 234 400 147 470 150 c 4
 525 152 560 173 564 220 c 5
 593 408 l 5
 564 412 538 413 514 413 c 4
 457 413 436 380 421 284 c 4
EndSplineSet
Validated: 33
EndChar

StartChar: a.smcp
Encoding: 522 -1 456
Width: 620
VWidth: 0
Flags: W
HStem: 0 21G<20 229.736 412.241 601> 87 144<322 390>
LayerCount: 2
Fore
SplineSet
20 0 m 1
 283 570 l 1
 527 570 l 1
 601 0 l 1
 415 0 l 1
 403 87 l 5
 259 87 l 1
 221 0 l 1
 20 0 l 1
322 231 m 1
 390 231 l 1
 375 344 l 1
 322 231 l 1
EndSplineSet
Validated: 1
EndChar

StartChar: b.smcp
Encoding: 523 -1 457
Width: 550
VWidth: 0
Flags: W
HStem: 0 155<264 353.338> 233 124<296 360.139> 417 154<305 390.906>
LayerCount: 2
Fore
SplineSet
45 0 m 1
 135 571 l 1
 409 571 l 2
 533 571 608 529 589 408 c 0
 575 321 526 291 477 291 c 1
 525 285 565 225 552 142 c 0
 530 5 445 0 319 0 c 2
 45 0 l 1
264 155 m 1
 324 155 l 2
 340 155 354 159 360 195 c 0
 364 223 356 233 336 233 c 2
 276 233 l 1
 264 155 l 1
296 357 m 1
 356 357 l 2
 379 357 387 367 390 388 c 0
 393 405 390 417 365 417 c 2
 305 417 l 1
 296 357 l 1
EndSplineSet
Validated: 33
EndChar

StartChar: c.smcp
Encoding: 524 -1 458
Width: 510
VWidth: 0
Flags: W
HStem: 1 144<161 462.491> 439 144<313.268 544.07>
LayerCount: 2
Fore
SplineSet
78 330 m 0
 107 514 173 583 357 583 c 0
 459 583 508 580 577 548 c 1
 557 419 l 1
 542 422 459 439 394 439 c 3
 292 439 287 398 272 300 c 0
 259 218 232 147 347 145 c 1
 431 145 516 164 516 164 c 2
 496 37 l 1
 418 0 381 1 265 1 c 3
 57 1 50 154 78 330 c 0
EndSplineSet
Validated: 33
EndChar

StartChar: d.smcp
Encoding: 525 -1 459
Width: 577
VWidth: 0
Flags: W
HStem: 0 164<265 369.102> 408 164<304 402.218>
LayerCount: 2
Fore
SplineSet
45 0 m 1
 136 572 l 1
 419 572 l 4
 603 570 614 414 596 257 c 0
 566 -14 426 0 332 0 c 0
 311 0 102 0 45 0 c 1
265 164 m 1
 330 164 l 2
 380 164 392 221 402 283 c 0
 417 377 405 408 369 408 c 2
 304 408 l 1
 265 164 l 1
EndSplineSet
Validated: 33
EndChar

StartChar: e.smcp
Encoding: 526 -1 460
Width: 509
VWidth: 0
Flags: W
HStem: -2 164<268.038 482.408> 16 146<271.697 488> 206 156<295 474.375> 213 141<320.625 478> 408 163<299.195 549.953> 408 146<300.693 550>
LayerCount: 2
Fore
SplineSet
64 123 m 2x80
 114 441 l 2
 129 538 197 570 278 571 c 1x88
 278 571 483 571 573 554 c 1
 550 408 l 1x04
 335 408 l 2
 305 408 301 399 297 375 c 1
 295 362 l 1x28
 500 354 l 1
 478 213 l 1x10
 271 206 l 1
 269 194 l 2
 264 165 279 162 300 162 c 2xa0
 511 162 l 1
 488 16 l 1x40
 370 -10 168 -2 168 -2 c 1
 94 0 50 36 64 123 c 2x80
EndSplineSet
Validated: 33
EndChar

StartChar: f.smcp
Encoding: 527 -1 461
Width: 510
VWidth: 0
Flags: W
HStem: 0 21G<45 242.118> 186 156<293 472.375> 193 141<318.625 476> 408 163<300.195 550.953> 408 146<301.693 551>
DStem2: 45 0 239 0 0.156768 0.987636<30.4129 218.659 376.65 446.566>
LayerCount: 2
Fore
SplineSet
45 0 m 1xc0
 115 441 l 2
 130 538 198 570 279 571 c 1xd0
 279 571 484 571 574 554 c 5
 551 408 l 5x88
 336 408 l 2
 306 408 302 399 298 375 c 1
 293 342 l 1xd0
 498 334 l 5
 476 193 l 5xa0
 268 186 l 1
 239 0 l 1
 45 0 l 1xc0
EndSplineSet
Validated: 1
EndChar

StartChar: g.smcp
Encoding: 528 -1 462
Width: 559
VWidth: 0
Flags: W
HStem: -7 173<114.5 315.517> 422 132<503.856 583.114>
LayerCount: 2
Fore
SplineSet
76 316 m 4
 105 500 164 570 316 579 c 4
 416 585 540 580 603 554 c 5
 582 422 l 5
 493 434 449 435 393 435 c 7
 315 435 294 434 271 288 c 4
 262 234 238 167 310 166 c 4
 341 166 364 180 368 208 c 13
 372 232 l 29
 334 232 l 29
 349 331 l 21
 391 342 436 346 517 346 c 4
 538 346 559 345 583 343 c 13
 529 0 l 21
 383 0 l 4
 345 44 l 5
 318 8 292 -7 213 -7 c 4
 16 -7 68 266 76 316 c 4
EndSplineSet
Validated: 33
EndChar

StartChar: h.smcp
Encoding: 529 -1 463
Width: 576
VWidth: 0
Flags: W
HStem: -1 21G<44 241.175 349 546.152>
DStem2: 44 -1 238 -1 0.155696 0.987805<30.205 221.571 397.653 578.049> 349 -1 543 -1 0.155696 0.987805<30.205 191.366 367.448 578.049>
LayerCount: 2
Fore
SplineSet
44 -1 m 5
 134 570 l 5
 328 570 l 5
 295 362 l 5
 406 362 l 5
 439 570 l 5
 633 570 l 5
 543 -1 l 5
 349 -1 l 5
 379 188 l 5
 268 188 l 5
 238 -1 l 5
 44 -1 l 5
EndSplineSet
Validated: 1
EndChar

StartChar: i.smcp
Encoding: 530 -1 464
Width: 272
VWidth: 0
Flags: W
HStem: 0 21G<45 242.158>
VStem: 45 284
DStem2: 45 0 239 0 0.155963 0.987763<30.2567 577.062>
LayerCount: 2
Fore
SplineSet
45 0 m 5
 135 570 l 5
 329 570 l 5
 239 0 l 5
 45 0 l 5
EndSplineSet
Validated: 1
EndChar

StartChar: j.smcp
Encoding: 531 -1 465
Width: 338
VWidth: 0
Flags: W
DStem2: 150 245 332 165 0.156088 0.987743<-62.1334 329.133>
LayerCount: 2
Fore
SplineSet
23 21 m 1
 47 175 l 1
 142 175 143 202 150 245 c 1
 202 570 l 1
 396 570 l 1
 332 165 l 2
 325 119 297 40 237 15 c 0
 158 -18 67 -8 23 21 c 1
EndSplineSet
Validated: 33
EndChar

StartChar: k.smcp
Encoding: 532 -1 466
Width: 586
VWidth: 0
Flags: W
HStem: -1 21G<44 231.153 367.793 577>
DStem2: 44 -1 228 -1 0.155696 0.987805<28.6481 234.155 390.169 578.049> 323 356 488 269 0.489573 0.871962<4.91891 248.776>
LayerCount: 2
Fore
SplineSet
44 -1 m 1
 134 570 l 1
 318 570 l 1
 285 356 l 1
 323 356 l 1
 450 570 l 1
 657 570 l 1
 488 269 l 5
 577 -1 l 1
 374 -1 l 1
 311 202 l 1
 260 202 l 1
 228 -1 l 1
 44 -1 l 1
EndSplineSet
Validated: 1
EndChar

StartChar: l.smcp
Encoding: 533 -1 467
Width: 506
VWidth: 0
Flags: W
HStem: 0 174<278.199 487>
DStem2: 68 146 277 241 0.156082 0.987744<70.0139 429.261>
LayerCount: 2
Fore
SplineSet
68 146 m 2
 135 570 l 1
 329 570 l 1
 277 241 l 2
 266 173 297 174 344 174 c 2
 514 174 l 1
 487 0 l 1
 191 0 l 2
 112 0 52 42 68 146 c 2
EndSplineSet
Validated: 33
EndChar

StartChar: m.smcp
Encoding: 534 -1 468
Width: 791
VWidth: 0
Flags: W
HStem: 0 21G<31 232.605 295.931 504.007 570 762.331>
DStem2: 31 0 228 0 0.242935 0.970042<47.8583 346.417> 570 0 761 0 0.066403 0.997793<12.683 293.416>
LayerCount: 2
Fore
SplineSet
31 0 m 1
 174 571 l 1
 429 571 l 1
 433 259 l 1
 537 571 l 5
 799 571 l 1
 761 0 l 1
 570 0 l 1
 586 293 l 1
 498 0 l 1
 296 0 l 1
 295 291 l 1
 228 0 l 1
 31 0 l 1
EndSplineSet
Validated: 1
EndChar

StartChar: n.smcp
Encoding: 535 -1 469
Width: 601
VWidth: 0
Flags: W
HStem: 0 21G<45 242.122 369.392 571.152>
LayerCount: 2
Fore
SplineSet
45 0 m 1
 135 571 l 1
 326 571 l 1
 430 329 l 1
 465 571 l 1
 658 571 l 1
 568 0 l 1
 378 0 l 1
 276 237 l 5
 239 0 l 1
 45 0 l 1
EndSplineSet
Validated: 1
EndChar

StartChar: o.smcp
Encoding: 536 -1 470
Width: 590
VWidth: 0
Flags: W
HStem: -5 174<268.577 381.64> 401 174<297.762 415.148>
LayerCount: 2
Fore
SplineSet
75 305 m 0
 114 549 219 575 385 575 c 3
 548 575 646 518 605 262 c 4
 566 17 462 -5 294 -5 c 3
 133 -5 36 56 75 305 c 0
270 285 m 0
 255 193 254 169 321 169 c 3
 384 169 396 193 411 287 c 0
 427 386 423 401 358 401 c 3
 301 401 286 386 270 285 c 0
EndSplineSet
Validated: 33
EndChar

StartChar: p.smcp
Encoding: 537 -1 471
Width: 531
VWidth: 0
Flags: W
HStem: 0 21G<34 231.118> 173 134<277.668 362.231> 415 154<294 372.958>
DStem2: 34 0 228 0 0.15623 0.987721<30.3086 218.555 341.194 450.524>
LayerCount: 2
Fore
SplineSet
34 0 m 1
 124 569 l 1
 405 569 l 2
 522 569 591 511 567 357 c 0
 538 171 427 175 362 173 c 1
 329 172 260 179 257 186 c 1
 228 0 l 1
 34 0 l 1
277 307 m 1
 330 307 l 2
 353 307 364 321 370 359 c 1
 375 393 378 415 347 415 c 2
 294 415 l 1
 277 307 l 1
EndSplineSet
Validated: 33
EndChar

StartChar: q.smcp
Encoding: 538 -1 472
Width: 590
VWidth: 0
Flags: W
HStem: -5 174<268.577 381.64> 401 174<297.762 415.148>
LayerCount: 2
Fore
SplineSet
75 300 m 0
 114 544 219 575 385 575 c 3
 548 575 646 523 605 267 c 0
 566 22 462 -5 294 -5 c 3
 133 -5 36 51 75 300 c 0
270 285 m 0
 255 193 254 169 321 169 c 3
 384 169 396 193 411 287 c 0
 427 386 423 401 358 401 c 3
 301 401 286 386 270 285 c 0
242 -33 m 9
 344 -33 l 17
 340 -94 435 -80 497 -68 c 1
 474 -208 l 1
 347 -226 219 -184 242 -33 c 9
EndSplineSet
Validated: 33
EndChar

